<?xml  version="1.0" encoding="UTF-8"?>
<!DOCTYPE svg PUBLIC "-//W3C//DTD SVG 1.0//EN" "http://www.w3.org/TR/2001/REC-SVG-20010904/DTD/svg10.dtd" >
<svg xmlns="http://www.w3.org/2000/svg" >
<metadata>
<version>1.0</version>
<id><![CDATA[Midan W23 Black]]></id>
<vendor>Monotype Imaging Inc.</vendor>
<credits>
<name>Fonts.com WebFonts</name>
<URL>http://webfonts.fonts.com</URL>
<role>Home of the Web fonts</role>
</credits>
<license>
<URL>http://webfonts.fonts.com/Legal</URL>
</license>
<copyright><![CDATA[Copyright © 2010 Linotype Corp., www.linotype.com. All rights reserved. This font software may not be reproduced, modified, disclosed or transferred without the express written approval of Linotype Corp. Midan is a trademark of Linotype Corp. and may be registered in certain jurisdictions in the name of Linotype Corp. or its licensee Linotype GmbH. This typeface is original artwork of Almohtaraf Assaudi. The design may be protected in certain jurisdictions.]]></copyright>
<trademark><![CDATA[Midan is a trademark of Linotype Corp. and may be registered in certain jurisdictions in the name of Linotype Corp. or its licensee Linotype GmbH.]]></trademark>
<licensee>
<name></name>
</licensee>
</metadata>
<defs >
<font horiz-adv-x="422" id="53708bf0-596d-49f1-9a7d-16354460627a">
<font-face font-family="" panose-1="2 0 10 6 2 0 0 2 0 4" ascent="830" descent="-360" units-per-em="1000" alphabetic="0">
</font-face>
<missing-glyph horiz-adv-x="320" />

<glyph unicode="&#xA;" />
<glyph unicode="&#xD;" horiz-adv-x="0" />
<glyph unicode=" " horiz-adv-x="198" />
<glyph unicode="!" horiz-adv-x="239" d="M191 255Q191 229 185 210T177 191Q175 190 169 186T154 177T133 168T109 164Q91 164 79 173V375Q78 374 77 374Q76 374 76 374T74 373L70 371Q58 374 46 380T31 402Q43 415 56 429T84 454T116 472T154 479Q174 479 182 468T191 438V255ZM195 60Q195 31 175 12T127 -7Q98 -7 80 12T61 60Q61 88 81 107T130 127Q159 127 177 108T195 60Z"  />
<glyph unicode="&quot;" horiz-adv-x="345" d="M55 471H143V269H55V471ZM202 471H289V269H202V471Z"  />
<glyph unicode="#" horiz-adv-x="397" d="M318 209H384V153H314L303 0H216L226 153H158L148 0H60L71 153H4V209H75L81 282H13V339H84L94 472H182L172 339H240L250 472H337L328 339H394V282H324L318 209ZM163 209H230L236 282H168L163 209Z"  />
<glyph unicode="$" horiz-adv-x="397" d="M371 140Q371 95 354 67T308 22T243 -1T171 -7L159 -70L127 -67L138 -7Q117 -7 96 -6T59 0T32 13T22 35Q22 47 26 60T37 84T53 102T72 109Q87 109 99 107T122 97L115 74Q122 72 131 71T152 68L175 193Q173 195 170 195T164 198L159 200Q135 210 112 222T69 250T37 287T25 337Q25 380 43 407T91 450T156 472T228 479L239 540L271 538L260 479Q275 479 294 478T330 472T358 459T370 436Q370 424 366 411T354 387T338 369T319 362Q305 362 293 365T271 374L277 397Q272 399 265 400T246 402L224 282L234 278Q262 267 287 256T331 229T360 192T371 140ZM251 121Q251 144 238 158T205 181L184 67Q215 69 233 83T251 121ZM214 404Q186 404 167 392T147 348Q147 331 162 319T195 296L214 404Z"  />
<glyph unicode="%" horiz-adv-x="608" d="M256 327Q256 288 247 261T222 216T185 191T139 183Q87 183 58 217T29 331Q29 408 63 442T145 477Q199 477 227 442T256 327ZM580 139Q580 100 571 73T546 28T509 3T463 -5Q411 -5 382 29T353 143Q353 220 386 254T468 289Q522 289 551 254T580 139ZM133 -44Q122 -42 109 -37T87 -24L473 515Q491 511 499 507T522 493L133 -44ZM499 139Q499 190 492 217T465 244Q446 244 439 219T432 143Q432 91 440 65T468 38Q487 38 493 63T499 139ZM175 327Q175 379 168 406T141 433Q122 433 116 408T109 331Q109 279 116 253T144 227Q163 227 169 251T175 327Z"  />
<glyph unicode="&amp;" horiz-adv-x="490" d="M452 216Q452 180 437 148T396 90Q413 67 427 49T449 21V20Q449 14 445 12Q433 6 410 0T369 -7Q343 -7 331 -2T303 19L300 23Q234 -7 164 -7Q136 -7 111 0T67 23T37 62T26 118Q26 171 57 208T133 271Q116 301 106 322T95 370Q95 406 111 428T153 463T208 481T264 486Q317 486 352 465T387 399Q387 375 377 357T351 323T312 297T266 274Q286 242 310 209T358 142Q367 156 372 171T378 203Q378 226 372 240T356 260Q366 269 378 275T406 282Q425 282 438 266T452 216ZM262 71Q241 100 216 138T167 214Q140 190 140 147Q140 132 145 117T160 90T187 71T226 64Q234 64 242 66T262 71ZM305 388Q305 407 293 414T265 422Q256 422 247 420T230 413T217 398T212 375Q212 360 218 352T235 324Q266 341 285 354T305 388Z"  />
<glyph unicode="&apos;" horiz-adv-x="198" d="M55 470H143V268H55V470Z"  />
<glyph unicode="(" horiz-adv-x="248" d="M254 521Q190 458 161 386T131 227Q131 137 159 59T252 -86L186 -113Q109 -42 71 40T33 228Q33 328 74 404T189 545L254 521H254Z"  />
<glyph unicode=")" horiz-adv-x="248" d="M214 205Q214 105 174 29T59 -112L-6 -88Q58 -25 87 47T117 207Q117 296 89 374T-4 519L62 546Q139 474 176 393T214 205Z"  />
<glyph unicode="*" horiz-adv-x="340" d="M297 235L232 203L190 287L152 204L88 237L134 311L48 307V380L139 377L87 452L152 484L194 400L232 483L296 451L250 376L336 380V307L245 310L297 235Z"  />
<glyph unicode="+" horiz-adv-x="397" d="M246 0H154V137H26V213H154V340H246V213H372V137H246V0Z"  />
<glyph unicode="&#x2c;" horiz-adv-x="198" d="M159 77Q159 62 156 39T147 -8T136 -51T127 -78Q118 -86 107 -89T84 -92Q78 -92 71 -92T56 -90V111Q67 115 80 116T105 118Q131 118 145 109T159 77Z"  />
<glyph unicode="-" horiz-adv-x="289" d="M274 206Q274 187 264 172T239 152Q232 150 216 149T181 147H17Q17 151 16 155T15 164Q15 183 25 198T50 220Q58 221 74 222T108 224H273Q273 220 273 216T274 206Z"  />
<glyph unicode="." horiz-adv-x="198" d="M166 60Q166 31 146 12T98 -7Q69 -7 51 12T33 60Q33 88 52 107T101 127Q130 127 148 108T166 60Z"  />
<glyph unicode="/" horiz-adv-x="372" d="M57 -30Q34 -30 22 -25T0 -10L316 498Q339 498 351 493T372 477L57 -30H57Z"  />
<glyph unicode="0" horiz-adv-x="397" d="M376 232Q376 163 362 117T324 44T266 5T196 -7Q155 -7 123 4T68 44T33 119T21 239Q21 307 35 353T73 427T130 467T201 479Q243 479 276 467T331 427T364 351T376 232ZM250 233Q250 324 239 364T198 404Q170 404 159 364T148 238Q148 144 158 106T199 67Q228 67 239 107T250 233Z"  />
<glyph unicode="1" horiz-adv-x="397" d="M278 32Q265 11 246 2T191 -7Q182 -7 176 -5T163 1V317Q163 326 163 336T166 355Q167 365 169 374L133 346Q122 340 107 331T90 319Q79 319 70 324T52 336T39 351T30 365L160 456Q170 464 190 471T245 479Q267 479 272 468T278 438V32H278Z"  />
<glyph unicode="2" horiz-adv-x="397" d="M355 68Q355 48 342 30T317 6Q312 5 301 4T275 2T246 1T219 0H16Q1 11 -3 28T-8 62Q-8 70 -7 81T-4 98Q11 107 29 119T68 147T110 179T149 215Q174 240 190 268T207 323Q207 344 199 357T178 378T149 389T115 392Q90 392 66 388T21 376Q14 383 12 391T10 411Q10 426 16 438T34 461Q110 480 183 480Q252 480 296 449T341 356Q341 302 318 265T259 192Q226 159 190 132T121 85L128 86Q139 87 158 88T193 90H351Q351 86 353 80T355 68Z"  />
<glyph unicode="3" horiz-adv-x="397" d="M323 374Q323 343 312 322T281 286T239 263T191 249Q246 249 282 224T318 145Q318 98 291 68T225 22T139 -1T56 -7Q49 4 49 22Q49 34 54 48T68 72Q85 73 106 75T147 86T180 108T193 148Q193 168 185 179T163 196T134 203T103 205H74Q67 215 67 234Q67 246 72 260T86 284Q101 284 120 286T156 294T186 312T198 346Q198 360 192 369T177 384T155 392T130 394Q113 394 96 391T64 384Q59 390 57 399T55 414Q55 429 61 442T75 464Q92 469 120 474T181 479Q206 479 231 475T276 458T310 426T323 374Z"  />
<glyph unicode="4" horiz-adv-x="397" d="M397 202Q397 182 386 166T359 140Q348 138 333 138T307 138V24Q292 7 274 0T226 -7Q215 -7 207 -6T192 -1Q192 1 195 136H41Q25 151 16 170T6 211L168 450Q187 465 214 472T274 479Q286 479 294 478T307 475V227H392Q393 224 394 220Q395 217 396 213T397 202ZM205 389Q205 389 202 383T195 367T187 348T179 332L141 260Q137 253 133 247T125 236Q121 230 116 225Q122 225 128 226Q133 226 139 226T151 227H197L200 327Q200 336 201 347T203 367Q204 378 205 389Z"  />
<glyph unicode="5" horiz-adv-x="397" d="M375 455Q375 440 365 419T332 383Q322 381 302 381T271 381H197L163 312Q171 312 180 312T196 313Q223 313 249 307T296 286T328 248T341 190Q341 135 315 98T248 37T156 3T53 -7Q48 -1 46 7T44 26Q44 38 48 52T56 74Q81 76 109 80T160 95T198 125T213 175Q213 191 206 202T188 221T165 232T140 235Q118 235 97 232Q73 244 63 260T49 290L122 472H373L374 464Q375 461 375 455Z"  />
<glyph unicode="6" horiz-adv-x="397" d="M401 450Q401 425 381 397Q287 395 230 361T150 247Q171 269 200 279T258 289Q286 289 309 279T349 252T375 212T385 165Q385 123 370 91T329 37T269 4T198 -7Q157 -7 124 5T67 39T30 92T17 163Q17 244 49 303T135 402T255 460T394 479Q401 470 401 450ZM278 149Q278 178 262 195T220 212Q193 212 173 197T141 162Q141 144 143 127T153 96T173 75T207 67Q241 67 259 92T278 149Z"  />
<glyph unicode="7" horiz-adv-x="397" d="M172 31Q158 11 130 2T64 -7Q56 -7 48 -6T35 -2L202 331Q208 342 217 356T230 378L234 383Q226 382 219 382Q213 381 206 381T194 381H35Q30 396 30 406Q30 421 38 438T58 466Q63 467 73 468T96 470T121 471T144 472H348Q359 464 366 447T373 409L172 31H172Z"  />
<glyph unicode="8" horiz-adv-x="397" d="M374 375Q374 333 351 303T294 250Q326 230 350 205T374 140Q374 102 356 74T310 28T248 2T182 -7Q156 -7 128 -2T77 17T38 54T23 111Q23 149 50 177T115 230Q81 249 57 276T32 344Q32 381 50 407T97 449T158 472T223 479Q246 479 272 475T321 460T359 428T374 375ZM252 118Q252 140 235 156T191 187Q162 170 145 152T127 112Q127 83 145 72T186 60Q211 60 231 74T252 118ZM273 361Q273 381 260 396T220 412Q194 412 173 399T152 355Q152 335 171 321T218 292Q243 309 258 325T273 361Z"  />
<glyph unicode="9" horiz-adv-x="397" d="M380 310Q380 228 348 169T264 70T143 13T4 -6Q-4 2 -4 22Q-4 46 17 75Q110 77 167 111T247 225Q227 203 198 194T140 184Q112 184 89 194T48 221T22 261T12 307Q12 349 27 381T68 435T128 468T199 479Q239 479 272 468T330 434T367 381T380 310ZM257 310Q257 326 255 343T245 374T225 397T190 406Q156 406 138 381T119 323Q119 294 136 277T177 260Q204 260 224 275T257 310Z"  />
<glyph unicode=":" horiz-adv-x="198" d="M166 280Q166 251 146 232T98 213Q69 213 51 232T33 280Q33 308 52 328T101 348Q130 348 148 328T166 280ZM166 60Q166 31 146 12T98 -7Q69 -7 51 12T33 60Q33 88 52 107T101 127Q130 127 148 108T166 60Z"  />
<glyph unicode=";" horiz-adv-x="198" d="M159 77Q159 62 156 39T147 -8T136 -51T127 -78Q118 -86 107 -89T84 -92Q78 -92 71 -92T56 -90V111Q67 115 80 116T105 118Q131 118 145 109T159 77ZM174 280Q174 251 154 232T106 213Q75 213 58 232T41 280Q41 308 61 328T109 348Q138 348 156 330T174 280Z"  />
<glyph unicode="&lt;" horiz-adv-x="397" d="M28 148V212L338 352L363 277L133 181L363 67L336 -15L28 148Z"  />
<glyph unicode="=" horiz-adv-x="397" d="M33 142H363V66H33V142ZM33 289H362V212H33V289Z"  />
<glyph unicode="&gt;" horiz-adv-x="397" d="M35 62L265 158L35 273L62 354L371 191V127L60 -13L35 62Z"  />
<glyph unicode="?" horiz-adv-x="271" d="M282 392Q282 361 266 337T230 291Q217 278 209 263T197 232T190 202T187 176Q182 173 171 170T148 163T122 158T99 156Q87 157 82 157T75 159Q74 165 74 171Q73 176 73 182T73 194Q73 231 90 258T129 307Q156 334 156 363Q156 386 144 395T111 404Q94 404 78 402T43 396Q31 406 31 422Q31 435 35 446T48 467Q71 473 104 476T164 479Q182 479 202 475T241 460T270 433T282 392ZM195 60Q195 31 175 12T127 -7Q98 -7 80 12T61 60Q61 88 81 107T130 127Q159 127 177 108T195 60Z"  />
<glyph unicode="@" horiz-adv-x="749" d="M721 203Q721 155 707 110T666 28T600 -29T511 -51Q482 -51 463 -43T433 -22T416 4T411 29V41Q411 51 412 54Q395 28 370 11T303 -7Q266 -7 243 16T220 81Q220 118 239 142T286 183T345 207T403 221V239Q403 271 367 271Q353 271 341 268T316 250Q310 245 303 231Q295 228 283 227T264 225Q249 225 240 230T230 253Q230 268 247 285T289 316T346 339T404 348Q458 348 486 323T515 250V61Q515 58 517 52T523 40T535 29T554 24Q573 24 589 37T618 74T638 128T646 193Q646 234 632 275T590 348T517 401T412 422Q331 422 275 401T182 341T130 249T114 131Q114 92 123 52T153 -22T207 -76T288 -97Q319 -97 347 -95T405 -85Q413 -98 413 -118Q413 -125 412 -132T405 -148Q374 -154 344 -156T280 -159Q217 -159 170 -134T92 -66T45 30T29 141Q29 219 55 281T132 388T256 456T425 480Q497 480 552 456T644 393T701 304T721 203ZM403 157Q371 153 351 140T330 102Q330 85 338 78T360 71Q375 71 386 83T403 107V157Z"  />
<glyph unicode="A" horiz-adv-x="407" d="M428 56Q426 53 417 43T393 21T362 2T330 -7Q306 -7 298 7T281 50L251 147H129L102 65Q108 63 113 55T121 37Q98 17 74 5T18 -7Q7 -7 -1 -1T-10 16Q-10 18 -9 24T-6 32Q26 114 54 186Q66 217 78 248T102 309T122 362T138 401L147 423L141 440Q158 452 182 465T229 479Q245 479 255 474T271 453L392 85Q393 85 393 85T395 86H396Q405 86 414 75T428 56ZM204 298Q200 309 198 324T193 349Q191 357 191 356Q191 353 190 350Q188 341 185 326T177 296L151 216H230L204 298Z"  />
<glyph unicode="B" horiz-adv-x="436" d="M409 133Q409 104 400 79T370 36T315 8T230 -3H183Q148 -3 115 -3T58 0V397H38Q33 397 29 397T19 396V413Q19 430 29 445T56 468Q68 470 87 471T130 474T178 475T226 476Q281 476 315 467T369 443T396 407T404 362Q404 309 372 278T282 241Q344 239 376 210T409 133ZM287 144Q287 160 281 171T263 188T239 197T212 200H175V72Q178 72 182 71T189 70Q206 70 223 72T255 82T278 104T287 144ZM282 345Q282 377 263 389T207 401Q199 401 191 401T175 400V276H207Q242 276 262 293T282 345Z"  />
<glyph unicode="C" horiz-adv-x="392" d="M405 435Q405 423 400 410T387 385T368 366T348 358Q331 358 315 361T293 371L301 394Q293 396 286 396T272 396Q234 396 211 377T175 331T158 274T153 222Q153 195 159 169T178 122T211 89T259 76Q279 76 302 82T342 97Q362 86 370 70T378 38V29Q340 12 307 3T228 -7Q183 -7 146 9T81 56T39 127T24 218Q24 281 46 329T108 411T199 462T310 479Q322 479 338 478T370 473T395 460T405 435Z"  />
<glyph unicode="D" horiz-adv-x="491" d="M467 273Q467 220 454 171T406 82T312 20T161 -4Q138 -4 108 -3T58 0V398Q50 398 39 398T20 397Q19 402 19 406T19 415Q19 434 29 449T56 470Q69 472 89 473T132 475T178 476T220 477Q292 477 340 458T416 410T455 344T467 273ZM339 258Q339 333 297 366T186 400H175V74H205Q265 74 302 122T339 258Z"  />
<glyph unicode="E" horiz-adv-x="361" d="M350 60Q350 40 340 24T312 3Q306 3 287 2T253 0H58V394H20Q19 396 19 398T19 403V412Q19 431 29 446T56 467Q62 469 79 470T113 472H340Q341 467 341 463T342 454Q342 434 332 419T305 399Q298 397 281 396T245 394H175V277H341Q342 272 342 269T342 260Q342 240 332 224T305 203Q300 202 280 201T243 199H175V78H349Q349 73 349 69T350 60Z"  />
<glyph unicode="F" horiz-adv-x="342" d="M342 260Q342 240 332 225T305 204Q300 202 280 201T243 200H175V80Q186 80 191 73T201 58Q180 26 156 10T100 -6Q73 -6 66 9T58 58V394H20Q19 396 19 398T19 403V412Q19 431 29 446T56 467Q63 469 79 470T113 472H340Q341 467 341 463T342 454Q342 434 332 419T305 399Q298 397 281 396T245 394H175V277H341Q342 272 342 269T342 260Z"  />
<glyph unicode="G" horiz-adv-x="474" d="M436 36Q399 22 349 8T230 -7Q184 -7 146 11T81 60T39 134T24 227Q24 290 50 337T118 416T216 463T330 479Q343 479 359 478T391 473T416 460T426 435Q426 423 421 410T408 385T389 366T368 358Q351 358 335 361T314 371L321 394Q313 396 306 396T293 396Q253 396 226 378T183 334T160 280T153 232Q153 205 159 177T179 127T212 90T261 76Q295 76 325 86V187Q314 187 309 194T299 210Q319 242 342 257T397 273Q419 273 427 263T436 229V36H436Z"  />
<glyph unicode="H" horiz-adv-x="475" d="M444 57Q423 25 399 9T343 -7Q316 -7 308 8T300 58V199H175V79Q184 79 191 71T201 57Q180 25 156 9T100 -7Q73 -7 66 8T58 58V354Q41 354 32 361T13 382Q22 399 34 416T62 448T94 470T130 479Q146 479 155 473T168 458T174 438T175 417V276H300V354Q284 354 275 361T255 382Q264 399 276 416T304 448T336 470T372 479Q388 479 397 473T411 458T416 438T417 417V79Q428 79 434 71T444 57Z"  />
<glyph unicode="I" horiz-adv-x="232" d="M201 58Q180 26 156 10T100 -6Q73 -6 66 9T58 58V354Q42 354 32 361T13 382Q22 399 34 416T62 448T94 470T130 479Q146 479 155 473T168 458T174 438T175 417V80Q186 80 191 73T201 58Z"  />
<glyph unicode="J" horiz-adv-x="275" d="M234 212Q234 160 226 119T197 50T138 8T43 -7Q1 -7 -14 6T-29 37Q-29 48 -25 59T-13 80T2 96T19 102Q28 102 37 101T51 95L52 79Q65 76 71 76Q87 76 96 86T109 110T115 140T116 166V354Q100 354 90 361T71 382Q80 399 92 416T120 448T152 470T188 479Q204 479 213 473T227 458T233 438T234 417V212H234Z"  />
<glyph unicode="K" horiz-adv-x="425" d="M201 58Q180 26 156 10T100 -6Q73 -6 66 9T58 58V354Q41 354 32 361T13 382Q22 399 34 416T62 448T94 470T130 479Q146 479 155 473T168 458T174 438T175 417V80Q183 80 191 72T201 58ZM444 445Q444 436 442 431T435 420L301 251L431 30L429 23Q422 16 398 5T345 -7Q337 -7 327 -6T312 3L180 225L337 420H330Q323 420 320 431T317 454V458Q340 467 366 473T408 479Q422 479 433 469T444 445Z"  />
<glyph unicode="L" horiz-adv-x="329" d="M336 60Q336 40 326 25T298 3Q291 3 271 2T234 0H58V354Q44 354 34 360T13 382Q22 399 34 416T62 448T94 470T130 479Q146 479 155 473T168 458T174 438T175 417V78H335Q335 73 335 69T336 60Z"  />
<glyph unicode="M" horiz-adv-x="638" d="M655 56Q653 53 644 43T621 22T592 2T562 -7Q537 -7 527 6T510 49L461 268Q456 289 455 312T451 349Q449 335 448 312T439 268L388 109Q382 92 376 77T359 38Q353 25 344 17T323 3T299 -5T276 -7Q265 -7 253 -2L175 267Q170 284 167 309T161 349Q160 342 160 332T158 310T156 287T152 269L114 131Q110 117 107 105T101 75Q107 75 113 65T122 42Q99 22 77 8T23 -7Q12 -7 3 -3T-7 13Q-7 21 -5 31T1 52L115 429L111 444Q129 455 153 467T202 479Q211 479 221 474T236 454L305 216Q315 179 321 132Q329 183 340 218L410 429L406 443Q423 454 447 466T497 479Q506 479 517 475T532 454L621 86Q635 86 642 78T655 56Z"  />
<glyph unicode="N" horiz-adv-x="494" d="M447 214Q446 170 440 131T429 66Q426 60 418 48T397 23T365 2T325 -7Q319 -7 314 -7T303 -5L168 235Q160 248 151 269T136 303L132 312Q132 302 133 291Q133 282 133 272T134 251V116Q134 106 135 96Q136 88 136 80T137 68Q146 68 152 61T164 46Q159 39 151 30T132 13T109 -1T85 -7Q67 -7 60 5T52 31V417L44 432L65 447Q83 460 104 469T143 479Q151 479 160 475T180 450L364 119V362Q364 371 364 383T362 404Q353 404 347 411T335 426Q339 433 348 442T367 459T390 473T414 479Q432 479 439 467T447 440V214H447Z"  />
<glyph unicode="O" horiz-adv-x="500" d="M477 242Q477 190 459 145T409 66T333 13T237 -6Q184 -6 145 12T78 61T38 137T24 234Q24 285 42 330T92 408T168 460T263 479Q315 479 355 461T422 412T463 337T477 242ZM348 239Q348 264 346 291T334 342T306 380T254 396Q223 396 204 380T173 339T157 285T153 229Q153 205 155 178T167 129T195 91T246 76Q277 76 296 92T327 132T343 184T348 239Z"  />
<glyph unicode="P" horiz-adv-x="392" d="M404 353Q404 297 382 267T328 222T262 205T204 202H175V79Q185 79 192 71T201 57Q180 25 156 9T100 -7Q73 -7 66 8T58 58V395Q54 394 48 394H19Q19 396 19 398T18 402V410Q18 429 28 445T55 468Q100 473 144 474T234 476Q287 476 320 467T372 441T397 402T404 353ZM282 343Q282 375 263 387T204 399Q196 399 189 399T175 398V279H203Q215 279 229 282T254 292T274 311T282 343Z"  />
<glyph unicode="Q" horiz-adv-x="500" d="M547 -36Q535 -66 510 -80T461 -95Q457 -95 453 -95T444 -93L268 -5Q260 -6 253 -6T237 -7Q184 -7 145 12T78 65T38 141T24 234Q24 285 42 330T92 408T168 460T263 479Q315 479 355 460T422 409T463 334T477 242Q477 180 453 130T387 44L547 -36ZM348 239Q348 264 346 291T334 342T306 380T254 396Q223 396 204 380T173 339T157 285T153 229Q153 205 155 178T167 128T195 90T246 75Q277 75 296 91T327 131T343 184T348 239Z"  />
<glyph unicode="R" horiz-adv-x="435" d="M437 23Q434 20 426 15T405 5T379 -3T350 -7Q342 -7 332 -6T317 3L183 223Q187 235 195 249T220 273Q258 277 275 296T292 345Q292 374 273 387T220 400Q209 400 198 400T175 399V79Q186 78 191 72T201 57Q180 25 156 9T100 -7Q73 -7 66 8T58 58V396L20 394Q20 396 20 397T19 400V406Q19 453 56 468Q69 470 90 471T135 474T186 476T234 477Q288 477 323 468T378 443T406 405T414 358Q414 322 404 299T378 262T347 239T317 227L439 31L437 23H437Z"  />
<glyph unicode="S" horiz-adv-x="344" d="M330 436Q330 424 326 411T314 387T296 369T273 362Q262 362 251 364T230 374L236 397Q227 399 216 400T191 402Q170 402 155 388T139 348Q139 334 146 324T163 305T184 290T206 278Q262 254 293 224T324 140Q324 98 307 70T260 25T193 0T113 -8Q96 -8 78 -7T44 -2T18 11T8 35Q8 47 12 60T24 84T42 102T65 109Q75 109 86 107T108 97L101 74Q110 72 121 71T146 69Q175 69 189 85T204 124Q204 140 197 151T180 172T156 187T130 200Q82 220 50 254T17 337Q17 378 35 405T83 449T149 472T223 479Q238 479 257 478T292 473T319 460T330 436Z"  />
<glyph unicode="T" horiz-adv-x="300" d="M326 454Q326 434 316 419T289 399Q281 397 262 396T225 395H209V80Q220 80 226 72T235 58Q214 26 190 10T134 -6Q107 -6 100 9T92 58V395H-26Q-26 400 -26 403T-27 412Q-27 432 -17 447T10 468Q18 470 37 471T74 472H324Q325 467 325 463T326 454Z"  />
<glyph unicode="U" horiz-adv-x="493" d="M461 57Q441 25 417 9T361 -7Q333 -7 327 9T321 61V83Q321 97 322 102Q314 86 298 67T260 32T209 4T148 -7Q122 -7 105 2T76 26T60 60T55 102V354Q39 354 29 361T10 382Q19 399 31 416T59 448T91 470T127 479Q143 479 152 473T166 458T171 438T172 417V154Q172 121 181 110T218 99Q232 99 246 107T274 130T298 163T317 202V354Q303 354 294 361T275 383Q284 400 296 417T322 448T354 470T390 479Q406 479 415 473T428 458T433 438T434 417V78Q453 78 461 57Z"  />
<glyph unicode="V" horiz-adv-x="374" d="M413 456Q413 454 413 448T410 440L294 140Q280 104 269 76T252 33L248 24Q246 19 236 14T213 4T187 -4T167 -7Q157 -7 150 -4T139 9L24 357Q20 356 12 356Q-3 356 -12 365T-29 390Q-20 403 -9 418T15 447T45 470T80 479Q93 479 102 473T117 451L189 217L212 114Q212 115 214 127T221 156T229 188T236 214L296 404Q291 406 286 414T278 432Q301 452 327 465T387 479Q398 479 405 473T413 456Z"  />
<glyph unicode="W" horiz-adv-x="603" d="M629 448Q629 443 628 437T623 420L532 166Q516 123 501 88T478 38Q465 20 440 7T390 -7Q382 -7 378 -6T368 1Q367 5 361 27T348 78T332 133T319 176L316 189Q312 202 310 219T306 248Q305 252 305 255Q305 253 303 247Q301 237 298 219T289 188L259 107Q251 87 245 70T234 44L232 38Q220 20 195 7T145 -7Q137 -7 133 -6T122 1L17 357Q13 356 5 356Q-10 356 -19 365T-36 390Q-27 403 -16 418T8 447T38 470T73 479Q86 479 95 474T109 452L173 220Q176 210 179 195T185 164T190 138T192 126Q192 127 194 137T201 162T209 190T218 216L269 357Q264 356 257 356Q242 356 233 365T215 390Q223 403 234 418T259 447T289 470T324 479Q337 479 346 474T360 452L423 220Q427 205 431 180T438 138Q439 133 439 131T440 127Q440 129 443 138Q448 152 454 175T465 216L524 401Q508 401 502 414T494 438Q515 453 541 466T593 479Q610 479 619 470T629 448Z"  />
<glyph unicode="X" horiz-adv-x="373" d="M374 70Q365 55 353 42T327 17T299 0T271 -7Q243 -7 234 13L191 98Q182 115 176 129T161 164Q153 144 144 128T127 96L110 62Q123 62 128 51T136 21Q125 15 111 10T81 1T52 -5T28 -7Q14 -7 4 3T-6 24Q-6 28 -4 36T3 52L117 234L47 367Q43 365 37 364T28 362Q16 362 6 373T-10 402Q0 416 12 430T37 455T65 472T93 479Q120 479 131 459L170 380Q179 363 186 348T200 313Q208 333 215 346T230 376L247 410Q235 410 229 421T221 451Q231 457 246 462T276 471T306 477T330 479Q344 479 354 469T364 447Q364 444 362 436T355 420L244 243L317 105Q327 109 337 109Q348 109 358 98T374 70Z"  />
<glyph unicode="Y" horiz-adv-x="316" d="M344 447Q344 444 342 436T335 420L217 233V79Q227 79 232 74T243 57Q202 -7 143 -7Q115 -7 108 8T100 58V229L26 366Q23 364 17 363T7 362Q-6 362 -16 373T-31 401Q-21 415 -9 429T17 454T44 472T72 479Q99 479 110 458L150 379Q159 361 166 348T180 314Q188 334 196 348T212 378L228 410Q216 410 210 421T202 451Q212 457 227 462T257 471T287 477T311 479Q325 479 334 469T344 447Z"  />
<glyph unicode="Z" horiz-adv-x="348" d="M156 109Q151 101 144 94T132 82L127 77Q142 77 155 77T190 77T247 78T343 78Q346 69 346 61Q346 41 337 26T310 4Q301 2 284 1T243 0H19Q2 8 -6 24T-16 59L172 362Q177 370 181 376T189 387L198 397L191 396Q180 396 162 395T134 394H1Q-1 399 -1 403T-1 412Q-1 429 8 445T33 467Q42 468 62 470T101 472H310Q326 464 336 449T347 415L156 109H156Z"  />
<glyph unicode="[" horiz-adv-x="247" d="M63 532H244V477H149V-46H244V-100H63V532Z"  />
<glyph unicode="\" horiz-adv-x="372" d="M372 -10Q363 -19 351 -24T316 -30L0 477Q9 487 21 492T56 498L372 -10H372Z"  />
<glyph unicode="]" horiz-adv-x="247" d="M3 -46H98V477H3V532H184V-100H3V-46Z"  />
<glyph unicode="^" horiz-adv-x="397" d="M193 369L86 129L12 154L164 474H229L386 157L303 129L193 369Z"  />
<glyph unicode="_" horiz-adv-x="320" d="M0 -48H320V-82H0V-48Z"  />
<glyph unicode="`" horiz-adv-x="209" d="M155 402Q155 402 151 400T140 396T127 392T116 390Q101 390 97 397L17 504Q25 516 43 523T75 531Q90 531 102 527L155 402H155Z"  />
<glyph unicode="a" horiz-adv-x="342" d="M362 70Q355 62 342 49T313 24T278 2T241 -7Q212 -7 204 5T195 38V53Q177 26 153 10Q127 -7 86 -7Q50 -7 27 16T3 81Q3 118 22 142T69 183T128 207T186 221V239Q186 271 150 271Q137 271 125 268T99 250Q96 247 93 242T87 231Q79 228 67 227T48 225Q33 225 23 230T13 253Q13 268 30 285T73 316T130 339T188 348Q242 348 270 323T298 250V109Q298 96 307 96Q312 96 315 98T324 104Q335 103 346 95T362 70ZM187 157Q154 153 134 140T114 102Q114 85 122 78T143 71Q158 71 169 83T187 107V157Z"  />
<glyph unicode="b" horiz-adv-x="383" d="M365 198Q365 145 348 107T301 43T227 6T131 -7Q108 -7 86 -5T41 0V418Q38 415 32 415Q22 415 11 424T-3 444Q19 476 46 500T115 525Q129 525 137 520T148 505T153 485T154 463V356Q154 338 154 325T150 294Q165 321 192 334T250 348Q281 348 303 335T339 300T359 251T365 198ZM241 180Q241 193 240 207T234 233T223 252T202 260Q180 260 169 248T154 223V68Q180 68 197 78T223 104T237 140T241 180Z"  />
<glyph unicode="c" horiz-adv-x="323" d="M324 303Q324 299 321 290T312 271T297 254T274 246Q268 246 256 247T234 253Q236 258 236 264T236 273Q229 275 224 275T212 275Q186 275 172 264T151 238T143 204T141 172Q141 158 143 143T151 114T167 92T193 83Q216 83 231 94T259 124Q277 124 297 115T322 84Q296 42 255 18T164 -7Q126 -7 99 7T53 44T27 96T18 158Q18 246 70 297T215 348Q271 348 297 338T324 303Z"  />
<glyph unicode="d" horiz-adv-x="387" d="M385 75Q364 41 334 17T266 -7Q245 -7 238 5T231 35V40Q231 42 231 45T232 51Q223 29 196 11T130 -7Q97 -7 75 6T39 41T21 89T15 142Q15 190 30 228T72 293T137 333T220 347H226V419L223 417Q219 415 218 415Q207 415 196 424T182 444Q204 477 231 501T301 526Q315 526 323 520T334 505T339 485T340 463V100Q344 104 349 104Q359 104 370 95T385 75ZM226 272Q200 272 183 262T157 236T143 200T139 160Q139 148 140 134T145 108T157 89T179 81Q199 81 210 93T226 118V272Z"  />
<glyph unicode="e" horiz-adv-x="355" d="M336 189Q336 169 330 158T308 146H141Q143 122 155 103T196 83Q216 83 231 94T260 124Q269 124 279 122T299 114T314 100T321 82Q295 40 254 17T164 -7Q126 -7 99 5T53 40T27 93T18 161Q18 201 31 235T67 295T124 334T200 348Q237 348 263 335T305 301T329 250T336 189ZM236 219Q236 227 235 236T229 254T217 267T196 272Q167 272 155 252T141 211H236V219Z"  />
<glyph unicode="f" horiz-adv-x="232" d="M296 490Q296 481 293 471T284 452T270 437T250 431Q240 431 228 432T205 438L206 461Q193 461 185 454T173 436T167 410T165 380V340H269Q273 330 273 322Q273 306 263 292T242 273Q231 271 213 270T186 269H165V100L168 102Q172 104 175 104Q185 104 198 95T211 75Q201 62 190 48T164 21T132 1T92 -7Q78 -7 70 -1T58 14T53 34T52 56V269H-19Q-23 279 -23 287Q-23 302 -13 316T8 336Q16 338 26 339T43 340H52V362Q52 442 99 483T234 525Q245 525 256 524T276 520T290 509T296 490Z"  />
<glyph unicode="g" horiz-adv-x="335" d="M362 322Q362 306 353 291T332 273Q324 271 319 271T303 269Q308 249 308 232Q308 174 266 142T156 110Q151 110 147 110T137 111Q124 107 120 103T116 90Q116 84 125 80T148 73T176 67T202 61Q223 56 244 50T283 33T311 3T322 -45Q322 -84 304 -110T256 -153T192 -177T124 -185Q103 -185 82 -180T43 -164T14 -137T3 -96Q3 -59 28 -34T84 4Q75 5 64 8T44 16T28 29T21 51Q21 65 28 76T47 96T70 111T93 122Q61 131 42 159T22 219Q22 252 35 276T69 316T119 340T177 348Q202 348 228 340H358Q362 330 362 322ZM209 -60Q209 -48 203 -40T188 -25T169 -16T150 -11Q131 -17 120 -25T103 -41T96 -58T94 -73Q94 -93 109 -104T146 -116Q169 -116 189 -103T209 -60ZM207 233Q207 254 197 269T168 284Q145 284 136 265T126 225Q126 204 136 189T164 174Q187 174 197 193T207 233Z"  />
<glyph unicode="h" horiz-adv-x="402" d="M400 75Q392 62 381 48T355 21T322 1T281 -7Q267 -7 259 -1T247 14T242 34T241 56V212Q241 227 237 239T212 252Q200 252 191 247T175 232T163 213T154 192V23Q139 8 118 1T76 -7Q67 -7 54 -5T41 6V419L38 417Q36 415 31 415Q22 415 9 424T-4 444Q4 456 15 470T40 497T73 517T115 525Q129 525 137 520T148 505T153 485T154 463V356Q154 337 152 317T148 272Q170 306 197 327T267 348Q296 348 313 340T340 317T352 282T355 237V100L358 102Q362 104 364 104Q374 104 387 95T400 75Z"  />
<glyph unicode="i" horiz-adv-x="209" d="M206 75Q199 66 189 52T164 25T131 3T92 -7Q77 -7 68 -2T55 13T49 33T47 56V241L44 239Q42 237 38 237Q28 237 15 246T2 266Q8 275 19 289T44 316T77 338T116 348Q131 348 140 343T153 328T159 308T161 285V100L164 102Q168 104 170 104Q180 104 193 95T206 75ZM167 455Q167 428 148 410T102 392Q76 392 58 410T40 455Q40 481 59 500T106 519Q132 519 149 500T167 455Z"  />
<glyph unicode="j" horiz-adv-x="207" d="M163 -22Q163 -101 116 -143T-19 -185Q-30 -185 -41 -184T-61 -180T-75 -169T-81 -149Q-81 -131 -70 -111T-35 -91Q-25 -91 -14 -92T9 -97V-121Q22 -121 30 -114T42 -95T48 -69T50 -40V240L46 238Q42 236 40 236Q30 236 17 245T4 265Q10 274 21 288T46 315T79 337T119 347Q134 347 142 342T155 327T161 307T163 284V-22ZM169 455Q169 428 150 410T104 392Q77 392 60 410T42 455Q42 481 61 500T108 519Q134 519 151 500T169 455Z"  />
<glyph unicode="k" horiz-adv-x="375" d="M154 22Q139 8 119 1T77 -7Q68 -7 58 -3T41 7V419L38 417Q36 415 31 415Q22 415 9 424T-4 444Q2 453 12 467T38 493T71 515T110 525Q139 525 146 506T154 463V22ZM380 316Q380 312 377 303T364 282Q347 259 331 239Q317 222 303 204T281 177L375 23Q369 18 358 13T335 3T310 -4T287 -7Q276 -7 266 -4T249 10L162 152Q187 183 208 214T246 268Q237 269 232 274T225 288T221 304T220 319Q234 324 250 329T283 339T314 345T337 348Q358 348 369 339T380 316Z"  />
<glyph unicode="l" horiz-adv-x="202" d="M200 75Q191 62 180 48T154 21T122 1T81 -7Q67 -7 59 -1T47 14T42 34T41 56V418Q38 415 32 415Q22 415 9 424T-4 444Q5 456 16 470T42 497T74 517T115 525Q129 525 137 520T148 505T153 485T154 463V100Q158 104 164 104Q174 104 187 95T200 75Z"  />
<glyph unicode="m" horiz-adv-x="609" d="M607 75Q598 62 587 48T561 21T528 1T488 -7Q474 -7 466 -2T455 12T450 32T449 56V220Q449 238 443 248T420 258Q410 258 401 252T385 236T372 217T362 199V23Q346 8 325 1T283 -7Q278 -7 266 -5T248 5V220Q248 238 243 248T220 258Q210 258 201 252T185 236T171 217T161 199V23Q146 8 125 1T83 -7Q78 -7 66 -5T48 5V241L45 239Q43 237 38 237Q29 237 17 245T3 266Q8 273 18 287T42 314T75 338T114 348Q128 348 136 343T149 328T155 308T156 287V275Q175 309 204 328T273 348Q310 348 332 331T355 273Q378 309 405 328T476 348Q505 348 522 340T548 317T559 282T562 237V100Q567 104 571 104Q582 104 594 95T607 75Z"  />
<glyph unicode="n" horiz-adv-x="410" d="M408 75Q401 66 390 52T365 25T332 3T293 -7Q278 -7 270 -2T257 13T251 33T249 56V220Q249 238 244 248T221 258Q210 258 201 252T185 236T172 217T162 199V23Q146 8 125 1T83 -7Q78 -7 66 -5T48 4V241L45 239Q43 237 38 237Q29 237 17 245T3 266Q8 273 18 287T42 314T75 338T114 348Q128 348 136 343T149 328T155 308T156 287V275Q176 310 206 329T275 348Q302 348 319 340T345 318T358 283T362 237V100L365 102Q369 104 372 104Q382 104 395 95T408 75Z"  />
<glyph unicode="o" horiz-adv-x="383" d="M365 186Q365 145 354 110T320 49T264 8T187 -7Q109 -7 64 33T18 156Q18 197 30 232T65 293T121 333T199 348Q274 348 319 306T365 186ZM241 172Q241 184 241 200T236 230T222 255T195 266Q178 266 168 257T151 233T143 203T141 174Q141 162 141 146T146 113T160 86T188 75Q205 75 215 85T231 110T239 141T241 172Z"  />
<glyph unicode="p" horiz-adv-x="390" d="M371 198Q371 150 356 112T314 48T250 7T167 -7Q164 -7 161 -6V-78Q166 -74 169 -74Q179 -74 191 -83T205 -103Q183 -136 155 -160T86 -185Q72 -185 64 -179T52 -164T48 -144T47 -122V240Q44 237 38 237Q28 237 17 246T3 266Q23 299 53 323T121 348Q141 348 148 336T156 306V300Q156 299 156 296T155 290Q164 312 191 330T257 348Q288 348 310 335T345 300T365 251T371 198ZM248 180Q248 193 247 207T241 233T229 252T208 260Q187 260 176 248T161 223V68Q187 68 204 78T230 104T244 140T248 180Z"  />
<glyph unicode="q" horiz-adv-x="381" d="M383 -103Q362 -136 333 -160T264 -185Q250 -185 243 -179T231 -164T227 -144T226 -122V-16Q226 3 226 16T230 46Q216 19 189 6T130 -7Q98 -7 77 6T41 41T21 89T15 142Q15 194 32 233T79 297T153 335T250 348Q273 348 294 346T339 340V-77Q341 -76 343 -75T348 -74Q358 -74 369 -83T383 -103ZM226 272Q200 272 183 262T157 236T143 200T139 160Q139 147 140 133T146 108T158 89T179 81Q200 81 211 93T226 118V272Z"  />
<glyph unicode="r" horiz-adv-x="292" d="M302 301Q302 269 287 250T236 230Q224 230 209 233V257Q194 255 180 242T161 212V24Q146 8 125 1T83 -7Q80 -7 75 -7T63 -5T53 0T48 7V240L45 238Q43 237 39 237Q29 237 16 245T3 266Q12 279 23 293T48 320T80 340T121 348Q134 348 141 344T151 333T155 318T156 301V294Q156 289 156 286T155 276Q169 307 193 327T257 348Q274 348 288 339T302 301Z"  />
<glyph unicode="s" horiz-adv-x="290" d="M282 306Q282 282 267 262T225 241Q209 241 194 250L197 276Q189 278 181 279T166 280Q155 280 144 274T133 253Q133 238 144 231T171 217T206 204T241 186T268 155T279 105Q279 74 264 53T226 18T174 -1T120 -7Q109 -7 91 -7T54 -2T23 10T10 35Q10 59 25 79T68 100Q85 100 99 92L96 65Q104 63 112 62T128 61Q139 61 149 68T159 89Q159 106 148 116T121 133T86 148T51 165T24 191T13 232Q13 269 29 291T70 326T126 343T187 348Q198 348 214 348T245 343T271 331T282 306Z"  />
<glyph unicode="t" horiz-adv-x="248" d="M271 58Q259 47 243 36T209 15T172 -1T136 -7Q107 -7 90 1T64 25T53 60T50 104V269H-20Q-24 279 -24 287Q-24 302 -15 316T6 336Q12 338 23 339T43 340H50V419Q65 434 86 442T128 450Q136 450 146 449T164 444V340H263Q266 332 266 322Q266 306 257 292T236 273Q228 271 223 271L207 269H164V128Q164 107 168 99T188 90Q208 90 228 104Q239 102 254 88T271 58Z"  />
<glyph unicode="u" horiz-adv-x="410" d="M407 75Q402 67 392 54T368 27T335 3T296 -7Q282 -7 274 -2T261 13T255 32T254 54V66Q234 31 204 12T135 -7Q108 -7 91 0T64 22T51 57T47 104V241L44 239Q42 237 38 237Q28 237 15 246T2 266Q8 275 19 289T44 316T77 338T116 348Q131 348 140 343T153 328T159 308T161 285V121Q161 102 166 93T189 83Q199 83 208 89T225 104T238 123T248 141V241L245 239Q243 237 239 237Q229 237 216 246T203 266Q209 275 220 289T245 316T278 338T317 348Q332 348 340 343T354 328T360 308T362 285V100L365 102Q369 104 371 104Q381 104 393 96T407 75Z"  />
<glyph unicode="v" horiz-adv-x="312" d="M333 323Q333 317 327 299T312 257T290 203T265 146T243 94T225 55L216 36Q211 31 202 24T181 9T155 -2T128 -7Q120 -7 106 -5T88 10L26 239L21 236Q15 232 13 232Q2 232 -8 236T-26 253Q-16 270 -6 287T17 317T45 339T81 348Q96 348 106 343T121 321L158 177Q162 163 165 148T170 124L172 115V116Q172 118 173 120L222 271Q210 271 205 281T198 301Q217 317 246 332T301 348Q312 348 322 342T333 323Z"  />
<glyph unicode="w" horiz-adv-x="503" d="M528 323Q528 319 515 287L436 86Q430 70 424 57T412 36Q403 24 380 9T326 -7Q319 -7 304 -5T288 4L266 88Q263 100 261 116T256 146L254 161Q253 158 253 154T251 145Q247 129 242 111T236 89L232 79Q228 65 222 54T212 36Q203 24 182 9T129 -7Q122 -7 107 -5T90 4L27 239Q25 237 22 235T15 232Q4 232 -6 236T-24 253Q-15 270 -5 287T17 317T47 339T87 348Q94 348 105 345T120 330L159 177Q163 162 167 141T174 105Q176 111 178 119T185 137Q194 166 203 193T217 241Q215 239 210 238T202 236Q177 236 163 259Q172 275 182 291T206 320T236 340T276 348Q279 348 285 347T298 344T309 339T315 331L355 177Q357 169 359 161T363 141L369 106Q371 120 376 141T387 176L392 189Q396 203 401 219T412 251L419 270H415Q412 270 409 274T403 283T398 293T396 301Q417 318 442 333T498 348Q509 348 518 342T528 323Z"  />
<glyph unicode="x" horiz-adv-x="321" d="M332 324Q332 314 319 298L226 182L277 92Q279 96 284 99T293 102Q304 102 313 97T331 81Q323 66 313 51T290 23T263 2T230 -7Q219 -7 208 -4T190 12L146 94Q141 103 139 110T135 120Q134 119 130 111T120 95L116 88L88 53Q89 53 91 53T96 54Q102 54 106 46T110 26V20Q110 17 109 15Q100 11 86 7T57 0T28 -5T4 -7Q-6 -7 -15 -1T-24 17Q-24 20 -21 28T-9 46L90 169L45 248Q43 245 38 242T29 238Q19 238 9 243T-9 260Q-1 275 9 290T32 318T59 339T92 348Q103 348 114 345T132 329L170 256Q174 247 176 239T180 228Q181 233 184 237Q187 244 194 253Q200 262 205 269Q210 275 213 280T219 287H212Q204 287 201 297T198 315V325Q207 329 221 333T250 340T279 346T303 348Q313 348 322 342T332 324Z"  />
<glyph unicode="y" horiz-adv-x="312" d="M333 323Q333 317 327 299T312 257T290 203T265 146T243 94T225 55Q197 -11 176 -51T128 -121T66 -168T-18 -185Q-45 -185 -64 -180T-84 -149Q-84 -131 -73 -111T-38 -91Q-29 -91 -17 -92T7 -97L6 -121L11 -122Q28 -122 42 -108T68 -74T88 -33T100 0Q96 2 93 3T88 10L26 239L21 236Q15 232 13 232Q2 232 -8 236T-26 253Q-16 270 -6 287T17 317T45 339T81 348Q96 348 106 343T121 321L158 177Q160 168 162 157T167 137T172 113Q175 127 178 136T184 156T190 176L222 270Q216 270 209 275T198 301Q217 317 246 332T301 348Q312 348 322 342T333 323Z"  />
<glyph unicode="z" horiz-adv-x="269" d="M278 55Q278 38 267 24T243 4Q236 3 226 2T204 1T182 0T163 0H17Q6 5 -1 23T-9 58Q-9 58 -4 65T9 84T28 110T49 140Q74 175 106 220Q110 226 117 234T131 250T143 264T150 271Q149 271 144 271T131 270T115 270T100 269H1Q-1 273 -1 277T-2 285Q-2 302 9 316T33 336Q47 338 67 339T105 340H249Q261 334 268 319T275 282L266 270Q258 258 245 240T217 201T189 163T168 132L159 121Q154 114 147 105T134 89T122 76T115 70H119Q127 71 140 71T168 72H275Q278 63 278 55Z"  />
<glyph unicode="{" horiz-adv-x="247" d="M189 -100Q163 -100 140 -94T100 -73T73 -38T63 13V114Q63 130 61 143T52 165T30 180T-9 185H-17V245H-9Q15 245 29 250T51 264T61 286T63 315V418Q63 447 73 468T100 504T140 525T189 532H244V477H205Q176 477 163 462T150 422V315Q150 280 135 257T93 223Q76 215 59 214Q68 213 76 212T93 206Q119 196 134 173T150 115V8Q150 -15 163 -30T205 -46H244V-100H189H189Z"  />
<glyph unicode="|" horiz-adv-x="320" d="M116 512H204V-128H116V512Z"  />
<glyph unicode="}" horiz-adv-x="248" d="M257 186Q233 186 219 181T197 167T187 145T184 116V13Q184 -16 174 -37T147 -73T108 -93T59 -100H3V-46H43Q72 -46 84 -30T97 9V116Q97 151 112 174T154 208Q172 215 189 216Q172 217 154 224Q128 234 113 257T97 316V423Q97 446 85 461T43 477H3V532H59Q85 532 107 525T147 504T174 469T184 418V317Q184 301 186 288T196 266T218 251T257 246H265V186H257H257Z"  />
<glyph unicode="~" horiz-adv-x="397" d="M385 241Q384 211 376 184T354 136T318 103T269 91Q232 91 212 104T178 133T153 162T123 175Q109 175 100 167T85 147T78 121T74 93L13 98Q14 128 22 155T45 203T80 236T128 248Q166 248 187 235T222 206T247 177T276 164Q290 164 299 172T314 192T321 219T325 247L385 241H385Z"  />
<glyph unicode="&#xA0;" horiz-adv-x="198" />
<glyph unicode="&#xA1;" horiz-adv-x="239" d="M209 -61Q197 -75 184 -88T156 -113T124 -131T86 -138Q65 -138 57 -128T49 -98V85Q49 111 55 130T63 147Q64 148 70 153T86 163T106 172T130 176Q139 176 146 175T161 167V-35Q160 -35 165 -33T169 -30Q181 -34 194 -40T209 -61ZM178 281Q178 253 158 233T109 213Q81 213 63 232T45 281Q45 310 65 329T113 348Q141 348 159 329T178 281Z"  />
<glyph unicode="&#xA2;" horiz-adv-x="397" d="M366 303Q366 299 363 290T354 271T339 254T316 246Q310 246 298 247T276 253Q278 258 278 264T278 273L253 276L218 83Q266 83 294 124Q312 124 331 115T356 84Q331 42 290 20T202 -7L190 -70Q187 -70 185 -70T180 -71Q176 -71 169 -70T158 -67L169 -6Q137 -2 112 13T70 50T45 100T36 158Q36 201 50 236T89 297T152 335T234 349L244 406Q248 407 250 407T254 408Q258 408 265 407T276 404L266 348Q275 347 283 347T299 345Q330 341 348 332T366 303ZM221 274Q201 270 189 259T171 233T162 204T160 177V172Q161 153 167 132T187 96L221 274Z"  />
<glyph unicode="&#xA3;" horiz-adv-x="397" d="M399 442Q399 432 397 421T389 400T376 384T356 378H347Q339 378 330 378T314 380V384Q314 389 314 394T315 405V410Q313 411 309 411H305Q276 411 266 387T252 329L246 279H358V273Q359 269 359 262Q359 242 349 228T321 209Q313 207 293 206T257 205H237L236 187Q233 164 229 147T217 117T197 94T163 77H168Q180 77 201 78T242 79H362Q362 75 363 71T364 61Q364 41 354 26T326 6L317 4Q311 4 303 3T287 2T273 1T266 0H14Q12 10 12 17Q12 37 22 52T50 72Q81 77 96 105T118 189L120 205H37L36 211V223Q36 243 46 256T74 275Q82 277 92 278T119 279H129L135 327Q144 398 186 438T320 479Q353 479 376 471T399 442Z"  />
<glyph unicode="&#xA4;" horiz-adv-x="397" d="M225 104Q186 82 141 82Q89 82 52 102L6 56L-47 103L-1 149Q-26 186 -26 241Q-26 265 -19 287T2 328L-39 369L22 419L61 380Q79 389 99 394T141 400Q165 400 187 396T228 380L270 422L325 376L282 333Q307 294 307 241Q307 218 300 197T282 159L329 111L268 61L225 104ZM230 242Q230 261 223 277T204 306T176 326T140 334Q121 334 105 327T76 307T57 278T50 242Q50 223 57 206T76 176T104 156T140 148Q159 148 175 155T204 176T223 206T230 242Z"  />
<glyph unicode="&#xA5;" horiz-adv-x="397" d="M378 188Q378 168 368 154T340 134Q332 132 313 132T276 131H257V79Q266 79 273 71T283 57Q262 25 240 9T186 -7Q158 -7 152 8T145 58V131H18L17 137V148Q17 168 27 182T55 201Q63 203 82 204T119 205H145V240H18L17 246V257Q17 277 27 291T55 310Q63 312 76 312T106 314L78 366Q75 364 69 363T59 362Q46 362 36 373T21 401Q31 415 43 429T68 454T94 472T122 479Q147 479 158 458L209 357Q214 347 218 332T223 314Q223 315 224 320T228 331T233 345T238 357L266 410L263 409H259Q246 409 242 424T238 450Q263 463 291 471T343 479Q357 479 366 469T376 447Q376 444 374 436T367 419L300 314H377L378 307V296Q378 276 368 262T340 243Q332 241 313 241T276 240H257V205H377L378 198V188H378Z"  />
<glyph unicode="&#xA6;" horiz-adv-x="320" d="M116 112H204V-48H116V112ZM116 432H204V272H116V432Z"  />
<glyph unicode="&#xA7;" horiz-adv-x="397" d="M375 227Q375 202 365 184T339 153T302 132T262 117Q296 103 319 82T342 23Q342 -13 324 -36T277 -71T213 -88T143 -93Q107 -93 78 -83T49 -52Q49 -42 53 -31T65 -11T82 4T103 10Q109 10 122 9T142 3L137 -21Q146 -25 156 -25T176 -26Q202 -26 215 -16T228 12Q228 27 213 38T175 58T125 78T76 101T38 132T22 175Q22 199 33 216T60 247T97 269T136 284Q119 291 105 298T81 316T66 339T60 371Q60 410 81 431T132 463T193 476T246 479Q264 479 283 477T318 471T344 458T354 437Q354 427 350 417T339 397T321 382T300 376Q294 376 280 377T260 383L266 406Q255 410 247 411T228 413Q210 413 192 406T174 377Q174 362 189 353T226 336T274 320T323 300T360 271T375 227ZM271 209Q271 219 263 227T243 242T220 252T202 260Q167 249 147 236T126 193Q126 182 134 174T155 159T178 148T196 141Q231 152 251 166T271 209Z"  />
<glyph unicode="&#xA8;" horiz-adv-x="209" d="M233 444Q233 421 219 406T181 390Q156 390 143 405T129 444Q129 467 143 481T181 496Q204 496 218 482T233 444ZM88 444Q88 421 74 406T36 390Q12 390 -2 405T-16 444Q-16 467 -2 481T36 496Q60 496 74 482T88 444Z"  />
<glyph unicode="&#xA9;" horiz-adv-x="524" d="M500 237Q500 186 482 142T431 64T355 12T262 -7Q212 -7 169 12T93 64T43 141T24 237Q24 288 42 332T93 408T168 460T262 479Q311 479 354 460T429 407T481 330T500 237ZM457 236Q457 279 443 316T402 382T340 426T262 442Q220 442 184 426T122 382T81 317T66 236Q66 193 80 156T121 90T184 46T262 30Q304 30 339 46T401 90T442 155T457 236ZM391 368Q391 362 388 353T380 336T368 323T355 317Q344 317 335 319T321 325L326 340Q321 342 311 343T287 345Q264 345 248 334T221 305T206 267T201 227Q201 208 204 189T215 155T239 131T278 122Q295 122 313 128T342 143Q365 130 365 107Q365 105 365 102T364 95Q336 81 310 73T259 65Q224 65 197 77T151 111T122 161T112 223Q112 267 127 300T169 355T229 388T301 399Q310 399 325 398T354 394T380 384T391 368Z"  />
<glyph unicode="&#xAA;" horiz-adv-x="220" d="M233 310Q226 302 216 295T193 280T169 269T145 265Q127 265 123 275T119 293Q119 295 119 297T120 301Q109 284 93 275T51 265Q28 265 13 281T-3 318Q-3 340 9 354T39 379T77 394T115 402V412Q115 431 93 431Q85 431 76 429T59 419Q52 412 51 408Q46 406 38 405T26 404Q4 404 4 421Q4 431 15 441T45 459T83 472T122 477Q186 477 186 419V331Q186 325 192 325Q196 325 201 328T209 333Q219 330 226 324T233 310ZM115 364Q93 361 81 353T68 330Q68 312 87 312Q98 312 105 320T115 333V364Z"  />
<glyph unicode="&#xAB;" horiz-adv-x="552" d="M274 63Q268 45 260 32T236 6L77 138Q73 146 72 154T71 170Q71 187 77 204L237 342Q254 332 262 317T274 287L161 175L274 63ZM467 63Q461 45 453 32T429 6L269 138Q266 146 265 154T264 170Q264 187 270 204L430 342Q446 332 454 317T467 287L353 175L467 63Z"  />
<glyph unicode="&#xAC;" horiz-adv-x="397" d="M261 206H28V283H353V74H261V206Z"  />
<glyph unicode="&#xAD;" horiz-adv-x="289" d="M274 206Q274 187 264 172T239 152Q232 150 216 149T181 147H17Q17 151 16 155T15 164Q15 183 25 198T50 220Q58 221 74 222T108 224H273Q273 220 273 216T274 206Z"  />
<glyph unicode="&#xAE;" horiz-adv-x="524" d="M500 236Q500 185 481 141T430 64T354 12T260 -7Q209 -7 166 11T91 62T42 139T24 236Q24 286 43 330T94 408T170 460T264 479Q315 479 358 461T432 410T482 333T500 236ZM457 235Q457 278 443 315T402 381T340 425T262 442Q220 442 184 426T122 381T81 316T66 235Q66 192 80 155T121 90T184 46T262 30Q304 30 339 46T401 89T442 154T457 235ZM401 92Q389 84 370 77T339 69Q326 69 321 74L227 216L244 246Q265 246 284 261T304 300Q304 325 290 335T253 345H225V137Q235 137 242 132T252 121Q236 101 216 85T171 68Q156 68 151 75T145 97V341L118 339Q115 348 115 355Q115 364 119 373T134 387Q165 391 198 393T264 396Q287 396 309 393T348 379T376 351T387 305Q387 273 368 252T321 222L401 92Z"  />
<glyph unicode="&#xAF;" horiz-adv-x="209" d="M241 442Q241 430 232 416T213 396Q202 394 188 393T154 392H-11Q-13 397 -13 401T-13 410Q-13 422 -4 436T15 456Q26 458 40 459T73 460H239Q240 455 240 451T241 442Z"  />
<glyph unicode="&#xB0;" horiz-adv-x="324" d="M325 357Q325 331 317 308T291 266T247 238T183 227Q148 227 124 236T85 262T63 301T56 349Q56 375 64 398T90 440T134 468T198 479Q232 479 256 470T296 444T318 405T325 357ZM257 359Q257 370 254 382T243 405T223 421T193 428Q171 428 158 420T137 399T127 372T124 347Q124 336 127 324T137 301T157 285T188 278Q210 278 223 286T244 307T254 334T257 359Z"  />
<glyph unicode="&#xB1;" horiz-adv-x="397" d="M245 108H153V222H26V298H153V416H245V298H371V222H245V108ZM26 76H371V0H26V76Z"  />
<glyph unicode="&#xB2;" horiz-adv-x="228" d="M215 232Q215 221 208 209T192 192Q186 191 167 190T133 189H11Q3 196 0 206T-4 228Q-4 237 -1 248Q16 259 42 276T91 317Q106 332 116 347T126 380Q126 405 109 412T70 420Q56 420 41 417T14 410Q8 420 8 433Q8 454 22 465Q45 471 66 473T111 476Q154 476 180 458T207 402Q207 369 193 347T157 303Q137 283 120 270T82 245L93 246Q99 248 105 248T118 248H212Q213 246 214 241T215 232Z"  />
<glyph unicode="&#xB3;" horiz-adv-x="199" d="M177 275Q177 247 163 230T125 202T75 188T21 184H13Q10 189 9 194T8 205Q8 213 12 222T21 237H33Q58 237 77 245T97 276Q97 296 81 302T42 308H31Q24 308 21 307Q18 311 18 315T17 324V328Q17 345 29 360H35Q45 360 56 361T76 367T92 378T98 399Q98 408 94 413T84 420T72 423T63 424Q49 424 37 422T16 417Q10 424 10 436Q10 443 13 453T21 469Q45 477 88 477Q104 477 120 475T148 465T169 447T177 417Q177 398 171 385T154 362T130 346T101 337Q177 337 177 275Z"  />
<glyph unicode="&#xB4;" horiz-adv-x="209" d="M106 397Q102 390 87 390Q82 390 76 392T64 396Q57 399 49 402L102 527Q113 531 129 531Q141 531 160 524T187 504L106 397H106Z"  />
<glyph unicode="&#xB5;" horiz-adv-x="410" d="M257 66Q238 34 213 16T154 -6Q154 -7 154 -32T152 -87T151 -141T150 -166H48V340H161V121Q161 102 167 93T190 83Q200 83 209 89T226 104T239 123T249 141V340H362V0H257V66Z"  />
<glyph unicode="&#xB6;" horiz-adv-x="397" d="M193 -80Q166 -92 138 -92Q123 -92 111 -86V206Q109 205 104 205H96Q75 205 55 212T17 232T-10 266T-21 311Q-21 341 -11 362T16 398T54 419T99 426Q102 426 104 426T110 425V465Q123 470 137 473T165 477Q182 477 193 472V-80ZM330 -80Q304 -92 276 -92Q261 -92 248 -86V466Q262 472 275 474T303 477Q320 477 330 472V-80Z"  />
<glyph unicode="&#xB7;" horiz-adv-x="198" d="M166 177Q166 148 146 129T98 110Q69 110 51 129T33 177Q33 205 52 224T101 244Q130 244 148 225T166 177Z"  />
<glyph unicode="&#xB8;" horiz-adv-x="209" d="M175 -96Q175 -120 162 -136T130 -164T88 -180T48 -185Q44 -178 44 -172Q44 -156 56 -146Q71 -146 88 -138T105 -109Q105 -89 89 -83T55 -77H47Q44 -73 44 -61Q44 -45 57 -29Q58 -29 62 -29T71 -29T82 -28T90 -28Q107 -28 122 -31T149 -41T168 -62T175 -96Z"  />
<glyph unicode="&#xB9;" horiz-adv-x="168" d="M131 209Q123 198 109 191T74 184Q64 184 59 189V375Q59 384 59 393T60 412Q58 409 53 405T43 397L12 381Q-2 381 -10 393T-23 412L52 460Q65 468 76 472T108 477Q122 477 126 470T131 451V209H131Z"  />
<glyph unicode="&#xBA;" horiz-adv-x="260" d="M241 381Q241 333 213 300T127 266Q77 266 48 290T19 364Q19 414 49 446T135 479Q183 479 212 454T241 381ZM162 372Q162 379 162 389T158 408T149 423T132 430Q121 430 115 425T105 410T100 391T99 372Q99 365 99 356T103 337T111 322T128 316Q140 316 146 322T156 336T161 354T162 372Z"  />
<glyph unicode="&#xBB;" horiz-adv-x="552" d="M288 177Q288 160 282 144L121 5Q105 16 97 31T85 60L198 172L85 285Q91 302 99 315T123 342L282 209Q286 201 287 193T288 177ZM481 177Q481 159 474 144L314 5Q297 16 289 31T278 60L391 172L278 285Q283 302 291 315T316 342L475 209Q481 192 481 177Z"  />
<glyph unicode="&#xBC;" horiz-adv-x="621" d="M586 122Q586 110 577 97T559 79Q555 79 552 79T545 78H532V17Q521 5 511 0T481 -5Q468 -5 460 -3V77H362Q352 85 346 99T339 126L442 270Q455 279 476 283T511 287Q519 287 523 286T532 283V137H584Q584 138 585 134T586 122ZM124 -44Q124 -44 120 -42T110 -37T97 -31T85 -26Q81 -24 78 -24L464 515Q464 515 468 513T479 508T493 502T506 496Q512 493 513 493L124 -44ZM451 200L424 155Q422 151 420 148T414 141L409 136H417Q422 137 426 137T433 137H462L464 189Q464 193 464 207T467 234L451 200ZM185 209Q177 198 163 191T128 184Q118 184 113 189V375Q113 384 113 393T114 412Q112 409 107 405T97 397L66 381Q52 381 44 393T31 412L106 460Q119 468 130 472T162 477Q176 477 180 470T185 451V209Z"  />
<glyph unicode="&#xBD;" horiz-adv-x="621" d="M574 43Q574 32 567 20T551 3Q545 2 526 1T492 0H370Q355 15 355 39Q355 48 358 59Q375 70 401 88T450 128Q465 143 475 159T485 191Q485 217 468 224T429 231Q415 231 400 228T373 221Q367 231 367 244Q367 265 381 276Q404 282 425 284T470 287Q513 287 539 269T566 213Q566 180 552 158T516 114Q496 94 479 81T441 56L452 58Q458 59 464 59T477 60H572Q572 57 573 52T574 43ZM124 -44Q124 -44 120 -42T110 -37T97 -31T85 -26Q81 -24 78 -24L464 515Q464 515 468 513T479 508T493 502T506 496Q512 493 513 493L124 -44ZM184 209Q176 198 162 191T127 184Q117 184 112 189V375Q112 384 112 393T113 412Q111 409 106 405T96 397L65 381Q51 381 43 393T30 412L105 460Q118 468 129 472T161 477Q175 477 179 470T184 451V209Z"  />
<glyph unicode="&#xBE;" horiz-adv-x="621" d="M586 122Q586 110 577 97T559 79Q555 79 552 79T545 78H532V17Q521 5 511 0T481 -5Q468 -5 460 -3V77H362Q352 85 346 99T339 126L442 270Q455 279 476 283T511 287Q519 287 523 286T532 283V137H584Q584 138 585 134T586 122ZM124 -44Q124 -44 120 -42T110 -37T97 -31T85 -26Q81 -24 78 -24L464 515Q464 515 468 513T479 508T493 502T506 496Q512 493 513 493L124 -44ZM451 200L424 155Q422 151 420 148T414 141L409 136H417Q422 137 426 137T433 137H462L464 189Q464 193 464 207T467 234L451 200ZM216 275Q216 247 202 230T164 202T114 188T60 184H52Q49 189 48 194T47 205Q47 213 51 222T60 237H72Q97 237 116 245T136 276Q136 296 120 302T81 308H70Q63 308 60 307Q57 311 57 315T56 324V328Q56 345 68 360H74Q84 360 95 361T115 367T131 378T137 399Q137 408 133 413T123 420T111 423T102 424Q88 424 76 422T55 417Q49 424 49 436Q49 443 52 453T60 469Q84 477 127 477Q143 477 159 475T187 465T208 447T216 417Q216 398 210 385T193 362T169 346T140 337Q216 337 216 275Z"  />
<glyph unicode="&#xBF;" horiz-adv-x="271" d="M241 -81Q241 -106 224 -126Q201 -133 168 -135T108 -138Q90 -138 70 -134T31 -119T2 -93T-10 -52Q-10 -20 6 4T42 49Q56 63 64 78T76 109T82 139T85 164Q90 167 100 171T123 178T146 183T165 185Q171 185 182 184T197 182Q197 175 198 169Q198 164 198 158T199 147Q199 109 181 82T143 33Q116 6 116 -22Q116 -45 128 -54T161 -64Q178 -64 194 -62T229 -56Q241 -67 241 -81ZM211 281Q211 253 191 233T142 213Q113 213 95 232T77 281Q77 310 97 329T145 348Q174 348 192 329T211 281Z"  />
<glyph unicode="&#xC0;" horiz-adv-x="407" d="M428 56Q426 53 417 43T393 21T362 2T330 -7Q306 -7 298 7T281 50L251 147H129L102 65Q108 63 113 55T121 37Q98 17 74 5T18 -7Q7 -7 -1 -1T-10 16Q-10 18 -9 24T-6 32Q26 114 54 186Q66 217 78 248T102 309T122 362T138 401L147 423L141 440Q158 452 182 465T229 479Q245 479 255 474T271 453L392 85Q393 85 393 85T395 86H396Q405 86 414 75T428 56ZM204 298Q200 309 198 324T193 349Q191 357 191 356Q191 353 190 350Q188 341 185 326T177 296L151 216H230L204 298ZM262 510Q262 510 258 508T247 504T234 500T223 498Q208 498 204 505L124 612Q132 624 150 631T182 639Q197 639 209 635L262 510H262Z"  />
<glyph unicode="&#xC1;" horiz-adv-x="407" d="M428 56Q426 53 417 43T393 21T362 2T330 -7Q306 -7 298 7T281 50L251 147H129L102 65Q108 63 113 55T121 37Q98 17 74 5T18 -7Q7 -7 -1 -1T-10 16Q-10 18 -9 24T-6 32Q26 114 54 186Q66 217 78 248T102 309T122 362T138 401L147 423L141 440Q158 452 182 465T229 479Q245 479 255 474T271 453L392 85Q393 85 393 85T395 86H396Q405 86 414 75T428 56ZM204 298Q200 309 198 324T193 349Q191 357 191 356Q191 353 190 350Q188 341 185 326T177 296L151 216H230L204 298ZM212 504Q208 497 193 497Q188 497 182 499T170 503Q163 506 155 509L208 634Q219 638 235 638Q247 638 266 631T293 611L212 504H212Z"  />
<glyph unicode="&#xC2;" horiz-adv-x="407" d="M428 56Q426 53 417 43T393 21T362 2T330 -7Q306 -7 298 7T281 50L251 147H129L102 65Q108 63 113 55T121 37Q98 17 74 5T18 -7Q7 -7 -1 -1T-10 16Q-10 18 -9 24T-6 32Q26 114 54 186Q66 217 78 248T102 309T122 362T138 401L147 423L141 440Q158 452 182 465T229 479Q245 479 255 474T271 453L392 85Q393 85 393 85T395 86H396Q405 86 414 75T428 56ZM204 298Q200 309 198 324T193 349Q191 357 191 356Q191 353 190 350Q188 341 185 326T177 296L151 216H230L204 298ZM329 510Q327 507 322 505T309 501T296 498T285 497Q278 497 270 501L210 586Q210 586 204 577T189 556T171 531T156 510L151 501Q143 498 136 498Q127 498 113 503T97 513L171 637Q181 645 195 649T222 653Q230 653 240 652T257 647L329 510H329Z"  />
<glyph unicode="&#xC3;" horiz-adv-x="407" d="M428 56Q426 53 417 43T393 21T362 2T330 -7Q306 -7 298 7T281 50L251 147H129L102 65Q108 63 113 55T121 37Q98 17 74 5T18 -7Q7 -7 -1 -1T-10 16Q-10 18 -9 24T-6 32Q26 114 54 186Q66 217 78 248T102 309T122 362T138 401L147 423L141 440Q158 452 182 465T229 479Q245 479 255 474T271 453L392 85Q393 85 393 85T395 86H396Q405 86 414 75T428 56ZM204 298Q200 309 198 324T193 349Q191 357 191 356Q191 353 190 350Q188 341 185 326T177 296L151 216H230L204 298ZM352 607Q352 562 329 531T257 499Q232 499 218 510T192 535Q184 543 178 549T164 556Q143 556 135 542T125 507Q118 502 111 501T97 499Q92 499 86 500T77 506Q77 528 82 547T100 582T130 605T172 614Q197 614 211 603T237 578Q244 570 250 564T265 557Q285 557 293 571T304 606Q310 611 317 612T332 614Q337 614 342 613T352 607Z"  />
<glyph unicode="&#xC4;" horiz-adv-x="407" d="M428 56Q426 53 417 43T393 21T362 2T330 -7Q306 -7 298 7T281 50L251 147H129L102 65Q108 63 113 55T121 37Q98 17 74 5T18 -7Q7 -7 -1 -1T-10 16Q-10 18 -9 24T-6 32Q26 114 54 186Q66 217 78 248T102 309T122 362T138 401L147 423L141 440Q158 452 182 465T229 479Q245 479 255 474T271 453L392 85Q393 85 393 85T395 86H396Q405 86 414 75T428 56ZM204 298Q200 309 198 324T193 349Q191 357 191 356Q191 353 190 350Q188 341 185 326T177 296L151 216H230L204 298ZM333 558Q333 535 319 520T281 504Q256 504 243 519T229 558Q229 581 243 595T281 610Q304 610 318 596T333 558ZM188 558Q188 535 174 520T136 504Q112 504 98 519T84 558Q84 581 98 595T136 610Q160 610 174 596T188 558Z"  />
<glyph unicode="&#xC5;" horiz-adv-x="407" d="M428 56Q426 53 417 43T393 21T362 2T330 -7Q306 -7 298 7T281 50L251 147H129L102 65Q108 63 113 55T121 37Q98 17 74 5T18 -7Q7 -7 -1 -1T-10 16Q-10 18 -9 24T-6 32Q26 114 54 186Q66 217 78 248T102 309T122 362T138 401L147 423L141 440Q158 452 182 465T229 479Q245 479 255 474T271 453L392 85Q393 85 393 85T395 86H396Q405 86 414 75T428 56ZM204 298Q200 309 198 324T193 349Q191 357 191 356Q191 353 190 350Q188 341 185 326T177 296L151 216H230L204 298ZM299 576Q299 530 271 511T199 491Q183 491 168 495T141 508T122 530T114 562Q114 610 144 629T217 648Q250 648 274 630T299 576ZM238 569Q238 583 233 594T209 606Q192 606 183 596T174 570Q174 555 180 543T206 531Q223 531 230 543T238 569Z"  />
<glyph unicode="&#xC6;" horiz-adv-x="539" d="M528 61Q528 40 517 24T489 3Q479 1 462 1L445 0H235V147H131L83 62H88Q92 62 98 55T105 36Q90 26 73 18T41 5T13 -4T-6 -7Q-23 -7 -30 3T-37 27Q-37 33 -26 50L236 447V458Q243 461 255 464T280 471T307 477T330 479Q350 479 350 472H518Q518 468 518 464T519 454Q519 434 509 419T481 398Q473 396 457 395T421 394H352V278H520Q520 274 520 270T521 261Q521 241 511 225T483 204Q477 203 458 202T422 201H352V78H527Q527 74 527 70T528 61ZM235 278Q235 287 236 298T237 320T239 338T240 348Q238 346 231 325T211 284L205 273Q194 253 188 242T178 225Q174 218 173 216H235V278Z"  />
<glyph unicode="&#xC7;" horiz-adv-x="392" d="M405 435Q405 423 400 410T387 385T368 366T348 358Q331 358 315 361T293 371L301 394Q293 396 286 396T272 396Q234 396 211 377T175 331T158 274T153 222Q153 195 159 169T178 122T211 89T259 76Q279 76 302 82T342 97Q362 86 370 70T378 38V29Q340 12 307 3T228 -7Q183 -7 146 9T81 56T39 127T24 218Q24 281 46 329T108 411T199 462T310 479Q322 479 338 478T370 473T395 460T405 435ZM279 -98Q279 -122 266 -138T234 -166T192 -182T152 -187Q148 -180 148 -174Q148 -158 160 -148Q175 -148 192 -140T209 -111Q209 -91 193 -85T159 -79H151Q148 -75 148 -63Q148 -47 161 -31Q162 -31 166 -31T175 -31T186 -30T194 -30Q211 -30 226 -33T253 -43T272 -64T279 -98Z"  />
<glyph unicode="&#xC8;" horiz-adv-x="361" d="M350 60Q350 40 340 24T312 3Q306 3 287 2T253 0H58V394H20Q19 396 19 398T19 403V412Q19 431 29 446T56 467Q62 469 79 470T113 472H340Q341 467 341 463T342 454Q342 434 332 419T305 399Q298 397 281 396T245 394H175V277H341Q342 272 342 269T342 260Q342 240 332 224T305 203Q300 202 280 201T243 199H175V78H349Q349 73 349 69T350 60ZM249 508Q249 508 245 506T234 502T221 498T210 496Q195 496 191 503L111 610Q119 622 137 629T169 637Q184 637 196 633L249 508H249Z"  />
<glyph unicode="&#xC9;" horiz-adv-x="361" d="M350 60Q350 40 340 24T312 3Q306 3 287 2T253 0H58V394H20Q19 396 19 398T19 403V412Q19 431 29 446T56 467Q62 469 79 470T113 472H340Q341 467 341 463T342 454Q342 434 332 419T305 399Q298 397 281 396T245 394H175V277H341Q342 272 342 269T342 260Q342 240 332 224T305 203Q300 202 280 201T243 199H175V78H349Q349 73 349 69T350 60ZM204 503Q200 496 185 496Q180 496 174 498T162 502Q155 505 147 508L200 633Q211 637 227 637Q239 637 258 630T285 610L204 503H204Z"  />
<glyph unicode="&#xCA;" horiz-adv-x="361" d="M350 60Q350 40 340 24T312 3Q306 3 287 2T253 0H58V394H20Q19 396 19 398T19 403V412Q19 431 29 446T56 467Q62 469 79 470T113 472H340Q341 467 341 463T342 454Q342 434 332 419T305 399Q298 397 281 396T245 394H175V277H341Q342 272 342 269T342 260Q342 240 332 224T305 203Q300 202 280 201T243 199H175V78H349Q349 73 349 69T350 60ZM309 508Q307 505 302 503T289 499T276 496T265 495Q258 495 250 499L190 584Q190 584 184 575T169 554T151 529T136 508L131 499Q123 496 116 496Q107 496 93 501T77 511L151 635Q161 643 175 647T202 651Q210 651 220 650T237 645L309 508H309Z"  />
<glyph unicode="&#xCB;" horiz-adv-x="361" d="M350 60Q350 40 340 24T312 3Q306 3 287 2T253 0H58V394H20Q19 396 19 398T19 403V412Q19 431 29 446T56 467Q62 469 79 470T113 472H340Q341 467 341 463T342 454Q342 434 332 419T305 399Q298 397 281 396T245 394H175V277H341Q342 272 342 269T342 260Q342 240 332 224T305 203Q300 202 280 201T243 199H175V78H349Q349 73 349 69T350 60ZM314 550Q314 527 300 512T262 496Q237 496 224 511T210 550Q210 573 224 587T262 602Q285 602 299 588T314 550ZM169 550Q169 527 155 512T117 496Q93 496 79 511T65 550Q65 573 79 587T117 602Q141 602 155 588T169 550Z"  />
<glyph unicode="&#xCC;" horiz-adv-x="232" d="M201 58Q180 26 156 10T100 -6Q73 -6 66 9T58 58V354Q42 354 32 361T13 382Q22 399 34 416T62 448T94 470T130 479Q146 479 155 473T168 458T174 438T175 417V80Q186 80 191 73T201 58ZM175 509Q175 509 171 507T160 503T147 499T136 497Q121 497 117 504L37 611Q45 623 63 630T95 638Q110 638 122 634L175 509H175Z"  />
<glyph unicode="&#xCD;" horiz-adv-x="232" d="M201 58Q180 26 156 10T100 -6Q73 -6 66 9T58 58V354Q42 354 32 361T13 382Q22 399 34 416T62 448T94 470T130 479Q146 479 155 473T168 458T174 438T175 417V80Q186 80 191 73T201 58ZM119 505Q115 498 100 498Q95 498 89 500T77 504Q70 507 62 510L115 635Q126 639 142 639Q154 639 173 632T200 612L119 505H119Z"  />
<glyph unicode="&#xCE;" horiz-adv-x="232" d="M201 58Q180 26 156 10T100 -6Q73 -6 66 9T58 58V354Q42 354 32 361T13 382Q22 399 34 416T62 448T94 470T130 479Q146 479 155 473T168 458T174 438T175 417V80Q186 80 191 73T201 58ZM234 510Q232 507 227 505T214 501T201 498T190 497Q183 497 175 501L115 586Q115 586 109 577T94 556T76 531T61 510L56 501Q48 498 41 498Q32 498 18 503T2 513L76 637Q86 645 100 649T127 653Q135 653 145 652T162 647L234 510H234Z"  />
<glyph unicode="&#xCF;" horiz-adv-x="232" d="M201 58Q180 26 156 10T100 -6Q73 -6 66 9T58 58V354Q42 354 32 361T13 382Q22 399 34 416T62 448T94 470T130 479Q146 479 155 473T168 458T174 438T175 417V80Q186 80 191 73T201 58ZM241 549Q241 526 227 511T189 495Q164 495 151 510T137 549Q137 572 151 586T189 601Q212 601 226 587T241 549ZM96 549Q96 526 82 511T44 495Q20 495 6 510T-8 549Q-8 572 6 586T44 601Q68 601 82 587T96 549Z"  />
<glyph unicode="&#xD0;" horiz-adv-x="491" d="M467 273Q467 220 454 171T406 82T312 20T161 -4Q138 -4 108 -3T58 0V198H-19Q-19 203 -19 207T-20 216Q-20 236 -9 251T19 272Q27 274 37 275T51 276H58V398Q50 398 39 398T20 397Q19 402 19 406T19 415Q19 434 29 449T56 470Q69 472 89 473T132 475T178 476T220 477Q292 477 340 458T416 410T455 344T467 273ZM339 258Q339 333 297 366T186 400H175V276H269Q270 273 270 268V259Q270 239 260 223T232 202Q228 201 221 201T207 200T193 199T184 198H175V74H205Q265 74 302 122T339 258Z"  />
<glyph unicode="&#xD1;" horiz-adv-x="494" d="M447 214Q446 170 440 131T429 66Q426 60 418 48T397 23T365 2T325 -7Q319 -7 314 -7T303 -5L168 235Q160 248 151 269T136 303L132 312Q132 302 133 291Q133 282 133 272T134 251V116Q134 106 135 96Q136 88 136 80T137 68Q146 68 152 61T164 46Q159 39 151 30T132 13T109 -1T85 -7Q67 -7 60 5T52 31V417L44 432L65 447Q83 460 104 469T143 479Q151 479 160 475T180 450L364 119V362Q364 371 364 383T362 404Q353 404 347 411T335 426Q339 433 348 442T367 459T390 473T414 479Q432 479 439 467T447 440V214H447ZM389 608Q389 563 366 532T294 500Q269 500 255 511T229 536Q221 544 215 550T201 557Q180 557 172 543T162 508Q155 503 148 502T134 500Q129 500 123 501T114 507Q114 529 119 548T137 583T167 606T209 615Q234 615 248 604T274 579Q281 571 287 565T302 558Q322 558 330 572T341 607Q347 612 354 613T369 615Q374 615 379 614T389 608Z"  />
<glyph unicode="&#xD2;" horiz-adv-x="500" d="M477 242Q477 190 459 145T409 66T333 13T237 -6Q184 -6 145 12T78 61T38 137T24 234Q24 285 42 330T92 408T168 460T263 479Q315 479 355 461T422 412T463 337T477 242ZM348 239Q348 264 346 291T334 342T306 380T254 396Q223 396 204 380T173 339T157 285T153 229Q153 205 155 178T167 129T195 91T246 76Q277 76 296 92T327 132T343 184T348 239ZM310 508Q310 508 306 506T295 502T282 498T271 496Q256 496 252 503L172 610Q180 622 198 629T230 637Q245 637 257 633L310 508H310Z"  />
<glyph unicode="&#xD3;" horiz-adv-x="500" d="M477 242Q477 190 459 145T409 66T333 13T237 -6Q184 -6 145 12T78 61T38 137T24 234Q24 285 42 330T92 408T168 460T263 479Q315 479 355 461T422 412T463 337T477 242ZM348 239Q348 264 346 291T334 342T306 380T254 396Q223 396 204 380T173 339T157 285T153 229Q153 205 155 178T167 129T195 91T246 76Q277 76 296 92T327 132T343 184T348 239ZM262 504Q258 497 243 497Q238 497 232 499T220 503Q213 506 205 509L258 634Q269 638 285 638Q297 638 316 631T343 611L262 504H262Z"  />
<glyph unicode="&#xD4;" horiz-adv-x="500" d="M477 242Q477 190 459 145T409 66T333 13T237 -6Q184 -6 145 12T78 61T38 137T24 234Q24 285 42 330T92 408T168 460T263 479Q315 479 355 461T422 412T463 337T477 242ZM348 239Q348 264 346 291T334 342T306 380T254 396Q223 396 204 380T173 339T157 285T153 229Q153 205 155 178T167 129T195 91T246 76Q277 76 296 92T327 132T343 184T348 239ZM375 510Q373 507 368 505T355 501T342 498T331 497Q324 497 316 501L256 586Q256 586 250 577T235 556T217 531T202 510L197 501Q189 498 182 498Q173 498 159 503T143 513L217 637Q227 645 241 649T268 653Q276 653 286 652T303 647L375 510H375Z"  />
<glyph unicode="&#xD5;" horiz-adv-x="500" d="M477 242Q477 190 459 145T409 66T333 13T237 -6Q184 -6 145 12T78 61T38 137T24 234Q24 285 42 330T92 408T168 460T263 479Q315 479 355 461T422 412T463 337T477 242ZM348 239Q348 264 346 291T334 342T306 380T254 396Q223 396 204 380T173 339T157 285T153 229Q153 205 155 178T167 129T195 91T246 76Q277 76 296 92T327 132T343 184T348 239ZM399 607Q399 562 376 531T304 499Q279 499 265 510T239 535Q231 543 225 549T211 556Q190 556 182 542T172 507Q165 502 158 501T144 499Q139 499 133 500T124 506Q124 528 129 547T147 582T177 605T219 614Q244 614 258 603T284 578Q291 570 297 564T312 557Q332 557 340 571T351 606Q357 611 364 612T379 614Q384 614 389 613T399 607Z"  />
<glyph unicode="&#xD6;" horiz-adv-x="500" d="M477 242Q477 190 459 145T409 66T333 13T237 -6Q184 -6 145 12T78 61T38 137T24 234Q24 285 42 330T92 408T168 460T263 479Q315 479 355 461T422 412T463 337T477 242ZM348 239Q348 264 346 291T334 342T306 380T254 396Q223 396 204 380T173 339T157 285T153 229Q153 205 155 178T167 129T195 91T246 76Q277 76 296 92T327 132T343 184T348 239ZM387 551Q387 528 373 513T335 497Q310 497 297 512T283 551Q283 574 297 588T335 603Q358 603 372 589T387 551ZM242 551Q242 528 228 513T190 497Q166 497 152 512T138 551Q138 574 152 588T190 603Q214 603 228 589T242 551Z"  />
<glyph unicode="&#xD7;" horiz-adv-x="397" d="M198 118L79 0L17 51L141 175L29 287L99 344L205 239L313 347L375 296L261 182L381 62L311 5L198 118Z"  />
<glyph unicode="&#xD8;" horiz-adv-x="500" d="M477 242Q477 190 459 145T409 66T333 13T237 -6Q193 -6 159 6L128 -62L96 -53L129 19Q77 48 51 104T24 234Q24 285 42 330T92 408T168 460T263 479Q302 479 332 469L362 535L394 527L363 457Q420 429 448 373T477 242ZM348 239Q348 271 344 305T321 365L196 90Q216 76 246 76Q277 76 296 92T327 132T343 184T348 239ZM295 387Q287 391 277 393T254 396Q223 396 204 380T173 339T157 285T153 229Q153 200 156 170T173 116L295 387Z"  />
<glyph unicode="&#xD9;" horiz-adv-x="493" d="M461 57Q441 25 417 9T361 -7Q333 -7 327 9T321 61V83Q321 97 322 102Q314 86 298 67T260 32T209 4T148 -7Q122 -7 105 2T76 26T60 60T55 102V354Q39 354 29 361T10 382Q19 399 31 416T59 448T91 470T127 479Q143 479 152 473T166 458T171 438T172 417V154Q172 121 181 110T218 99Q232 99 246 107T274 130T298 163T317 202V354Q303 354 294 361T275 383Q284 400 296 417T322 448T354 470T390 479Q406 479 415 473T428 458T433 438T434 417V78Q453 78 461 57ZM286 509Q286 509 282 507T271 503T258 499T247 497Q232 497 228 504L148 611Q156 623 174 630T206 638Q221 638 233 634L286 509H286Z"  />
<glyph unicode="&#xDA;" horiz-adv-x="493" d="M461 57Q441 25 417 9T361 -7Q333 -7 327 9T321 61V83Q321 97 322 102Q314 86 298 67T260 32T209 4T148 -7Q122 -7 105 2T76 26T60 60T55 102V354Q39 354 29 361T10 382Q19 399 31 416T59 448T91 470T127 479Q143 479 152 473T166 458T171 438T172 417V154Q172 121 181 110T218 99Q232 99 246 107T274 130T298 163T317 202V354Q303 354 294 361T275 383Q284 400 296 417T322 448T354 470T390 479Q406 479 415 473T428 458T433 438T434 417V78Q453 78 461 57ZM259 504Q255 497 240 497Q235 497 229 499T217 503Q210 506 202 509L255 634Q266 638 282 638Q294 638 313 631T340 611L259 504H259Z"  />
<glyph unicode="&#xDB;" horiz-adv-x="493" d="M461 57Q441 25 417 9T361 -7Q333 -7 327 9T321 61V83Q321 97 322 102Q314 86 298 67T260 32T209 4T148 -7Q122 -7 105 2T76 26T60 60T55 102V354Q39 354 29 361T10 382Q19 399 31 416T59 448T91 470T127 479Q143 479 152 473T166 458T171 438T172 417V154Q172 121 181 110T218 99Q232 99 246 107T274 130T298 163T317 202V354Q303 354 294 361T275 383Q284 400 296 417T322 448T354 470T390 479Q406 479 415 473T428 458T433 438T434 417V78Q453 78 461 57ZM361 510Q359 507 354 505T341 501T328 498T317 497Q310 497 302 501L242 586Q242 586 236 577T221 556T203 531T188 510L183 501Q175 498 168 498Q159 498 145 503T129 513L203 637Q213 645 227 649T254 653Q262 653 272 652T289 647L361 510H361Z"  />
<glyph unicode="&#xDC;" horiz-adv-x="493" d="M461 57Q441 25 417 9T361 -7Q333 -7 327 9T321 61V83Q321 97 322 102Q314 86 298 67T260 32T209 4T148 -7Q122 -7 105 2T76 26T60 60T55 102V354Q39 354 29 361T10 382Q19 399 31 416T59 448T91 470T127 479Q143 479 152 473T166 458T171 438T172 417V154Q172 121 181 110T218 99Q232 99 246 107T274 130T298 163T317 202V354Q303 354 294 361T275 383Q284 400 296 417T322 448T354 470T390 479Q406 479 415 473T428 458T433 438T434 417V78Q453 78 461 57ZM370 551Q370 528 356 513T318 497Q293 497 280 512T266 551Q266 574 280 588T318 603Q341 603 355 589T370 551ZM225 551Q225 528 211 513T173 497Q149 497 135 512T121 551Q121 574 135 588T173 603Q197 603 211 589T225 551Z"  />
<glyph unicode="&#xDD;" horiz-adv-x="316" d="M344 447Q344 444 342 436T335 420L217 233V79Q227 79 232 74T243 57Q202 -7 143 -7Q115 -7 108 8T100 58V229L26 366Q23 364 17 363T7 362Q-6 362 -16 373T-31 401Q-21 415 -9 429T17 454T44 472T72 479Q99 479 110 458L150 379Q159 361 166 348T180 314Q188 334 196 348T212 378L228 410Q216 410 210 421T202 451Q212 457 227 462T257 471T287 477T311 479Q325 479 334 469T344 447ZM204 504Q200 497 185 497Q180 497 174 499T162 503Q155 506 147 509L200 634Q211 638 227 638Q239 638 258 631T285 611L204 504H204Z"  />
<glyph unicode="&#xDE;" horiz-adv-x="410" d="M404 283Q404 230 384 200T331 154T257 135T175 131V79Q176 81 179 81Q186 81 193 71T201 57Q183 30 159 12T100 -7Q84 -7 76 -2T63 12T59 33T58 58V354Q55 353 51 353Q39 353 29 363T13 382Q21 398 33 415T60 446T92 469T130 479Q145 479 154 474T167 461T173 441T175 418V403Q188 404 201 404T229 405Q262 405 293 402T349 385T389 348T404 283ZM282 273Q282 291 276 302T259 319T234 327T204 329Q196 329 189 329T175 328V209H203Q233 209 257 223T282 273Z"  />
<glyph unicode="&#xDF;" d="M412 121Q412 88 398 64T362 24T312 1T259 -7Q234 -7 216 -4T198 17Q198 31 205 44T221 68H230Q238 68 249 69T269 75T285 89T292 113Q292 137 278 152T246 183T215 222T200 281Q200 310 211 328T236 362Q245 373 252 385T260 418Q260 440 247 450T218 460Q186 460 172 440T158 383V71Q166 71 172 65T180 54Q160 23 139 8T86 -7Q60 -7 53 8T45 56V360Q45 444 93 484T228 525Q252 525 277 522T322 510T356 483T369 438Q369 410 360 393T339 362Q329 348 321 336T312 301Q312 270 327 254T362 223T396 185T412 121Z"  />
<glyph unicode="&#xE0;" horiz-adv-x="342" d="M362 70Q355 62 342 49T313 24T278 2T241 -7Q212 -7 204 5T195 38V53Q177 26 153 10Q127 -7 86 -7Q50 -7 27 16T3 81Q3 118 22 142T69 183T128 207T186 221V239Q186 271 150 271Q137 271 125 268T99 250Q96 247 93 242T87 231Q79 228 67 227T48 225Q33 225 23 230T13 253Q13 268 30 285T73 316T130 339T188 348Q242 348 270 323T298 250V109Q298 96 307 96Q312 96 315 98T324 104Q335 103 346 95T362 70ZM187 157Q154 153 134 140T114 102Q114 85 122 78T143 71Q158 71 169 83T187 107V157ZM229 402Q229 402 225 400T214 396T201 392T190 390Q175 390 171 397L91 504Q99 516 117 523T149 531Q164 531 176 527L229 402H229Z"  />
<glyph unicode="&#xE1;" horiz-adv-x="342" d="M362 70Q355 62 342 49T313 24T278 2T241 -7Q212 -7 204 5T195 38V53Q177 26 153 10Q127 -7 86 -7Q50 -7 27 16T3 81Q3 118 22 142T69 183T128 207T186 221V239Q186 271 150 271Q137 271 125 268T99 250Q96 247 93 242T87 231Q79 228 67 227T48 225Q33 225 23 230T13 253Q13 268 30 285T73 316T130 339T188 348Q242 348 270 323T298 250V109Q298 96 307 96Q312 96 315 98T324 104Q335 103 346 95T362 70ZM187 157Q154 153 134 140T114 102Q114 85 122 78T143 71Q158 71 169 83T187 107V157ZM197 397Q193 390 178 390Q173 390 167 392T155 396Q148 399 140 402L193 527Q204 531 220 531Q232 531 251 524T278 504L197 397H197Z"  />
<glyph unicode="&#xE2;" horiz-adv-x="342" d="M362 70Q355 62 342 49T313 24T278 2T241 -7Q212 -7 204 5T195 38V53Q177 26 153 10Q127 -7 86 -7Q50 -7 27 16T3 81Q3 118 22 142T69 183T128 207T186 221V239Q186 271 150 271Q137 271 125 268T99 250Q96 247 93 242T87 231Q79 228 67 227T48 225Q33 225 23 230T13 253Q13 268 30 285T73 316T130 339T188 348Q242 348 270 323T298 250V109Q298 96 307 96Q312 96 315 98T324 104Q335 103 346 95T362 70ZM187 157Q154 153 134 140T114 102Q114 85 122 78T143 71Q158 71 169 83T187 107V157ZM290 396Q288 393 283 391T270 387T257 384T246 383Q239 383 231 387L171 472Q171 472 165 463T150 442T132 417T117 396L112 387Q104 384 97 384Q88 384 74 389T58 399L132 523Q142 531 156 535T183 539Q191 539 201 538T218 533L290 396H290Z"  />
<glyph unicode="&#xE3;" horiz-adv-x="342" d="M362 70Q355 62 342 49T313 24T278 2T241 -7Q212 -7 204 5T195 38V53Q177 26 153 10Q127 -7 86 -7Q50 -7 27 16T3 81Q3 118 22 142T69 183T128 207T186 221V239Q186 271 150 271Q137 271 125 268T99 250Q96 247 93 242T87 231Q79 228 67 227T48 225Q33 225 23 230T13 253Q13 268 30 285T73 316T130 339T188 348Q242 348 270 323T298 250V109Q298 96 307 96Q312 96 315 98T324 104Q335 103 346 95T362 70ZM187 157Q154 153 134 140T114 102Q114 85 122 78T143 71Q158 71 169 83T187 107V157ZM307 495Q307 450 284 419T212 387Q187 387 173 398T147 423Q139 431 133 437T119 444Q98 444 90 430T80 395Q73 390 66 389T52 387Q47 387 41 388T32 394Q32 416 37 435T55 470T85 493T127 502Q152 502 166 491T192 466Q199 458 205 452T220 445Q240 445 248 459T259 494Q265 499 272 500T287 502Q292 502 297 501T307 495Z"  />
<glyph unicode="&#xE4;" horiz-adv-x="342" d="M362 70Q355 62 342 49T313 24T278 2T241 -7Q212 -7 204 5T195 38V53Q177 26 153 10Q127 -7 86 -7Q50 -7 27 16T3 81Q3 118 22 142T69 183T128 207T186 221V239Q186 271 150 271Q137 271 125 268T99 250Q96 247 93 242T87 231Q79 228 67 227T48 225Q33 225 23 230T13 253Q13 268 30 285T73 316T130 339T188 348Q242 348 270 323T298 250V109Q298 96 307 96Q312 96 315 98T324 104Q335 103 346 95T362 70ZM187 157Q154 153 134 140T114 102Q114 85 122 78T143 71Q158 71 169 83T187 107V157ZM295 444Q295 421 281 406T243 390Q218 390 205 405T191 444Q191 467 205 481T243 496Q266 496 280 482T295 444ZM150 444Q150 421 136 406T98 390Q74 390 60 405T46 444Q46 467 60 481T98 496Q122 496 136 482T150 444Z"  />
<glyph unicode="&#xE5;" horiz-adv-x="342" d="M362 70Q355 62 342 49T313 24T278 2T241 -7Q212 -7 204 5T195 38V53Q177 26 153 10Q127 -7 86 -7Q50 -7 27 16T3 81Q3 118 22 142T69 183T128 207T186 221V239Q186 271 150 271Q137 271 125 268T99 250Q96 247 93 242T87 231Q79 228 67 227T48 225Q33 225 23 230T13 253Q13 268 30 285T73 316T130 339T188 348Q242 348 270 323T298 250V109Q298 96 307 96Q312 96 315 98T324 104Q335 103 346 95T362 70ZM187 157Q154 153 134 140T114 102Q114 85 122 78T143 71Q158 71 169 83T187 107V157ZM272 470Q272 424 244 405T172 385Q156 385 141 389T114 402T95 424T87 456Q87 504 117 523T190 542Q223 542 247 524T272 470ZM211 463Q211 477 206 488T182 500Q165 500 156 490T147 464Q147 449 153 437T179 425Q196 425 203 437T211 463Z"  />
<glyph unicode="&#xE6;" horiz-adv-x="517" d="M495 189Q495 169 489 158T467 146H301Q303 122 315 103T355 83Q376 83 391 94T419 124Q428 124 438 122T458 114T474 100T481 82Q454 40 413 17T324 -7Q236 -7 204 56Q187 29 158 11T86 -7Q50 -7 27 16T3 81Q3 118 22 142T69 183T128 207T186 221V239Q186 271 150 271Q137 271 125 268T99 250Q96 247 93 242T87 231Q79 228 67 227T48 225Q33 225 23 230T13 253Q13 268 30 285T73 316T130 339T188 348Q217 348 236 339T265 308Q280 324 307 336T365 348Q401 348 426 335T466 301T488 250T495 189ZM187 157Q154 153 134 140T114 102Q114 85 122 78T143 71Q158 71 169 83T187 107V157ZM396 218Q396 226 395 235T389 253T378 266T357 272Q328 272 316 252T301 211H396V218Z"  />
<glyph unicode="&#xE7;" horiz-adv-x="323" d="M324 303Q324 299 321 290T312 271T297 254T274 246Q268 246 256 247T234 253Q236 258 236 264T236 273Q229 275 224 275T212 275Q186 275 172 264T151 238T143 204T141 172Q141 158 143 143T151 114T167 92T193 83Q216 83 231 94T259 124Q277 124 297 115T322 84Q296 42 255 18T164 -7Q126 -7 99 7T53 44T27 96T18 158Q18 246 70 297T215 348Q271 348 297 338T324 303ZM231 -99Q231 -123 218 -139T186 -167T144 -183T104 -188Q100 -181 100 -175Q100 -159 112 -149Q127 -149 144 -141T161 -112Q161 -92 145 -86T111 -80H103Q100 -76 100 -64Q100 -48 113 -32Q114 -32 118 -32T127 -32T138 -31T146 -31Q163 -31 178 -34T205 -44T224 -65T231 -99Z"  />
<glyph unicode="&#xE8;" horiz-adv-x="355" d="M336 189Q336 169 330 158T308 146H141Q143 122 155 103T196 83Q216 83 231 94T260 124Q269 124 279 122T299 114T314 100T321 82Q295 40 254 17T164 -7Q126 -7 99 5T53 40T27 93T18 161Q18 201 31 235T67 295T124 334T200 348Q237 348 263 335T305 301T329 250T336 189ZM236 219Q236 227 235 236T229 254T217 267T196 272Q167 272 155 252T141 211H236V219ZM241 402Q241 402 237 400T226 396T213 392T202 390Q187 390 183 397L103 504Q111 516 129 523T161 531Q176 531 188 527L241 402H241Z"  />
<glyph unicode="&#xE9;" horiz-adv-x="355" d="M336 189Q336 169 330 158T308 146H141Q143 122 155 103T196 83Q216 83 231 94T260 124Q269 124 279 122T299 114T314 100T321 82Q295 40 254 17T164 -7Q126 -7 99 5T53 40T27 93T18 161Q18 201 31 235T67 295T124 334T200 348Q237 348 263 335T305 301T329 250T336 189ZM236 219Q236 227 235 236T229 254T217 267T196 272Q167 272 155 252T141 211H236V219ZM204 397Q200 390 185 390Q180 390 174 392T162 396Q155 399 147 402L200 527Q211 531 227 531Q239 531 258 524T285 504L204 397H204Z"  />
<glyph unicode="&#xEA;" horiz-adv-x="355" d="M336 189Q336 169 330 158T308 146H141Q143 122 155 103T196 83Q216 83 231 94T260 124Q269 124 279 122T299 114T314 100T321 82Q295 40 254 17T164 -7Q126 -7 99 5T53 40T27 93T18 161Q18 201 31 235T67 295T124 334T200 348Q237 348 263 335T305 301T329 250T336 189ZM236 219Q236 227 235 236T229 254T217 267T196 272Q167 272 155 252T141 211H236V219ZM307 396Q305 393 300 391T287 387T274 384T263 383Q256 383 248 387L188 472Q188 472 182 463T167 442T149 417T134 396L129 387Q121 384 114 384Q105 384 91 389T75 399L149 523Q159 531 173 535T200 539Q208 539 218 538T235 533L307 396H307Z"  />
<glyph unicode="&#xEB;" horiz-adv-x="355" d="M336 189Q336 169 330 158T308 146H141Q143 122 155 103T196 83Q216 83 231 94T260 124Q269 124 279 122T299 114T314 100T321 82Q295 40 254 17T164 -7Q126 -7 99 5T53 40T27 93T18 161Q18 201 31 235T67 295T124 334T200 348Q237 348 263 335T305 301T329 250T336 189ZM236 219Q236 227 235 236T229 254T217 267T196 272Q167 272 155 252T141 211H236V219ZM316 444Q316 421 302 406T264 390Q239 390 226 405T212 444Q212 467 226 481T264 496Q287 496 301 482T316 444ZM171 444Q171 421 157 406T119 390Q95 390 81 405T67 444Q67 467 81 481T119 496Q143 496 157 482T171 444Z"  />
<glyph unicode="&#xEC;" horiz-adv-x="209" d="M206 75Q199 66 189 52T164 25T131 3T92 -7Q77 -7 68 -2T55 13T49 33T47 56V241L44 239Q42 237 38 237Q28 237 15 246T2 266Q8 275 19 289T44 316T77 338T116 348Q131 348 140 343T153 328T159 308T161 285V100L164 102Q168 104 170 104Q180 104 193 95T206 75ZM154 402Q154 402 150 400T139 396T126 392T115 390Q100 390 96 397L16 504Q24 516 42 523T74 531Q89 531 101 527L154 402H154Z"  />
<glyph unicode="&#xED;" horiz-adv-x="209" d="M206 75Q199 66 189 52T164 25T131 3T92 -7Q77 -7 68 -2T55 13T49 33T47 56V241L44 239Q42 237 38 237Q28 237 15 246T2 266Q8 275 19 289T44 316T77 338T116 348Q131 348 140 343T153 328T159 308T161 285V100L164 102Q168 104 170 104Q180 104 193 95T206 75ZM106 397Q102 390 87 390Q82 390 76 392T64 396Q57 399 49 402L102 527Q113 531 129 531Q141 531 160 524T187 504L106 397H106Z"  />
<glyph unicode="&#xEE;" horiz-adv-x="209" d="M206 75Q199 66 189 52T164 25T131 3T92 -7Q77 -7 68 -2T55 13T49 33T47 56V241L44 239Q42 237 38 237Q28 237 15 246T2 266Q8 275 19 289T44 316T77 338T116 348Q131 348 140 343T153 328T159 308T161 285V100L164 102Q168 104 170 104Q180 104 193 95T206 75ZM222 396Q220 393 215 391T202 387T189 384T178 383Q171 383 163 387L103 472Q103 472 97 463T82 442T64 417T49 396L44 387Q36 384 29 384Q20 384 6 389T-10 399L64 523Q74 531 88 535T115 539Q123 539 133 538T150 533L222 396H222Z"  />
<glyph unicode="&#xEF;" horiz-adv-x="209" d="M206 75Q199 66 189 52T164 25T131 3T92 -7Q77 -7 68 -2T55 13T49 33T47 56V241L44 239Q42 237 38 237Q28 237 15 246T2 266Q8 275 19 289T44 316T77 338T116 348Q131 348 140 343T153 328T159 308T161 285V100L164 102Q168 104 170 104Q180 104 193 95T206 75ZM237 444Q237 421 223 406T185 390Q160 390 147 405T133 444Q133 467 147 481T185 496Q208 496 222 482T237 444ZM92 444Q92 421 78 406T40 390Q16 390 2 405T-12 444Q-12 467 2 481T40 496Q64 496 78 482T92 444Z"  />
<glyph unicode="&#xF0;" horiz-adv-x="383" d="M365 179Q365 140 353 107T317 48T260 8T184 -7Q105 -7 62 35T18 157Q18 193 27 225T58 281T112 319T191 333H204Q202 344 194 359T175 390L77 345Q70 353 68 363T65 383Q65 392 70 405Q75 410 89 419T127 440L131 442Q114 461 97 476T67 499Q77 518 101 530T141 542H145Q167 530 187 517T225 486L319 530Q327 522 329 512T332 492Q332 482 327 470Q319 462 310 456T278 438L274 436Q318 382 341 323T365 179ZM241 159Q241 170 241 186T236 217T222 243T195 254Q178 254 168 245T151 223T143 195T141 167Q141 156 141 140T146 109T160 83T188 72Q205 72 215 81T231 103T239 131T241 159Z"  />
<glyph unicode="&#xF1;" horiz-adv-x="410" d="M408 75Q401 66 390 52T365 25T332 3T293 -7Q278 -7 270 -2T257 13T251 33T249 56V220Q249 238 244 248T221 258Q210 258 201 252T185 236T172 217T162 199V23Q146 8 125 1T83 -7Q78 -7 66 -5T48 4V241L45 239Q43 237 38 237Q29 237 17 245T3 266Q8 273 18 287T42 314T75 338T114 348Q128 348 136 343T149 328T155 308T156 287V275Q176 310 206 329T275 348Q302 348 319 340T345 318T358 283T362 237V100L365 102Q369 104 372 104Q382 104 395 95T408 75ZM349 495Q349 450 326 419T254 387Q229 387 215 398T189 423Q181 431 175 437T161 444Q140 444 132 430T122 395Q115 390 108 389T94 387Q89 387 83 388T74 394Q74 416 79 435T97 470T127 493T169 502Q194 502 208 491T234 466Q241 458 247 452T262 445Q282 445 290 459T301 494Q307 499 314 500T329 502Q334 502 339 501T349 495Z"  />
<glyph unicode="&#xF2;" horiz-adv-x="383" d="M365 186Q365 145 354 110T320 49T264 8T187 -7Q109 -7 64 33T18 156Q18 197 30 232T65 293T121 333T199 348Q274 348 319 306T365 186ZM241 172Q241 184 241 200T236 230T222 255T195 266Q178 266 168 257T151 233T143 203T141 174Q141 162 141 146T146 113T160 86T188 75Q205 75 215 85T231 110T239 141T241 172ZM247 402Q247 402 243 400T232 396T219 392T208 390Q193 390 189 397L109 504Q117 516 135 523T167 531Q182 531 194 527L247 402H247Z"  />
<glyph unicode="&#xF3;" horiz-adv-x="383" d="M365 186Q365 145 354 110T320 49T264 8T187 -7Q109 -7 64 33T18 156Q18 197 30 232T65 293T121 333T199 348Q274 348 319 306T365 186ZM241 172Q241 184 241 200T236 230T222 255T195 266Q178 266 168 257T151 233T143 203T141 174Q141 162 141 146T146 113T160 86T188 75Q205 75 215 85T231 110T239 141T241 172ZM209 397Q205 390 190 390Q185 390 179 392T167 396Q160 399 152 402L205 527Q216 531 232 531Q244 531 263 524T290 504L209 397H209Z"  />
<glyph unicode="&#xF4;" horiz-adv-x="383" d="M365 186Q365 145 354 110T320 49T264 8T187 -7Q109 -7 64 33T18 156Q18 197 30 232T65 293T121 333T199 348Q274 348 319 306T365 186ZM241 172Q241 184 241 200T236 230T222 255T195 266Q178 266 168 257T151 233T143 203T141 174Q141 162 141 146T146 113T160 86T188 75Q205 75 215 85T231 110T239 141T241 172ZM322 396Q320 393 315 391T302 387T289 384T278 383Q271 383 263 387L203 472Q203 472 197 463T182 442T164 417T149 396L144 387Q136 384 129 384Q120 384 106 389T90 399L164 523Q174 531 188 535T215 539Q223 539 233 538T250 533L322 396H322Z"  />
<glyph unicode="&#xF5;" horiz-adv-x="383" d="M365 186Q365 145 354 110T320 49T264 8T187 -7Q109 -7 64 33T18 156Q18 197 30 232T65 293T121 333T199 348Q274 348 319 306T365 186ZM241 172Q241 184 241 200T236 230T222 255T195 266Q178 266 168 257T151 233T143 203T141 174Q141 162 141 146T146 113T160 86T188 75Q205 75 215 85T231 110T239 141T241 172ZM340 495Q340 450 317 419T245 387Q220 387 206 398T180 423Q172 431 166 437T152 444Q131 444 123 430T113 395Q106 390 99 389T85 387Q80 387 74 388T65 394Q65 416 70 435T88 470T118 493T160 502Q185 502 199 491T225 466Q232 458 238 452T253 445Q273 445 281 459T292 494Q298 499 305 500T320 502Q325 502 330 501T340 495Z"  />
<glyph unicode="&#xF6;" horiz-adv-x="383" d="M365 186Q365 145 354 110T320 49T264 8T187 -7Q109 -7 64 33T18 156Q18 197 30 232T65 293T121 333T199 348Q274 348 319 306T365 186ZM241 172Q241 184 241 200T236 230T222 255T195 266Q178 266 168 257T151 233T143 203T141 174Q141 162 141 146T146 113T160 86T188 75Q205 75 215 85T231 110T239 141T241 172ZM330 444Q330 421 316 406T278 390Q253 390 240 405T226 444Q226 467 240 481T278 496Q301 496 315 482T330 444ZM185 444Q185 421 171 406T133 390Q109 390 95 405T81 444Q81 467 95 481T133 496Q157 496 171 482T185 444Z"  />
<glyph unicode="&#xF7;" horiz-adv-x="397" d="M26 211H372V135H26V211ZM257 287Q257 262 240 246T198 229Q172 229 157 245T141 287Q141 311 158 328T200 346Q226 346 241 329T257 287ZM257 51Q257 26 240 10T198 -7Q172 -7 157 9T141 51Q141 75 158 92T200 109Q226 109 241 92T257 51Z"  />
<glyph unicode="&#xF8;" horiz-adv-x="402" d="M384 185Q384 96 336 45T195 -7Q181 -7 168 -6T140 -2L113 -62L82 -53L109 6Q67 23 43 58T18 156Q18 244 66 296T207 348Q235 348 261 342L287 399L317 390L292 334Q334 319 359 284T384 185ZM263 168Q263 184 261 203T250 240L175 75Q185 69 199 69Q219 69 231 79T251 104T260 136T263 168ZM227 266Q215 271 202 271Q182 271 170 261T151 236T142 204T139 172Q139 156 141 137T152 101L227 266Z"  />
<glyph unicode="&#xF9;" horiz-adv-x="410" d="M407 75Q402 67 392 54T368 27T335 3T296 -7Q282 -7 274 -2T261 13T255 32T254 54V66Q234 31 204 12T135 -7Q108 -7 91 0T64 22T51 57T47 104V241L44 239Q42 237 38 237Q28 237 15 246T2 266Q8 275 19 289T44 316T77 338T116 348Q131 348 140 343T153 328T159 308T161 285V121Q161 102 166 93T189 83Q199 83 208 89T225 104T238 123T248 141V241L245 239Q243 237 239 237Q229 237 216 246T203 266Q209 275 220 289T245 316T278 338T317 348Q332 348 340 343T354 328T360 308T362 285V100L365 102Q369 104 371 104Q381 104 393 96T407 75ZM256 402Q256 402 252 400T241 396T228 392T217 390Q202 390 198 397L118 504Q126 516 144 523T176 531Q191 531 203 527L256 402H256Z"  />
<glyph unicode="&#xFA;" horiz-adv-x="410" d="M407 75Q402 67 392 54T368 27T335 3T296 -7Q282 -7 274 -2T261 13T255 32T254 54V66Q234 31 204 12T135 -7Q108 -7 91 0T64 22T51 57T47 104V241L44 239Q42 237 38 237Q28 237 15 246T2 266Q8 275 19 289T44 316T77 338T116 348Q131 348 140 343T153 328T159 308T161 285V121Q161 102 166 93T189 83Q199 83 208 89T225 104T238 123T248 141V241L245 239Q243 237 239 237Q229 237 216 246T203 266Q209 275 220 289T245 316T278 338T317 348Q332 348 340 343T354 328T360 308T362 285V100L365 102Q369 104 371 104Q381 104 393 96T407 75ZM229 397Q225 390 210 390Q205 390 199 392T187 396Q180 399 172 402L225 527Q236 531 252 531Q264 531 283 524T310 504L229 397H229Z"  />
<glyph unicode="&#xFB;" horiz-adv-x="410" d="M407 75Q402 67 392 54T368 27T335 3T296 -7Q282 -7 274 -2T261 13T255 32T254 54V66Q234 31 204 12T135 -7Q108 -7 91 0T64 22T51 57T47 104V241L44 239Q42 237 38 237Q28 237 15 246T2 266Q8 275 19 289T44 316T77 338T116 348Q131 348 140 343T153 328T159 308T161 285V121Q161 102 166 93T189 83Q199 83 208 89T225 104T238 123T248 141V241L245 239Q243 237 239 237Q229 237 216 246T203 266Q209 275 220 289T245 316T278 338T317 348Q332 348 340 343T354 328T360 308T362 285V100L365 102Q369 104 371 104Q381 104 393 96T407 75ZM328 396Q326 393 321 391T308 387T295 384T284 383Q277 383 269 387L209 472Q209 472 203 463T188 442T170 417T155 396L150 387Q142 384 135 384Q126 384 112 389T96 399L170 523Q180 531 194 535T221 539Q229 539 239 538T256 533L328 396H328Z"  />
<glyph unicode="&#xFC;" horiz-adv-x="410" d="M407 75Q402 67 392 54T368 27T335 3T296 -7Q282 -7 274 -2T261 13T255 32T254 54V66Q234 31 204 12T135 -7Q108 -7 91 0T64 22T51 57T47 104V241L44 239Q42 237 38 237Q28 237 15 246T2 266Q8 275 19 289T44 316T77 338T116 348Q131 348 140 343T153 328T159 308T161 285V121Q161 102 166 93T189 83Q199 83 208 89T225 104T238 123T248 141V241L245 239Q243 237 239 237Q229 237 216 246T203 266Q209 275 220 289T245 316T278 338T317 348Q332 348 340 343T354 328T360 308T362 285V100L365 102Q369 104 371 104Q381 104 393 96T407 75ZM338 444Q338 421 324 406T286 390Q261 390 248 405T234 444Q234 467 248 481T286 496Q309 496 323 482T338 444ZM193 444Q193 421 179 406T141 390Q117 390 103 405T89 444Q89 467 103 481T141 496Q165 496 179 482T193 444Z"  />
<glyph unicode="&#xFD;" horiz-adv-x="312" d="M333 323Q333 317 327 299T312 257T290 203T265 146T243 94T225 55Q197 -11 176 -51T128 -121T66 -168T-18 -185Q-45 -185 -64 -180T-84 -149Q-84 -131 -73 -111T-38 -91Q-29 -91 -17 -92T7 -97L6 -121L11 -122Q28 -122 42 -108T68 -74T88 -33T100 0Q96 2 93 3T88 10L26 239L21 236Q15 232 13 232Q2 232 -8 236T-26 253Q-16 270 -6 287T17 317T45 339T81 348Q96 348 106 343T121 321L158 177Q160 168 162 157T167 137T172 113Q175 127 178 136T184 156T190 176L222 270Q216 270 209 275T198 301Q217 317 246 332T301 348Q312 348 322 342T333 323ZM195 397Q191 390 176 390Q171 390 165 392T153 396Q146 399 138 402L191 527Q202 531 218 531Q230 531 249 524T276 504L195 397H195Z"  />
<glyph unicode="&#xFE;" horiz-adv-x="383" d="M365 198Q365 141 347 103T298 41T231 7T155 -7V-78Q159 -74 164 -74Q174 -74 186 -83T200 -103Q178 -136 151 -160T83 -185Q69 -185 61 -179T48 -164T42 -144T41 -122V419L38 417Q36 415 31 415Q21 415 10 424T-3 444Q6 457 17 471T42 498T75 517T116 525Q129 525 137 519T148 504T153 484T154 462V356Q154 338 154 324T149 292Q158 312 185 330T251 348Q281 348 302 335T338 301T358 253T365 198ZM241 180Q241 193 240 207T234 233T223 252T202 260Q180 260 169 248T154 223V68Q180 68 197 78T223 104T237 140T241 180Z"  />
<glyph unicode="&#xFF;" horiz-adv-x="312" d="M333 323Q333 317 327 299T312 257T290 203T265 146T243 94T225 55Q197 -11 176 -51T128 -121T66 -168T-18 -185Q-45 -185 -64 -180T-84 -149Q-84 -131 -73 -111T-38 -91Q-29 -91 -17 -92T7 -97L6 -121L11 -122Q28 -122 42 -108T68 -74T88 -33T100 0Q96 2 93 3T88 10L26 239L21 236Q15 232 13 232Q2 232 -8 236T-26 253Q-16 270 -6 287T17 317T45 339T81 348Q96 348 106 343T121 321L158 177Q160 168 162 157T167 137T172 113Q175 127 178 136T184 156T190 176L222 270Q216 270 209 275T198 301Q217 317 246 332T301 348Q312 348 322 342T333 323ZM299 444Q299 421 285 406T247 390Q222 390 209 405T195 444Q195 467 209 481T247 496Q270 496 284 482T299 444ZM154 444Q154 421 140 406T102 390Q78 390 64 405T50 444Q50 467 64 481T102 496Q126 496 140 482T154 444Z"  />
<glyph unicode="&#x131;" horiz-adv-x="209" d="M206 75Q199 66 189 52T164 25T131 3T92 -7Q77 -7 68 -2T55 13T49 33T47 56V241L44 239Q42 237 38 237Q28 237 15 246T2 266Q8 275 19 289T44 316T77 338T116 348Q131 348 140 343T153 328T159 308T161 285V100L164 102Q168 104 170 104Q180 104 193 95T206 75Z"  />
<glyph unicode="&#x141;" horiz-adv-x="329" d="M336 60Q336 40 326 25T298 3Q291 3 271 2T234 0H58V186L7 162Q-2 173 -5 185T-8 211Q-8 221 -5 230Q2 236 14 244T48 262L58 267V354Q43 354 34 360T13 382Q22 399 34 416T62 448T94 470T130 479Q146 479 155 473T168 458T174 438T175 417V321L244 353Q254 342 257 330T260 304Q260 299 259 295T256 285Q248 280 236 272T202 252L175 239V78H335Q335 73 335 69T336 60Z"  />
<glyph unicode="&#x142;" horiz-adv-x="202" d="M243 323Q243 315 239 305Q231 300 219 291T185 271L154 257V100Q158 104 164 104Q174 104 187 95T200 75Q191 62 180 48T154 21T121 1T80 -7Q66 -7 58 -1T47 14T42 34T41 56V205L-10 181Q-19 192 -22 204T-25 230Q-25 240 -22 249Q-14 254 -2 262T31 282L41 286V418Q38 415 32 415Q22 415 9 424T-4 444Q6 456 17 470T42 497T74 517T115 525Q129 525 137 520T148 505T153 485T154 463V339L227 372Q243 353 243 323Z"  />
<glyph unicode="&#x152;" horiz-adv-x="641" d="M630 61Q630 40 620 24T592 3Q586 3 567 2T533 0H344Q345 4 345 11V29Q325 11 291 2T221 -7Q173 -7 136 11T74 61T37 137T24 234Q24 285 41 330T87 408T157 460T245 479Q274 479 298 476T343 458Q343 462 343 462T344 468V472H621Q621 468 621 464T622 454Q622 434 612 419T584 398Q578 396 561 395T525 394H455V278H622Q623 273 623 260Q623 240 613 225T586 205Q579 203 560 203T524 202H455V78H629Q630 73 630 61ZM348 239Q348 264 346 291T334 342T306 380T254 396Q223 396 204 380T173 339T157 285T153 229Q153 205 155 178T167 128T195 90T246 75Q277 75 296 91T327 131T343 184T348 239Z"  />
<glyph unicode="&#x153;" horiz-adv-x="571" d="M552 189Q552 169 546 158T524 146H358Q358 139 359 134Q363 105 379 94T413 83Q432 83 447 94T476 124Q485 124 495 122T515 114T530 102T537 83Q511 41 471 17T388 -7Q355 -7 328 7T289 41Q267 18 241 6T179 -7Q101 -7 60 32T18 154Q18 195 28 230T60 292T114 333T191 348Q227 348 258 337T307 302Q327 323 353 335T415 348Q452 348 478 335T521 301T544 250T552 189ZM241 166Q241 177 241 194T236 227T222 254T195 266Q178 266 168 257T151 233T143 203T141 174Q141 162 141 145T146 113T160 86T188 74Q205 74 215 83T231 107T239 137T241 166ZM452 218Q452 226 451 235T445 253T434 266T413 272Q387 272 373 253T357 211H452V218Z"  />
<glyph unicode="&#x160;" horiz-adv-x="344" d="M330 436Q330 424 326 411T314 387T296 369T273 362Q262 362 251 364T230 374L236 397Q227 399 216 400T191 402Q170 402 155 388T139 348Q139 334 146 324T163 305T184 290T206 278Q262 254 293 224T324 140Q324 98 307 70T260 25T193 0T113 -8Q96 -8 78 -7T44 -2T18 11T8 35Q8 47 12 60T24 84T42 102T65 109Q75 109 86 107T108 97L101 74Q110 72 121 71T146 69Q175 69 189 85T204 124Q204 140 197 151T180 172T156 187T130 200Q82 220 50 254T17 337Q17 378 35 405T83 449T149 472T223 479Q238 479 257 478T292 473T319 460T330 436ZM237 511Q228 503 214 499T186 495Q178 495 168 496T152 501L79 638Q84 643 99 647T123 651Q128 651 131 650T139 647L198 562Q208 578 219 592Q227 604 236 617T251 638L258 647Q264 650 273 650Q282 650 295 645T312 635L237 511H237Z"  />
<glyph unicode="&#x161;" horiz-adv-x="290" d="M282 306Q282 282 267 262T225 241Q209 241 194 250L197 276Q189 278 181 279T166 280Q155 280 144 274T133 253Q133 238 144 231T171 217T206 204T241 186T268 155T279 105Q279 74 264 53T226 18T174 -1T120 -7Q109 -7 91 -7T54 -2T23 10T10 35Q10 59 25 79T68 100Q85 100 99 92L96 65Q104 63 112 62T128 61Q139 61 149 68T159 89Q159 106 148 116T121 133T86 148T51 165T24 191T13 232Q13 269 29 291T70 326T126 343T187 348Q198 348 214 348T245 343T271 331T282 306ZM201 394Q192 386 178 382T150 378Q142 378 132 379T116 384L43 521Q48 526 63 530T87 534Q92 534 95 533T103 530L162 445Q172 461 183 475Q191 487 200 500T215 521L222 530Q228 533 237 533Q246 533 259 528T276 518L201 394H201Z"  />
<glyph unicode="&#x178;" horiz-adv-x="316" d="M344 447Q344 444 342 436T335 420L217 233V79Q227 79 232 74T243 57Q202 -7 143 -7Q115 -7 108 8T100 58V229L26 366Q23 364 17 363T7 362Q-6 362 -16 373T-31 401Q-21 415 -9 429T17 454T44 472T72 479Q99 479 110 458L150 379Q159 361 166 348T180 314Q188 334 196 348T212 378L228 410Q216 410 210 421T202 451Q212 457 227 462T257 471T287 477T311 479Q325 479 334 469T344 447ZM301 553Q301 530 287 515T249 499Q224 499 211 514T197 553Q197 576 211 590T249 605Q272 605 286 591T301 553ZM156 553Q156 530 142 515T104 499Q80 499 66 514T52 553Q52 576 66 590T104 605Q128 605 142 591T156 553Z"  />
<glyph unicode="&#x17D;" horiz-adv-x="348" d="M156 109Q151 101 144 94T132 82L127 77Q142 77 155 77T190 77T247 78T343 78Q346 69 346 61Q346 41 337 26T310 4Q301 2 284 1T243 0H19Q2 8 -6 24T-16 59L172 362Q177 370 181 376T189 387L198 397L191 396Q180 396 162 395T134 394H1Q-1 399 -1 403T-1 412Q-1 429 8 445T33 467Q42 468 62 470T101 472H310Q326 464 336 449T347 415L156 109H156ZM237 509Q228 501 214 497T186 493Q178 493 168 494T152 499L79 636Q84 641 99 645T123 649Q128 649 131 648T139 645L198 560Q208 576 219 590Q227 602 236 615T251 636L258 645Q264 648 273 648Q282 648 295 643T312 633L237 509H237Z"  />
<glyph unicode="&#x17E;" horiz-adv-x="269" d="M278 55Q278 38 267 24T243 4Q236 3 226 2T204 1T182 0T163 0H17Q6 5 -1 23T-9 58Q-9 58 -4 65T9 84T28 110T49 140Q74 175 106 220Q110 226 117 234T131 250T143 264T150 271Q149 271 144 271T131 270T115 270T100 269H1Q-1 273 -1 277T-2 285Q-2 302 9 316T33 336Q47 338 67 339T105 340H249Q261 334 268 319T275 282L266 270Q258 258 245 240T217 201T189 163T168 132L159 121Q154 114 147 105T134 89T122 76T115 70H119Q127 71 140 71T168 72H275Q278 63 278 55ZM195 394Q186 386 172 382T144 378Q136 378 126 379T110 384L37 521Q42 526 57 530T81 534Q86 534 89 533T97 530L156 445Q166 461 177 475Q185 487 194 500T209 521L216 530Q222 533 231 533Q240 533 253 528T270 518L195 394H195Z"  />
<glyph unicode="&#x192;" horiz-adv-x="397" d="M474 491Q474 482 470 471T459 449T442 432T420 425Q411 425 399 426T376 431L377 455Q375 456 370 456T359 456Q342 456 330 445T309 417T296 380T287 340Q287 339 278 293H378Q382 283 382 275Q382 259 372 245T351 225Q340 223 323 222T296 221H266L234 28Q226 -16 211 -55T168 -123T101 -168T3 -185Q-11 -185 -25 -185T-50 -181T-68 -170T-76 -150Q-76 -141 -72 -130T-61 -108T-45 -90T-23 -83Q-14 -83 -2 -84T22 -90L20 -113Q22 -114 28 -115T40 -116Q60 -116 73 -99T95 -60T108 -16T115 17L150 221H84Q82 226 81 231T80 240Q80 255 90 269T111 289Q119 291 129 292T146 293H162L171 344Q178 386 198 420T247 477T314 512T394 525Q407 525 421 525T447 521T466 511T474 491Z"  />
<glyph unicode="&#x2C6;" horiz-adv-x="209" d="M222 396Q220 393 215 391T202 387T189 384T178 383Q171 383 163 387L103 472Q103 472 97 463T82 442T64 417T49 396L44 387Q36 384 29 384Q20 384 6 389T-10 399L64 523Q74 531 88 535T115 539Q123 539 133 538T150 533L222 396H222Z"  />
<glyph unicode="&#x2C7;" horiz-adv-x="209" d="M152 394Q143 386 129 382T101 378Q93 378 83 379T67 384L-6 521Q-1 526 14 530T38 534Q43 534 46 533T54 530L113 445Q123 461 134 475Q142 487 151 500T166 521L173 530Q179 533 188 533Q197 533 210 528T227 518L152 394H152Z"  />
<glyph unicode="&#x2C9;" horiz-adv-x="209" d="M241 442Q241 430 232 416T213 396Q202 394 188 393T154 392H-11Q-13 397 -13 401T-13 410Q-13 422 -4 436T15 456Q26 458 40 459T73 460H239Q240 455 240 451T241 442Z"  />
<glyph unicode="&#x2D8;" horiz-adv-x="209" d="M250 500Q227 448 193 418T97 387Q53 387 23 416T-9 494Q13 509 42 509Q47 509 53 509T64 506Q67 475 81 462T119 449Q147 449 162 467T186 502Q199 509 213 509Q222 509 232 507T250 500Z"  />
<glyph unicode="&#x2D9;" horiz-adv-x="209" d="M176 451Q176 423 156 403T108 383Q79 383 60 402T41 451Q41 479 61 499T111 519Q140 519 158 500T176 451Z"  />
<glyph unicode="&#x2DA;" horiz-adv-x="209" d="M202 470Q202 424 174 405T102 385Q86 385 71 389T44 402T25 424T17 456Q17 504 47 523T120 542Q153 542 177 524T202 470ZM141 463Q141 477 136 488T112 500Q95 500 86 490T77 464Q77 449 83 437T109 425Q126 425 133 437T141 463Z"  />
<glyph unicode="&#x2DB;" horiz-adv-x="209" d="M168 -118Q147 -133 122 -140T74 -148Q14 -148 14 -89Q14 -69 24 -52T51 -19T87 9T125 34L156 17Q150 14 137 5T112 -15T89 -40T79 -65Q79 -80 88 -88T108 -96Q119 -96 129 -93T148 -84Q158 -90 163 -99T168 -118Z"  />
<glyph unicode="&#x2DC;" horiz-adv-x="209" d="M249 495Q249 450 226 419T154 387Q129 387 115 398T89 423Q81 431 75 437T61 444Q40 444 32 430T22 395Q15 390 8 389T-6 387Q-11 387 -17 388T-26 394Q-26 416 -21 435T-3 470T27 493T69 502Q94 502 108 491T134 466Q141 458 147 452T162 445Q182 445 190 459T201 494Q207 499 214 500T229 502Q234 502 239 501T249 495Z"  />
<glyph unicode="&#x2DD;" horiz-adv-x="284" d="M237 397Q233 390 218 390Q213 390 207 392T195 396Q188 399 180 402L233 527Q244 531 260 531Q272 531 291 524T318 504L237 397ZM103 397Q99 390 84 390Q79 390 73 392T60 396T50 400T45 402L99 527Q110 531 125 531Q138 531 157 524T184 504L103 397Z"  />
<glyph unicode="&#x3A9;" horiz-adv-x="511" d="M277 78Q322 86 341 130T360 236Q360 263 357 291T344 342T313 380T259 395Q228 395 208 382T175 346T157 295T152 236Q152 174 170 130T234 78L221 0H13V82H84Q90 82 97 82T106 81Q89 87 75 105T49 147T32 198T26 250Q26 295 41 336T88 409T163 459T267 478Q324 478 365 460T433 411T472 339T485 250Q485 225 479 199T461 150T435 108T405 81Q407 81 414 81T427 82H499V0H291L277 78Z"  />
<glyph unicode="&#x3C0;" horiz-adv-x="425" d="M370 0H259V269H169V0H56V269H11V340H415V269H370V0Z"  />
<glyph unicode="&#x60C;" horiz-adv-x="279" d="M182 245L113 136Q137 136 152 129T178 111T192 88T196 66Q196 34 173 16T120 -3Q86 -3 64 18T41 74Q41 104 65 155T137 275L182 245Z"  />
<glyph unicode="&#x615;" horiz-adv-x="0" d="M151 652Q152 656 152 659T153 666Q153 672 148 681T125 690Q108 690 91 674T61 634Q88 635 109 639T151 652ZM37 633Q46 648 46 665Q46 670 46 680T43 704T38 732T29 760L66 787Q72 763 73 740T76 695Q91 712 107 723T140 734Q161 734 172 719T183 680Q183 666 178 650T162 617Q148 609 132 604T101 596T73 592T51 590Q27 590 17 601T-1 645L1 649Q10 642 18 638T37 633Z"  />
<glyph unicode="&#x61B;" horiz-adv-x="234" d="M155 383L96 292Q116 292 129 286T151 270T163 251T167 232Q167 204 147 190T103 175Q74 175 55 193T36 240Q36 264 55 308T116 409L155 383ZM100 118L185 46Q183 43 174 33T154 12T132 -9T116 -19Q113 -19 105 -14T87 -2T65 15T44 32L36 38L100 118Z"  />
<glyph unicode="&#x61F;" horiz-adv-x="298" d="M22 425Q22 452 34 474T66 511T112 534T166 543Q185 543 209 534T246 498Q246 469 228 447T194 412Q183 431 174 437T147 444Q128 444 117 436T106 411Q106 399 119 378T147 330T176 275T189 219Q189 197 185 180T171 145L102 155Q108 168 111 176T116 192T118 205T119 220Q119 248 104 273T71 324T37 373T22 425ZM128 118L213 46Q211 43 202 33T182 12T160 -9T144 -19Q141 -19 133 -14T115 -2T93 15T72 32L64 38L128 118Z"  />
<glyph unicode="&#x621;" horiz-adv-x="387" d="M357 102Q357 96 355 82T348 51T339 22T326 8Q308 4 272 2T194 0H18L38 114H113L99 126Q84 141 84 164Q84 186 95 213T129 263T181 303T250 319Q267 319 277 314T294 299T302 277T304 251Q304 241 302 231T298 212T293 197T291 191L286 188Q281 191 269 198T235 206Q217 206 204 200T182 186T169 169T164 152Q164 138 173 131T195 119T225 115T254 114Q295 114 317 124T347 134Q357 134 357 102Z"  />
<glyph unicode="&#x622;" arabic-form="terminal" horiz-adv-x="247" d="M-36 549Q-37 549 -38 549T-40 550Q-40 566 -32 593T-11 638Q-5 646 7 646Q31 646 54 642T101 633T147 623T193 619Q212 619 226 625T255 648Q256 648 256 648T258 647Q255 632 249 618T233 591T212 572T187 564Q142 564 102 570T19 577Q15 577 12 577T3 575Q-11 572 -19 567T-36 549ZM247 114Q260 114 265 99T271 70Q271 62 270 51T265 28T258 8T247 0H141Q130 0 122 0T107 1T90 3T68 6V92Q68 111 68 157T64 260T53 371T34 465Q51 477 81 496T140 526Q146 521 150 498T157 440T163 364T167 281T169 204T170 142V114H247Z"  />
<glyph unicode="&#x622;" arabic-form="isolated" horiz-adv-x="267" d="M-36 549Q-37 549 -38 549T-40 550Q-40 566 -32 593T-11 638Q-5 646 7 646Q31 646 54 642T101 633T147 623T193 619Q212 619 226 625T255 648Q256 648 256 648T258 647Q255 632 249 618T233 591T212 572T187 564Q142 564 102 570T19 577Q15 577 12 577T3 575Q-11 572 -19 567T-36 549ZM41 468Q44 470 56 478T84 496T115 514T141 526Q154 505 163 486T179 451T188 425T191 412Q191 406 188 401T180 390T171 380T166 372Q164 362 164 333Q164 306 165 268T167 189T169 108T170 40Q170 20 143 9T64 -17Q64 35 64 97T61 225T54 353T41 468Z"  />
<glyph unicode="&#x623;" arabic-form="terminal" horiz-adv-x="247" d="M155 608Q154 603 151 594T142 582L2 546Q4 560 6 578T14 608L37 615Q29 623 29 632Q29 644 36 658T55 685T81 707T111 716Q128 716 134 703T140 679Q140 674 137 666T130 657Q129 657 122 661T109 665Q98 665 87 656T75 640Q75 635 87 633T106 630Q123 630 133 637T150 644Q155 644 155 636T156 623Q156 621 156 617T155 608ZM247 114Q260 114 265 99T271 70Q271 62 270 51T265 28T258 8T247 0H141Q130 0 122 0T107 1T90 3T68 6V92Q68 111 68 157T64 260T53 371T34 465Q51 477 81 496T140 526Q146 521 150 498T157 440T163 364T167 281T169 204T170 142V114H247Z"  />
<glyph unicode="&#x623;" arabic-form="isolated" horiz-adv-x="251" d="M155 608Q154 603 151 594T142 582L2 546Q4 560 6 578T14 608L37 615Q29 623 29 632Q29 644 36 658T55 685T81 707T111 716Q128 716 134 703T140 679Q140 674 137 666T130 657Q129 657 122 661T109 665Q98 665 87 656T75 640Q75 635 87 633T106 630Q123 630 133 637T150 644Q155 644 155 636T156 623Q156 621 156 617T155 608ZM37 468Q40 470 52 478T80 496T111 514T137 526Q150 505 159 486T175 451T184 425T187 412Q187 406 184 401T176 390T167 380T162 372Q160 362 160 333Q160 306 161 268T163 189T165 108T166 40Q166 20 139 9T60 -17Q60 35 60 97T57 225T50 353T37 468Z"  />
<glyph unicode="&#x624;" arabic-form="terminal" horiz-adv-x="427" d="M268 442Q267 437 264 428T255 416L115 380Q117 394 119 412T127 442L150 449Q142 457 142 466Q142 478 149 492T168 519T194 541T224 550Q241 550 247 537T253 513Q253 508 250 500T243 491Q242 491 235 495T222 499Q211 499 200 490T188 474Q188 469 200 467T219 464Q236 464 246 471T263 478Q268 478 268 470T269 457Q269 455 269 451T268 442ZM124 162Q124 147 134 138T157 123T186 116T212 114H279Q280 118 280 130Q280 172 260 195T198 219Q165 219 145 202T124 162ZM272 0Q241 0 201 2T124 17T62 59T36 141Q36 175 48 208T82 268T137 311T208 328Q292 328 334 272T379 114H427Q438 114 442 102T447 74Q447 34 440 17T427 0H367Q355 -51 333 -90T287 -155T241 -194T206 -208Q185 -208 149 -192T66 -138Q66 -137 66 -136T67 -133Q95 -130 126 -123T186 -100T238 -61T272 0Z"  />
<glyph unicode="&#x624;" arabic-form="isolated" horiz-adv-x="418" d="M268 442Q267 437 264 428T255 416L115 380Q117 394 119 412T127 442L150 449Q142 457 142 466Q142 478 149 492T168 519T194 541T224 550Q241 550 247 537T253 513Q253 508 250 500T243 491Q242 491 235 495T222 499Q211 499 200 490T188 474Q188 469 200 467T219 464Q236 464 246 471T263 478Q268 478 268 470T269 457Q269 455 269 451T268 442ZM272 0Q241 0 201 2T124 17T62 59T36 141Q36 175 48 208T82 268T137 311T208 328Q295 328 337 268T379 101Q379 25 359 -31T312 -125T257 -181T213 -200Q192 -200 156 -184T73 -130Q73 -129 73 -128T74 -125Q102 -122 132 -116T189 -97T239 -60T272 0ZM124 162Q124 147 134 138T157 123T186 116T212 114H279Q280 118 280 130Q280 172 260 195T198 219Q165 219 145 202T124 162Z"  />
<glyph unicode="&#x625;" arabic-form="terminal" horiz-adv-x="247" d="M186 -159Q185 -164 182 -173T173 -185L33 -221Q35 -207 37 -189T45 -159L68 -152Q65 -149 63 -145T60 -135Q60 -123 67 -109T86 -82T112 -60T142 -51Q159 -51 165 -64T171 -88Q171 -93 168 -101T161 -110Q160 -110 153 -106T140 -102Q129 -102 118 -111T106 -127Q106 -132 118 -134T137 -137Q154 -137 164 -130T181 -123Q186 -123 186 -131T187 -144Q187 -146 187 -150T186 -159ZM247 114Q260 114 265 99T271 70Q271 62 270 51T265 28T258 8T247 0H141Q130 0 122 0T107 1T90 3T68 6V92Q68 111 68 157T64 260T53 371T34 465Q51 477 81 496T140 526Q146 521 150 498T157 440T163 364T167 281T169 204T170 142V114H247Z"  />
<glyph unicode="&#x625;" arabic-form="isolated" horiz-adv-x="253" d="M186 -159Q185 -164 182 -173T173 -185L33 -221Q35 -207 37 -189T45 -159L68 -152Q65 -149 63 -145T60 -135Q60 -123 67 -109T86 -82T112 -60T142 -51Q159 -51 165 -64T171 -88Q171 -93 168 -101T161 -110Q160 -110 153 -106T140 -102Q129 -102 118 -111T106 -127Q106 -132 118 -134T137 -137Q154 -137 164 -130T181 -123Q186 -123 186 -131T187 -144Q187 -146 187 -150T186 -159ZM37 468Q40 470 52 478T80 496T111 514T137 526Q150 505 159 486T175 451T184 425T187 412Q187 406 184 401T176 390T167 380T162 372Q160 362 160 333Q160 306 161 268T163 189T165 108T166 40Q166 20 139 9T60 -17Q60 35 60 97T57 225T50 353T37 468Z"  />
<glyph unicode="&#x626;" arabic-form="initial" horiz-adv-x="305" d="M196 395Q195 390 192 381T183 369L43 333Q45 347 47 365T55 395L78 402Q70 410 70 419Q70 431 77 445T96 472T122 494T152 503Q169 503 175 490T181 466Q181 461 178 453T171 444Q170 444 163 448T150 452Q139 452 128 443T116 427Q116 422 128 420T147 417Q164 417 174 424T191 431Q196 431 196 423T197 410Q197 408 197 404T196 395ZM-3 0Q-8 0 -16 7T-32 24T-46 47T-52 71Q-52 85 -42 99T-3 114H123Q148 114 148 130Q148 160 137 190T112 251Q119 256 134 264T166 280T199 296T224 307Q254 256 264 234T275 208Q275 203 261 190T233 168Q235 159 236 143T238 120V101Q237 89 229 72T210 38T188 11T169 0H-3Z"  />
<glyph unicode="&#x626;" arabic-form="medial" horiz-adv-x="296" d="M197 395Q196 390 193 381T184 369L44 333Q46 347 48 365T56 395L79 402Q71 410 71 419Q71 431 78 445T97 472T123 494T153 503Q170 503 176 490T182 466Q182 461 179 453T172 444Q171 444 164 448T151 452Q140 452 129 443T117 427Q117 422 129 420T148 417Q165 417 175 424T192 431Q197 431 197 423T198 410Q198 408 198 404T197 395ZM284 0Q224 0 182 56Q168 33 148 17T117 0H0Q-4 0 -12 7T-27 25T-41 49T-47 73Q-47 87 -34 100T0 114H80Q101 114 106 121T112 136Q112 148 109 163T102 194T95 225T90 255Q90 264 94 268T113 278Q131 286 149 292T203 307Q205 265 205 227T211 149Q214 123 233 119T277 114H296Q307 114 313 101T320 76Q320 66 318 53T313 28T306 8T296 0H284Z"  />
<glyph unicode="&#x626;" arabic-form="terminal" horiz-adv-x="533" d="M197 257Q196 252 193 243T184 231L44 195Q46 209 48 227T56 257L79 264Q71 272 71 281Q71 293 78 307T97 334T123 356T153 365Q170 365 176 352T182 328Q182 323 179 315T172 306Q171 306 164 310T151 314Q140 314 129 305T117 289Q117 284 129 282T148 279Q165 279 175 286T192 293Q197 293 197 285T198 272Q198 270 198 266T197 257ZM477 0L475 -4Q484 -9 495 -19T507 -37Q507 -51 500 -66T475 -96Q433 -130 371 -156T224 -183Q190 -183 156 -175T93 -147T48 -93T30 -7Q30 23 37 49T56 97T78 134T99 155Q104 159 114 162T137 169T159 174T174 177Q176 177 178 172Q166 155 156 136T138 97T126 59T121 27Q121 -2 133 -22T167 -54T216 -72T277 -78Q309 -78 337 -74T387 -65T422 -54T436 -45Q436 -36 424 -26T393 -5T351 15T307 31Q308 37 313 49T325 75T338 99T347 114H533Q544 114 550 102T557 78Q557 68 555 55T549 29T541 9T533 0H477Z"  />
<glyph unicode="&#x626;" arabic-form="isolated" horiz-adv-x="666" d="M207 333Q206 328 203 319T194 307L54 271Q56 285 58 303T66 333L89 340Q81 348 81 357Q81 369 88 383T107 410T133 432T163 441Q180 441 186 428T192 404Q192 399 189 391T182 382Q181 382 174 386T161 390Q150 390 139 381T127 365Q127 360 139 358T158 355Q175 355 185 362T202 369Q207 369 207 361T208 348Q208 346 208 342T207 333ZM606 49Q606 29 592 0T544 -64Q523 -84 494 -100T431 -127T358 -144T281 -150Q235 -150 189 -137T107 -99T48 -35T25 54Q25 90 32 118T50 168T69 202T83 219Q86 222 96 226T121 235T152 243T183 249L186 246Q165 219 147 181T128 102Q128 67 142 44T180 5T234 -16T296 -23Q351 -23 391 -17T457 -3T497 14T510 25Q510 34 497 44T463 65T421 85T379 103Q350 114 341 120T332 145Q332 171 348 210T390 287T445 350T500 377Q533 377 564 354T622 299L619 293Q564 278 518 248T451 187Q455 183 479 170T532 138T583 96T606 49Z"  />
<glyph unicode="&#x627;" arabic-form="terminal" horiz-adv-x="247" d="M247 114Q260 114 265 99T271 70Q271 62 270 51T265 28T258 8T247 0H141Q130 0 122 0T107 1T90 3T68 6V92Q68 111 68 157T64 260T53 371T34 465Q51 477 81 496T140 526Q146 521 150 498T157 440T163 364T167 281T169 204T170 142V114H247Z"  />
<glyph unicode="&#x627;" arabic-form="isolated" horiz-adv-x="227" d="M37 468Q40 470 52 478T80 496T111 514T137 526Q150 505 159 486T175 451T184 425T187 412Q187 406 184 401T176 390T167 380T162 372Q160 362 160 333Q160 306 161 268T163 189T165 108T166 40Q166 20 139 9T60 -17Q60 35 60 97T57 225T50 353T37 468Z"  />
<glyph unicode="&#x628;" arabic-form="initial" horiz-adv-x="292" d="M98 -77L192 -157Q190 -160 180 -171T158 -196T134 -219T116 -230Q112 -230 103 -225T82 -211T58 -192T35 -173L27 -166L98 -77ZM0 0Q-5 0 -13 7T-29 24T-43 47T-49 71Q-49 85 -39 99T0 114H112Q137 114 137 130Q137 160 126 190T101 251Q108 256 123 264T155 280T188 296T213 307Q243 256 253 234T264 208Q264 203 250 190T222 168Q224 159 225 143T227 120V101Q226 89 218 72T199 38T177 11T158 0H0Z"  />
<glyph unicode="&#x628;" arabic-form="medial" horiz-adv-x="305" d="M105 -77L199 -157Q197 -160 187 -171T165 -195T141 -218T123 -230Q119 -230 110 -225T89 -211T65 -192T42 -173L34 -166L105 -77ZM293 0Q233 0 191 56Q177 33 157 17T126 0H0Q-4 0 -12 7T-27 25T-41 49T-47 73Q-47 87 -34 100T0 114H89Q110 114 115 121T121 136Q121 148 118 163T111 194T104 225T99 255Q99 264 103 268T122 278Q140 286 158 292T212 307Q214 265 214 227T220 149Q223 123 242 119T286 114H305Q316 114 322 101T329 76Q329 63 327 50T321 25T313 7T305 0H293Z"  />
<glyph unicode="&#x628;" arabic-form="terminal" horiz-adv-x="720" d="M338 -62L432 -142Q430 -145 420 -156T398 -180T374 -203T356 -215Q352 -215 343 -210T322 -196T298 -177T275 -158L267 -151L338 -62ZM708 0Q648 0 606 56Q592 33 572 17T541 0H159Q135 0 110 9T63 36T29 83T15 150Q15 173 25 197T44 231Q47 233 60 237T89 247T118 256T134 260L138 256Q121 233 114 214T106 175Q106 168 108 158T120 138T146 121T195 114H510Q527 114 531 121T536 136Q536 148 533 163T526 194T519 225T514 255Q514 264 518 268T537 278Q555 286 573 292T627 307Q629 265 629 227T635 149Q638 123 657 119T701 114H720Q731 114 737 102T744 75Q744 65 742 52T737 28T730 8T720 0H708Z"  />
<glyph unicode="&#x628;" arabic-form="isolated" horiz-adv-x="677" d="M324 -62L418 -142Q416 -145 406 -156T384 -180T360 -203T342 -215Q338 -215 329 -210T308 -196T284 -177T261 -158L253 -151L324 -62ZM158 0Q134 0 109 9T62 36T28 83T14 150Q14 173 24 197T43 231Q46 233 59 237T88 247T117 256T133 260L137 256Q120 233 113 214T105 175Q105 168 107 158T119 138T145 121T194 114H505Q530 114 530 130Q530 160 519 190T494 251Q501 256 515 264T546 280T577 296T602 307Q632 256 642 234T653 208Q653 203 639 190T611 168Q613 159 614 143T616 120V101Q615 89 607 72T588 38T566 11T547 0H158Z"  />
<glyph unicode="&#x629;" arabic-form="terminal" horiz-adv-x="490" d="M148 534L217 474L268 538L354 466Q352 464 344 452T326 425T303 398T281 385Q277 385 257 398T213 430Q202 412 188 398T163 381Q160 381 150 386T128 401T102 420T77 442L148 534ZM491 114V0H453Q442 0 423 3T384 19T348 59T327 132Q325 153 324 176T320 231Q319 245 307 247T285 250Q264 250 236 238T183 208T141 167T123 123Q123 111 141 109T192 106Q213 106 239 107T286 111Q283 64 271 36T254 5Q252 3 243 1T222 -2T197 -3T174 -4Q137 -4 110 3T66 21T41 47T32 75Q32 125 61 175T135 266T233 332T336 357Q363 357 379 346T403 318T413 286T415 260V230Q415 216 416 197T420 159T430 127T447 114H491Z"  />
<glyph unicode="&#x629;" arabic-form="isolated" horiz-adv-x="415" d="M100 532L169 472L220 536L306 464Q304 462 296 450T278 423T255 396T233 383Q229 383 209 396T165 428Q154 410 140 396T115 379Q112 379 102 384T80 399T54 418T29 440L100 532ZM292 112Q292 122 282 134T255 159T219 180T181 193Q169 188 156 177T131 154T113 129T106 107Q106 100 128 88T198 75Q220 75 237 79T267 90T285 102T292 112ZM192 -34Q173 -34 149 -30T99 -18T53 -2T20 16Q20 61 31 105T63 189T111 263T171 321Q212 311 252 289T323 234T373 163T392 82Q392 46 376 23T331 -12T267 -29T192 -34Z"  />
<glyph unicode="&#x62A;" arabic-form="initial" horiz-adv-x="379" d="M91 497L160 437L211 501L297 429Q295 427 287 415T269 388T246 361T224 348Q220 348 200 361T156 393Q145 375 131 361T106 344Q103 344 93 349T71 364T45 383T20 405L91 497ZM0 0Q-5 0 -13 7T-29 24T-43 47T-49 71Q-49 85 -39 99T0 114H199Q224 114 224 130Q224 160 213 190T188 251Q195 256 210 264T242 280T275 296T300 307Q330 256 340 234T351 208Q351 203 337 190T309 168Q311 159 312 143T314 120V101Q313 89 305 72T286 38T264 11T245 0H0Z"  />
<glyph unicode="&#x62A;" arabic-form="medial" horiz-adv-x="369" d="M91 497L160 437L211 501L297 429Q295 427 287 415T269 388T246 361T224 348Q220 348 200 361T156 393Q145 375 131 361T106 344Q103 344 93 349T71 364T45 383T20 405L91 497ZM357 0Q297 0 255 56Q241 33 221 17T190 0H0Q-4 0 -12 7T-27 25T-41 49T-47 73Q-47 87 -35 100T0 114H153Q174 114 179 121T185 136Q185 148 182 163T175 194T168 225T163 255Q163 264 167 268T186 278Q204 286 222 292T276 307Q278 265 278 227T284 149Q287 123 306 119T350 114H369Q380 114 386 101T393 76Q393 63 391 50T385 25T377 7T369 0H357Z"  />
<glyph unicode="&#x62A;" arabic-form="terminal" horiz-adv-x="720" d="M248 491L317 431L368 495L454 423Q452 421 444 409T426 382T403 355T381 342Q377 342 357 355T313 387Q302 369 288 355T263 338Q260 338 250 343T228 358T202 377T177 399L248 491ZM708 0Q648 0 606 56Q592 33 572 17T541 0H159Q135 0 110 9T63 36T29 83T15 150Q15 173 25 197T44 231Q47 233 60 237T89 247T118 256T134 260L138 256Q121 233 114 214T106 175Q106 168 108 158T120 138T146 121T195 114H510Q527 114 531 121T536 136Q536 148 533 163T526 194T519 225T514 255Q514 264 518 268T537 278Q555 286 573 292T627 307Q629 265 629 227T635 149Q638 123 657 119T701 114H720Q731 114 737 102T744 75Q744 65 742 52T737 28T730 8T720 0H708Z"  />
<glyph unicode="&#x62A;" arabic-form="isolated" horiz-adv-x="677" d="M158 0Q134 0 109 9T62 36T28 83T14 150Q14 173 24 197T43 231Q46 233 59 237T88 247T117 256T133 260L137 256Q120 233 113 214T105 175Q105 168 107 158T119 138T145 121T194 114H501Q526 114 526 130Q526 160 515 190T490 251Q497 256 512 264T544 280T577 296T602 307Q632 256 642 234T653 208Q653 203 639 190T611 168Q613 159 614 143T616 120V101Q615 89 607 72T588 38T566 11T547 0H158ZM251 491L320 431L371 495L457 423Q455 421 447 409T429 382T406 355T384 342Q380 342 360 355T316 387Q305 369 291 355T266 338Q263 338 253 343T231 358T205 377T180 399L251 491Z"  />
<glyph unicode="&#x62B;" arabic-form="initial" horiz-adv-x="375" d="M167 593L247 527L224 498Q213 483 201 470T182 454Q179 454 170 460T148 474T124 492T102 510L167 593ZM252 486L332 420L311 390Q301 375 289 362T267 346Q263 346 254 351T234 365T210 383T187 403L252 486ZM95 470L173 405Q170 401 163 390T148 366T130 343T111 331Q107 331 98 336T78 350T53 368T30 388L95 470ZM-1 0Q-6 0 -14 7T-30 24T-44 47T-50 71Q-50 85 -40 99T-1 114H190Q215 114 215 130Q215 160 204 190T179 251Q186 256 201 264T233 280T266 296T291 307Q321 256 331 234T342 208Q342 203 328 190T300 168Q302 159 303 143T305 120V101Q304 89 296 72T277 38T255 11T236 0H-1Z"  />
<glyph unicode="&#x62B;" arabic-form="medial" horiz-adv-x="363" d="M164 593L244 527L221 498Q210 483 198 470T179 454Q176 454 167 460T145 474T121 492T99 510L164 593ZM249 486L329 420L308 390Q298 375 286 362T264 346Q260 346 251 351T231 365T207 383T184 403L249 486ZM92 470L170 405Q167 401 160 390T145 366T127 343T108 331Q104 331 95 336T75 350T50 368T27 388L92 470ZM351 0Q291 0 249 56Q235 33 215 17T184 0H0Q-4 0 -12 7T-27 25T-41 49T-47 73Q-47 87 -34 100T0 114H147Q168 114 173 121T179 136Q179 148 176 163T169 194T162 225T157 255Q157 264 161 268T180 278Q198 286 216 292T270 307Q272 265 272 227T278 149Q281 123 300 119T344 114H363Q374 114 380 101T387 76Q387 63 385 50T379 25T371 7T363 0H351Z"  />
<glyph unicode="&#x62B;" arabic-form="terminal" horiz-adv-x="720" d="M306 597L386 531L363 502Q352 487 340 474T321 458Q318 458 309 464T287 478T263 496T241 514L306 597ZM391 490L471 424L450 394Q440 379 428 366T406 350Q402 350 393 355T373 369T349 387T326 407L391 490ZM234 474L312 409Q309 405 302 394T287 370T269 347T250 335Q246 335 237 340T217 354T192 372T169 392L234 474ZM708 0Q648 0 606 56Q592 33 572 17T541 0H159Q135 0 110 9T63 36T29 83T15 150Q15 173 25 197T44 231Q47 233 60 237T89 247T118 256T134 260L138 256Q121 233 114 214T106 175Q106 168 108 158T120 138T146 121T195 114H510Q527 114 531 121T536 136Q536 148 533 163T526 194T519 225T514 255Q514 264 518 268T537 278Q555 286 573 292T627 307Q629 265 629 227T635 149Q638 123 657 119T701 114H720Q731 114 737 102T744 75Q744 65 742 52T737 28T730 8T720 0H708Z"  />
<glyph unicode="&#x62B;" arabic-form="isolated" horiz-adv-x="677" d="M303 597L383 531L360 502Q349 487 337 474T318 458Q315 458 306 464T284 478T260 496T238 514L303 597ZM388 490L468 424L447 394Q437 379 425 366T403 350Q399 350 390 355T370 369T346 387T323 407L388 490ZM231 474L309 409Q306 405 299 394T284 370T266 347T247 335Q243 335 234 340T214 354T189 372T166 392L231 474ZM158 0Q134 0 109 9T62 36T28 83T14 150Q14 173 24 197T43 231Q46 233 59 237T88 247T117 256T133 260L137 256Q120 233 113 214T105 175Q105 168 107 158T119 138T145 121T194 114H501Q526 114 526 130Q526 160 515 190T490 251Q497 256 512 264T544 280T577 296T602 307Q632 256 642 234T653 208Q653 203 639 190T611 168Q613 159 614 143T616 120V101Q615 89 607 72T588 38T566 11T547 0H158Z"  />
<glyph unicode="&#x62C;" arabic-form="initial" horiz-adv-x="465" d="M204 -61L298 -141Q296 -144 286 -155T264 -179T240 -202T222 -214Q218 -214 209 -209T188 -195T164 -176T141 -157L133 -150L204 -61ZM0 0Q-2 0 -8 6T-23 23T-37 46T-43 72Q-43 93 -31 103T0 114H345Q305 173 250 194T135 215Q113 215 96 211T62 194L57 198Q62 228 75 252T104 293T140 319T176 329Q189 329 217 318T279 287T347 236T408 168Q422 148 428 135T435 116Q435 114 426 96T406 56T383 18T366 0H0Z"  />
<glyph unicode="&#x62C;" arabic-form="medial" horiz-adv-x="477" d="M204 -61L298 -141Q296 -144 286 -155T264 -179T240 -202T222 -214Q218 -214 209 -209T188 -195T164 -176T141 -157L133 -150L204 -61ZM0 0Q-3 0 -8 9T-19 31T-28 58T-32 85Q-32 114 0 114H345Q305 173 250 194T135 215Q113 215 96 211T62 194L57 198Q62 228 75 252T104 293T140 319T176 329Q189 329 217 318T279 287T348 236T409 168Q434 131 434 114H477Q491 114 496 102T501 73Q501 65 500 53T495 29T488 9T477 0H0Z"  />
<glyph unicode="&#x62C;" arabic-form="terminal" horiz-adv-x="486" d="M305 -39L371 -96Q370 -98 363 -107T348 -128T332 -149T321 -160Q318 -160 311 -155T293 -141T273 -125T253 -109L305 -39ZM217 0Q103 0 103 -45Q103 -62 117 -86T158 -135T227 -177T324 -200L331 -205Q300 -230 261 -252T175 -275Q158 -275 132 -257T80 -207T36 -134T17 -49Q17 30 66 72T206 114H355Q315 173 260 194T145 215Q123 215 106 211T72 194L67 198Q72 228 85 252T114 293T150 319T186 329Q199 329 227 318T289 287T357 236T418 168Q432 148 438 134T445 114H486Q498 114 504 99T510 71Q510 59 508 47T502 24T494 7T486 0H217Z"  />
<glyph unicode="&#x62C;" arabic-form="isolated" horiz-adv-x="480" d="M305 -39L371 -96Q370 -98 363 -107T348 -128T332 -149T321 -160Q318 -160 311 -155T293 -141T273 -125T253 -109L305 -39ZM217 0Q103 0 103 -45Q103 -62 117 -86T158 -135T227 -177T324 -200L331 -205Q300 -230 261 -252T175 -275Q158 -275 132 -257T80 -207T36 -134T17 -49Q17 30 66 72T206 114H355Q315 173 260 194T145 215Q123 215 106 211T72 194L67 198Q72 228 85 252T114 293T150 319T186 329Q199 329 227 318T289 287T357 236T418 168Q432 148 438 135T445 116Q445 114 437 96T417 56T394 18T377 0H217Z"  />
<glyph unicode="&#x62D;" arabic-form="initial" horiz-adv-x="468" d="M0 0Q-2 0 -7 8T-19 28T-29 53T-34 76Q-34 98 -27 106T0 114H345Q305 173 250 194T135 215Q113 215 96 211T62 194L57 198Q62 228 75 252T104 293T140 319T176 329Q189 329 217 318T279 287T347 236T408 168Q422 148 428 135T435 116Q435 114 426 96T406 56T383 18T366 0H0Z"  />
<glyph unicode="&#x62D;" arabic-form="medial" horiz-adv-x="477" d="M0 0Q-3 0 -8 9T-19 31T-28 58T-32 85Q-32 114 0 114H345Q305 173 250 194T135 215Q113 215 96 211T62 194L57 198Q62 228 75 252T104 293T140 319T176 329Q189 329 217 318T279 287T348 236T409 168Q434 131 434 114H477Q491 114 496 102T501 73Q501 65 500 53T495 29T488 9T477 0H0Z"  />
<glyph unicode="&#x62D;" arabic-form="terminal" horiz-adv-x="486" d="M217 0Q103 0 103 -45Q103 -62 117 -86T158 -135T227 -177T324 -200L331 -205Q300 -230 261 -252T175 -275Q158 -275 132 -257T80 -207T36 -134T17 -49Q17 30 66 72T206 114H355Q315 173 260 194T145 215Q123 215 106 211T72 194L67 198Q72 228 85 252T114 293T150 319T186 329Q199 329 227 318T289 287T357 236T418 168Q432 148 438 134T445 114H486Q498 114 504 99T510 71Q510 59 508 47T502 24T494 7T486 0H217Z"  />
<glyph unicode="&#x62D;" arabic-form="isolated" horiz-adv-x="470" d="M217 0Q103 0 103 -45Q103 -62 117 -86T158 -135T227 -177T324 -200L331 -205Q300 -230 261 -252T175 -275Q158 -275 132 -257T80 -207T36 -134T17 -49Q17 30 66 72T206 114H355Q315 173 260 194T145 215Q123 215 106 211T72 194L67 198Q72 228 85 252T114 293T150 319T186 329Q199 329 227 318T289 287T357 236T418 168Q432 148 438 135T445 116Q445 114 437 96T417 56T394 18T377 0H217H217Z"  />
<glyph unicode="&#x62E;" arabic-form="initial" horiz-adv-x="453" d="M197 543L291 463Q289 460 279 449T257 425T233 402T215 390Q211 390 202 395T181 409T157 428T134 447L126 454L197 543ZM0 0Q-3 0 -18 15T-43 72Q-39 114 0 114H345Q305 173 250 194T135 215Q113 215 96 211T62 194L57 198Q62 228 75 252T104 293T140 319T176 329Q189 329 217 318T279 287T347 236T408 168Q422 148 428 135T435 116Q435 114 426 96T406 56T383 18T366 0H0Z"  />
<glyph unicode="&#x62E;" arabic-form="medial" horiz-adv-x="477" d="M197 543L291 463Q289 460 279 449T257 425T233 402T215 390Q211 390 202 395T181 409T157 428T134 447L126 454L197 543ZM0 0Q-3 0 -8 9T-19 31T-28 58T-32 85Q-32 114 0 114H345Q305 173 250 194T135 215Q113 215 96 211T62 194L57 198Q62 228 75 252T104 293T140 319T176 329Q189 329 217 318T279 287T348 236T409 168Q434 131 434 114H477Q491 114 496 102T501 73Q501 65 500 53T495 29T488 9T477 0H0Z"  />
<glyph unicode="&#x62E;" arabic-form="terminal" horiz-adv-x="486" d="M207 543L301 463Q299 460 289 449T267 425T243 402T225 390Q221 390 212 395T191 409T167 428T144 447L136 454L207 543ZM217 0Q103 0 103 -45Q103 -62 117 -86T158 -135T227 -177T324 -200L331 -205Q300 -230 261 -252T175 -275Q158 -275 132 -257T80 -207T36 -134T17 -49Q17 30 66 72T206 114H355Q315 173 260 194T145 215Q123 215 106 211T72 194L67 198Q72 228 85 252T114 293T150 319T186 329Q199 329 227 318T289 287T357 236T418 168Q432 148 438 134T445 114H486Q498 114 504 99T510 71Q510 59 508 47T502 24T494 7T486 0H217Z"  />
<glyph unicode="&#x62E;" arabic-form="isolated" horiz-adv-x="470" d="M207 543L301 463Q299 460 289 449T267 425T243 402T225 390Q221 390 212 395T191 409T167 428T144 447L136 454L207 543ZM217 0Q103 0 103 -45Q103 -62 117 -86T158 -135T227 -177T324 -200L331 -205Q300 -230 261 -252T175 -275Q158 -275 132 -257T80 -207T36 -134T17 -49Q17 30 66 72T206 114H355Q315 173 260 194T145 215Q123 215 106 211T72 194L67 198Q72 228 85 252T114 293T150 319T186 329Q199 329 227 318T289 287T357 236T418 168Q432 148 438 135T445 116Q445 114 437 96T417 56T394 18T377 0H217Z"  />
<glyph unicode="&#x62F;" arabic-form="terminal" horiz-adv-x="388" d="M79 257Q85 280 97 297T124 327T154 345T181 351Q203 351 229 331T279 278T319 202T338 114H388Q399 114 405 100T412 75Q412 65 410 52T405 28T397 8T388 0H290Q287 0 275 0T247 -1T215 -2T188 -3Q140 -3 111 1T65 10T41 22T29 33Q22 42 22 62Q23 79 25 93T32 118Q36 129 41 138Q42 138 44 139Q48 141 48 141Q55 133 72 127T109 116T149 110T182 108Q210 108 225 109T249 114Q249 145 229 171T182 216T126 246T79 257Z"  />
<glyph unicode="&#x62F;" arabic-form="isolated" horiz-adv-x="380" d="M79 257Q85 280 97 297T124 327T154 345T181 351Q203 351 230 330T282 274T322 194T338 103V79Q335 67 330 55T317 33T303 14T290 0Q287 0 275 0T247 -1T215 -2T188 -3Q140 -3 111 1T65 10T41 22T29 33Q22 42 22 62Q23 79 25 93T32 118Q36 129 41 138Q42 138 44 139Q48 141 48 141Q55 133 72 127T109 116T149 110T182 108Q210 108 225 109T249 114Q249 145 229 171T182 216T126 246T79 257Z"  />
<glyph unicode="&#x630;" arabic-form="terminal" horiz-adv-x="388" d="M158 579L252 499Q250 496 240 485T218 461T194 438T176 426Q171 426 161 433T137 450T111 471T87 490L158 579ZM79 257Q85 280 97 297T124 327T154 345T181 351Q203 351 229 331T279 278T319 202T338 114H388Q399 114 405 100T412 75Q412 65 410 52T405 28T397 8T388 0H290Q287 0 275 0T247 -1T215 -2T188 -3Q140 -3 111 1T65 10T41 22T29 33Q22 42 22 62Q23 79 25 93T32 118Q36 129 41 138Q42 138 44 139Q48 141 48 141Q55 133 72 127T109 116T149 110T182 108Q210 108 225 109T249 114Q249 145 229 171T182 216T126 246T79 257Z"  />
<glyph unicode="&#x630;" arabic-form="isolated" horiz-adv-x="380" d="M165 579L259 499Q257 496 247 485T225 461T201 438T183 426Q179 426 170 431T149 445T125 464T102 483L94 490L165 579ZM79 257Q85 280 97 297T124 327T154 345T181 351Q203 351 230 330T282 274T322 194T338 103V79Q335 67 330 55T317 33T303 14T290 0Q287 0 275 0T247 -1T215 -2T188 -3Q140 -3 111 1T65 10T41 22T29 33Q22 42 22 62Q23 79 25 93T32 118Q36 129 41 138Q42 138 44 139Q48 141 48 141Q55 133 72 127T109 116T149 110T182 108Q210 108 225 109T249 114Q249 145 229 171T182 216T126 246T79 257Z"  />
<glyph unicode="&#x631;" arabic-form="terminal" horiz-adv-x="265" d="M180 310Q193 279 202 241T217 156Q221 119 258 114H265Q278 114 283 99T289 70Q289 60 287 48T282 25T275 7T265 0H258Q250 0 241 13T220 51Q217 7 206 -37T177 -118T140 -176T99 -199Q84 -199 62 -192T17 -175T-25 -154T-55 -134L-51 -129Q-12 -129 23 -114T85 -74T127 -16T143 53Q143 68 139 91T125 140T102 194T70 248Q97 266 120 279T180 310Z"  />
<glyph unicode="&#x631;" arabic-form="isolated" horiz-adv-x="268" d="M180 310Q198 267 209 209T221 74Q221 28 210 -20T182 -108T142 -173T99 -199Q84 -199 62 -192T17 -175T-25 -154T-55 -134L-51 -129Q-12 -129 23 -114T85 -74T127 -16T143 53Q143 68 139 91T125 140T102 194T70 248Q97 266 120 279T180 310Z"  />
<glyph unicode="&#x632;" arabic-form="terminal" horiz-adv-x="265" d="M115 525L209 445Q207 442 197 431T175 407T151 384T133 372Q129 372 120 377T99 391T75 410T52 429L44 436L115 525ZM180 310Q193 279 202 241T217 156Q221 119 258 114H265Q278 114 283 99T289 70Q289 60 287 48T282 25T275 7T265 0H258Q250 0 241 13T220 51Q217 7 206 -37T177 -118T140 -176T99 -199Q84 -199 62 -192T17 -175T-25 -154T-55 -134L-51 -129Q-12 -129 23 -114T85 -74T127 -16T143 53Q143 68 139 91T125 140T102 194T70 248Q97 266 120 279T180 310Z"  />
<glyph unicode="&#x632;" arabic-form="isolated" horiz-adv-x="258" d="M115 525L209 445Q207 442 197 431T175 407T151 384T133 372Q129 372 120 377T99 391T75 410T52 429L44 436L115 525ZM180 310Q198 267 209 209T221 74Q221 28 210 -20T182 -108T142 -173T99 -199Q84 -199 62 -192T17 -175T-25 -154T-55 -134L-51 -129Q-12 -129 23 -114T85 -74T127 -16T143 53Q143 68 139 91T125 140T102 194T70 248Q97 266 120 279T180 310Z"  />
<glyph unicode="&#x633;" arabic-form="initial" horiz-adv-x="646" d="M0 0Q-8 0 -14 7T-25 25T-32 48T-35 73Q-35 92 -25 103T0 114H113Q107 135 101 154T94 181Q94 182 108 190T140 209T176 230T204 244Q207 234 210 219T217 186T224 153T230 125Q231 118 242 116T267 113Q272 113 276 113T286 114Q302 116 314 121T327 132Q327 156 323 178T315 219Q350 236 381 244T430 257Q430 241 430 225T431 190Q431 175 432 162T440 138T456 121T485 114Q495 114 508 118T521 128Q521 151 513 180T498 226Q521 239 552 250T608 265Q615 240 616 220T617 182Q617 134 604 97T571 35T530 -2T493 -15Q464 -15 436 4T385 60L381 59Q368 30 345 10T299 -13Q254 -13 213 3T154 49Q154 46 151 38T143 21T133 7T125 0H0Z"  />
<glyph unicode="&#x633;" arabic-form="medial" horiz-adv-x="714" d="M0 0Q-10 0 -22 19T-35 73Q-35 94 -25 104T0 114H113Q107 135 101 154T94 181Q94 182 108 190T140 209T176 230T204 244Q207 234 210 219T217 186T224 153T230 125Q231 118 242 116T267 113Q272 113 276 113T286 114Q302 116 314 121T327 132Q327 156 323 178T315 219Q350 236 381 244T430 257Q430 241 430 225T431 190Q431 175 432 162T440 138T456 121T485 114Q495 114 508 118T521 128Q521 151 513 180T498 226Q521 239 552 250T608 265L610 257Q615 232 616 216T620 181Q624 154 632 134T662 114H714Q724 114 731 102T738 75Q738 60 736 47T729 23T721 6T714 0H661Q653 0 643 1T621 6T599 21T579 49Q559 17 535 1T493 -15Q464 -15 436 4T385 60L381 59Q368 30 345 10T299 -13Q254 -13 213 3T154 49Q154 46 151 38T143 21T133 7T125 0H0Z"  />
<glyph unicode="&#x633;" arabic-form="terminal" horiz-adv-x="907" d="M816 265Q823 240 824 220T825 182Q825 164 823 146T818 114H907Q921 114 926 101T931 65Q931 55 929 44T924 23T916 7T907 0H848Q837 0 830 6T819 20L798 64Q788 46 775 31T749 6T724 -9T701 -15Q672 -15 644 4T593 60L589 59Q576 30 553 12T507 -8Q481 -8 462 4T435 26V7Q435 -4 417 -30T366 -84T285 -133T179 -154Q144 -154 114 -144T61 -114T25 -67T12 -7Q12 4 14 19T21 50T32 84T47 116Q63 122 79 127T108 135T129 140T139 142V141Q139 141 141 137Q124 99 117 69T109 32Q109 0 143 -20T232 -40Q286 -40 311 -32T341 -16Q343 -13 344 -9T346 3Q346 21 339 49T323 105T307 154T300 181Q300 182 314 190T346 209T382 230T410 244Q413 234 416 219T423 186T430 153T436 125Q437 118 449 116T475 113Q482 113 492 114T511 118T528 123T535 132Q535 156 531 178T523 219Q558 236 589 244T638 257Q638 241 638 225T639 190Q639 175 640 162T648 138T664 121T693 114Q703 114 716 118T729 128Q729 151 721 180T706 226Q729 239 760 250T816 265Z"  />
<glyph unicode="&#x633;" arabic-form="isolated" horiz-adv-x="846" d="M816 265Q823 240 824 220T825 182Q825 134 812 97T779 35T738 -2T701 -15Q672 -15 644 4T593 60L589 59Q576 30 553 12T507 -8Q481 -8 462 4T435 26V7Q435 -4 417 -30T366 -84T285 -133T179 -154Q144 -154 114 -144T61 -114T25 -67T12 -7Q12 4 14 19T21 50T32 84T47 116Q63 122 79 127T108 135T129 140T139 142Q140 141 140 140Q140 138 124 99Q124 99 117 69T109 32Q109 0 143 -20T232 -40Q286 -40 311 -32T341 -16Q343 -13 344 -9T346 3Q346 21 339 49T323 105T307 154T300 181Q300 182 314 190T346 209T382 230T410 244Q413 234 416 219T423 186T430 153T436 125Q437 118 449 116T475 113Q480 113 484 113T494 114Q510 116 522 121T535 132Q535 156 531 178T523 219Q558 236 589 244T638 257Q639 241 639 225T639 190Q639 175 640 162T648 138T664 121T693 114Q703 114 716 118T729 128Q729 151 721 180T706 226Q729 239 760 250T816 265Z"  />
<glyph unicode="&#x634;" arabic-form="initial" horiz-adv-x="653" d="M285 585L365 519Q362 516 354 505T337 482T317 458T301 446Q298 446 289 452T267 466T242 484T220 502L285 585ZM370 477L450 412Q447 407 439 396T422 372T403 350T386 338Q382 338 373 343T353 357T329 375T305 394L370 477ZM214 462L292 397Q289 393 282 382T267 358T249 335T230 323Q226 323 217 328T196 342T172 360T149 379L214 462ZM0 0Q-8 0 -14 7T-25 25T-32 48T-35 73Q-35 92 -25 103T0 114H113Q107 135 101 154T94 181Q94 182 108 190T140 209T176 230T204 244Q207 234 210 219T217 186T224 153T230 125Q231 118 242 116T267 113Q272 113 276 113T286 114Q302 116 314 121T327 132Q327 156 323 178T315 219Q350 236 381 244T430 257Q430 241 430 225T431 190Q431 175 432 162T440 138T456 121T485 114Q495 114 508 118T521 128Q521 151 513 180T498 226Q521 239 552 250T608 265Q615 240 616 220T617 182Q617 134 604 97T571 35T530 -2T493 -15Q464 -15 436 4T385 60L381 59Q368 30 345 10T299 -13Q254 -13 213 3T154 49Q154 46 151 38T143 21T133 7T125 0H0Z"  />
<glyph unicode="&#x634;" arabic-form="medial" horiz-adv-x="714" d="M285 585L365 519Q362 516 354 505T337 482T317 458T301 446Q298 446 289 452T267 466T242 484T220 502L285 585ZM370 477L450 412Q447 407 439 396T422 372T403 350T386 338Q382 338 373 343T353 357T329 375T305 394L370 477ZM214 462L292 397Q289 393 282 382T267 358T249 335T230 323Q226 323 217 328T196 342T172 360T149 379L214 462ZM0 0Q-10 0 -22 19T-35 73Q-35 94 -25 104T0 114H113Q107 135 101 154T94 181Q94 182 108 190T140 209T176 230T204 244Q207 234 210 219T217 186T224 153T230 125Q231 118 242 116T267 113Q272 113 276 113T286 114Q302 116 314 121T327 132V140Q327 157 324 176T316 213Q315 217 315 219Q350 236 381 244T430 257Q430 241 430 225T431 190Q431 175 432 162T440 138T456 121T485 114Q495 114 508 118T521 128Q521 151 513 180T498 226Q521 239 552 250T608 265L610 257Q615 232 616 216T620 181Q624 154 632 134T662 114H714Q724 114 731 102T738 75Q738 60 736 47T729 23T721 6T714 0H661Q653 0 643 1T621 6T599 21T579 49Q559 17 535 1T493 -15Q464 -15 436 4T385 60L381 59Q368 30 345 10T299 -13Q254 -13 213 3T154 49Q154 46 151 38T143 21T133 7T125 0H0Z"  />
<glyph unicode="&#x634;" arabic-form="terminal" horiz-adv-x="906" d="M536 585L616 519Q613 516 605 505T588 482T568 458T552 446Q549 446 539 452T517 466T493 484T471 502L536 585ZM621 477L701 412Q698 407 690 396T673 372T654 350T637 338Q633 338 624 343T603 357T579 375T556 394L621 477ZM465 462L543 397Q541 393 534 382T518 358T498 335T480 323Q476 323 467 328T446 342T422 360T400 379L465 462ZM816 265Q823 240 824 220T825 182Q825 164 823 146T818 114H907Q921 114 926 101T931 65Q931 55 929 44T924 23T916 7T907 0H848Q837 0 830 6T819 20L798 64Q788 46 775 31T749 6T724 -9T701 -15Q672 -15 644 4T593 60L589 59Q576 30 553 12T507 -8Q481 -8 462 4T435 26V7Q435 -4 417 -30T366 -84T285 -133T179 -154Q144 -154 114 -144T61 -114T25 -67T12 -7Q12 4 14 19T21 50T32 84T47 116Q63 122 79 127T108 135T129 140T139 142V141Q139 141 141 137Q124 99 117 69T109 32Q109 0 143 -20T232 -40Q286 -40 311 -32T341 -16Q343 -13 344 -9T346 3Q346 21 339 49T323 105T307 154T300 181Q300 182 314 190T346 209T382 230T410 244Q413 234 416 219T423 186T430 153T436 125Q437 118 449 116T475 113Q482 113 492 114T511 118T528 123T535 132Q535 156 531 178T523 219Q558 236 589 244T638 257Q638 241 638 225T639 190Q639 175 640 162T648 138T664 121T693 114Q703 114 716 118T729 128Q729 151 721 180T706 226Q729 239 760 250T816 265Z"  />
<glyph unicode="&#x634;" arabic-form="isolated" horiz-adv-x="855" d="M536 585L616 519Q613 516 605 505T588 482T568 458T552 446Q549 446 539 452T517 466T493 484T471 502L536 585ZM621 477L701 412Q698 407 690 396T673 372T654 350T637 338Q633 338 624 343T603 357T579 375T556 394L621 477ZM465 462L543 397Q541 393 534 382T518 358T498 335T480 323Q476 323 467 328T446 342T422 360T400 379L465 462ZM816 265Q823 240 824 220T825 182Q825 134 812 97T779 35T738 -2T701 -15Q672 -15 644 4T593 60L589 59Q576 30 553 12T507 -8Q481 -8 462 4T435 26V7Q435 -4 417 -30T366 -84T285 -133T179 -154Q144 -154 114 -144T61 -114T25 -67T12 -7Q12 4 14 19T21 50T32 84T47 116Q63 122 79 127T108 135T129 140T139 142V141Q139 141 141 137Q124 99 117 69T109 32Q109 0 143 -20T232 -40Q286 -40 311 -32T341 -16Q343 -13 344 -9T346 3Q346 21 339 49T323 105T307 154T300 181Q300 182 314 190T346 209T382 230T410 244Q413 234 416 219T423 186T430 153T436 125Q437 118 449 116T475 113Q480 113 484 113T494 114Q510 116 522 121T535 132Q535 156 531 178T523 219Q558 236 589 244T638 257Q638 241 638 225T639 190Q639 175 640 162T648 138T664 121T693 114Q703 114 716 118T729 128Q729 151 721 180T706 226Q729 239 760 250T816 265Z"  />
<glyph unicode="&#x635;" arabic-form="initial" horiz-adv-x="702" d="M216 114Q252 186 296 230T384 299T465 332T525 341Q559 341 584 326T626 282T651 214T660 127Q660 113 658 97T652 63T642 30T626 0H0Q-17 0 -27 20T-38 73Q-38 96 -28 105T0 114H92Q89 133 86 146T78 168T71 184T64 197Q69 204 84 215T116 236T147 255T164 263Q170 264 176 236T188 158Q190 143 190 132T190 114H216ZM564 114Q566 119 566 122T566 131Q566 145 563 161T551 191T530 214T497 224Q480 224 462 221T419 206T364 173T293 114H564Z"  />
<glyph unicode="&#x635;" arabic-form="medial" horiz-adv-x="718" d="M564 114Q566 119 566 122T566 131Q566 145 563 161T551 191T530 214T497 224Q480 224 462 221T419 206T364 173T293 114H564ZM216 114Q252 186 296 230T384 299T465 332T525 341Q559 341 584 326T626 282T651 214T660 127Q660 124 660 121T659 114H718Q731 114 736 102T742 72Q742 60 740 47T735 24T728 7T718 0H0Q-6 0 -12 10T-22 33T-29 58T-32 73Q-32 90 -27 102T0 114H92Q89 133 86 146T78 168T71 184T64 197Q69 204 84 215T116 236T147 255T164 263Q170 264 176 236T188 158Q190 143 190 132T190 114H216Z"  />
<glyph unicode="&#x635;" arabic-form="terminal" horiz-adv-x="985" d="M841 114Q843 119 843 122T843 131Q843 145 840 161T828 191T807 214T774 224Q757 224 739 221T696 206T641 173T570 114H841ZM494 114Q530 186 574 230T662 299T743 332T803 341Q837 341 862 326T904 282T929 214T938 127V114H985Q993 114 1001 104T1009 76Q1009 64 1007 51T1002 27T994 8T985 0H472Q470 -3 469 -6T466 -13Q455 -36 431 -60T371 -105T289 -139T187 -153Q135 -153 103 -137T52 -97T27 -48T20 -3Q20 47 33 76T57 120Q63 123 76 127T102 136T126 143T140 146L144 143Q124 110 115 86T105 44Q105 35 108 21T123 -8T160 -33T229 -43Q257 -43 285 -36T336 -18T375 4T392 21Q394 26 394 32T394 45Q391 63 388 75T382 99T374 120T362 143Q353 160 347 171T341 187Q341 190 355 200T387 220T419 239T436 248Q445 244 464 159Q466 153 467 141T470 114H494Z"  />
<glyph unicode="&#x635;" arabic-form="isolated" horiz-adv-x="985" d="M494 114Q530 186 574 230T662 299T743 332T803 341Q837 341 862 326T904 282T929 214T938 127Q938 113 936 97T930 63T920 30T904 0H472Q470 -3 469 -6T466 -13Q455 -36 431 -60T371 -105T289 -139T187 -153Q135 -153 103 -137T52 -97T27 -48T20 -3Q20 47 33 76T57 120Q63 123 76 127T102 136T126 143T140 146L144 143Q124 110 115 86T105 44Q105 35 108 21T123 -8T160 -33T229 -43Q257 -43 285 -36T336 -18T375 4T392 21Q394 26 394 32T394 45Q391 63 388 75T382 99T374 120T362 143Q353 160 347 171T341 187Q341 190 355 200T387 220T419 239T436 248Q445 244 464 159Q466 153 467 141T470 114H494ZM841 114Q843 119 843 122T843 131Q843 145 840 161T828 191T807 214T774 224Q757 224 739 221T696 206T641 173T570 114H841Z"  />
<glyph unicode="&#x636;" arabic-form="initial" horiz-adv-x="716" d="M216 114Q252 186 296 230T384 299T465 332T525 341Q559 341 584 326T626 282T651 214T660 127Q660 113 658 97T652 63T642 30T626 0H0Q-8 0 -13 7T-23 25T-30 49T-32 75Q-32 91 -24 102T0 114H92Q89 133 86 146T78 168T71 184T64 197Q69 204 84 215T116 236T147 255T164 263Q170 264 176 236T188 158Q190 143 190 132T190 114H216ZM321 529L415 449Q413 446 403 435T381 411T357 388T339 376Q335 376 326 381T305 395T281 414T258 433L250 440L321 529ZM564 114Q566 119 566 122T566 131Q566 145 563 161T551 191T530 214T497 224Q480 224 462 221T419 206T364 173T293 114H564Z"  />
<glyph unicode="&#x636;" arabic-form="medial" horiz-adv-x="718" d="M216 114Q252 186 296 230T384 299T465 332T525 341Q559 341 584 326T626 282T651 214T660 127Q660 124 660 121T659 114H718Q731 114 736 101T742 67Q742 56 740 44T735 22T727 6T718 0H0Q-6 0 -12 10T-22 33T-29 58T-32 73Q-32 90 -27 102T0 114H92Q89 133 86 146T78 168T71 184T64 197Q69 204 84 215T116 236T147 255T164 263Q168 263 172 248T181 209T187 159T190 114H216ZM321 529L415 449Q413 446 403 435T381 411T357 388T339 376Q335 376 326 381T305 395T281 414T258 433L250 440L321 529ZM564 114Q566 119 566 122T566 131Q566 145 563 161T551 191T530 214T497 224Q480 224 462 221T419 206T364 173T293 114H564Z"  />
<glyph unicode="&#x636;" arabic-form="terminal" horiz-adv-x="985" d="M599 529L693 449Q691 446 681 435T659 411T635 388T617 376Q613 376 604 381T583 395T559 414T536 433L528 440L599 529ZM841 114Q843 119 843 122T843 131Q843 145 840 161T828 191T807 214T774 224Q757 224 739 221T696 206T641 173T570 114H841ZM494 114Q530 186 574 230T662 299T743 332T803 341Q837 341 862 326T904 282T929 214T938 127V114H985Q993 114 1001 104T1009 76Q1009 64 1007 51T1002 27T994 8T985 0H472Q470 -3 469 -6T466 -13Q455 -36 431 -60T371 -105T289 -139T187 -153Q135 -153 103 -137T52 -97T27 -48T20 -3Q20 47 33 76T57 120Q63 123 76 127T102 136T126 143T140 146L144 143Q124 110 115 86T105 44Q105 35 108 21T123 -8T160 -33T229 -43Q257 -43 285 -36T336 -18T375 4T392 21Q394 26 394 32T394 45Q391 63 388 75T382 99T374 120T362 143Q353 160 347 171T341 187Q341 190 355 200T387 220T419 239T436 248Q445 244 464 159Q466 153 467 141T470 114H494Z"  />
<glyph unicode="&#x636;" arabic-form="isolated" horiz-adv-x="985" d="M599 529L693 449Q691 446 681 435T659 411T635 388T617 376Q613 376 604 381T583 395T559 414T536 433L528 440L599 529ZM494 114Q530 186 574 230T662 299T743 332T803 341Q837 341 862 326T904 282T929 214T938 127Q938 113 936 97T930 63T920 30T904 0H472Q470 -3 469 -6T466 -13Q455 -36 431 -60T371 -105T289 -139T187 -153Q135 -153 103 -137T52 -97T27 -48T20 -3Q20 47 33 76T57 120Q63 123 76 127T102 136T126 143T140 146L144 143Q124 110 115 86T105 44Q105 35 108 21T123 -8T160 -33T229 -43Q257 -43 285 -36T336 -18T375 4T392 21Q394 26 394 32T394 45Q391 63 388 75T382 99T374 120T362 143Q353 160 347 171T341 187Q341 190 355 200T387 220T419 239T436 248Q445 244 464 159Q466 153 467 141T470 114H494ZM841 114Q843 119 843 122T843 131Q843 145 840 161T828 191T807 214T774 224Q757 224 739 221T696 206T641 173T570 114H841Z"  />
<glyph unicode="&#x637;" arabic-form="initial" horiz-adv-x="667" d="M110 114Q110 133 109 162T105 224T101 292T96 360T91 421T86 469Q100 479 126 494T185 526Q209 491 223 461T240 408Q240 403 233 396T218 381T204 370T199 366Q199 364 199 350T200 316T201 272T203 227T204 190T205 168Q241 222 281 256T360 309T430 334T483 341Q517 341 542 326T584 282T609 214T618 127Q618 113 616 97T610 63T600 30T584 0H-1Q-9 0 -15 10T-26 33T-34 58T-37 74Q-37 85 -29 99T-1 114H110ZM521 114Q523 119 523 122T523 131Q523 145 520 161T508 191T487 214T454 224Q437 224 417 221T370 206T312 173T239 114H521Z"  />
<glyph unicode="&#x637;" arabic-form="medial" horiz-adv-x="678" d="M109 114Q109 133 108 162T104 224T100 292T95 360T90 421T85 469Q99 479 125 494T184 526Q208 491 222 461T239 408Q239 403 232 396T217 381T203 370T198 366Q198 364 198 350T199 316T200 272T202 227T203 190T204 168Q240 222 280 256T359 309T429 334T482 341Q516 341 541 326T583 282T608 214T617 127V114H678Q690 114 696 101T702 74Q702 64 700 52T694 28T686 8T678 0H0Q-12 0 -19 9T-30 32T-35 57T-37 75Q-36 89 -31 101T0 114H109ZM520 114Q522 119 522 122T522 131Q522 145 519 161T507 191T486 214T453 224Q436 224 416 221T369 206T311 173T238 114H520Z"  />
<glyph unicode="&#x637;" arabic-form="terminal" horiz-adv-x="728" d="M570 114L572 131Q572 144 569 160T557 191T536 214T503 224Q486 224 466 221T419 206T361 173T288 114H570ZM159 114Q159 143 157 191T150 292T142 392T135 469Q149 479 175 494T234 526Q257 492 273 461T289 407Q289 402 283 396T268 382L248 366Q248 364 248 350T249 316T251 272T252 227T253 189T254 168Q290 222 330 256T409 309T479 334T532 341Q566 341 591 326T633 282T658 214T667 127Q667 117 666 114H728Q740 114 746 101T752 73Q752 63 750 51T745 27T737 8T728 0H140Q92 0 63 31T33 124V147L37 152Q54 137 79 127T127 114H159Z"  />
<glyph unicode="&#x637;" arabic-form="isolated" horiz-adv-x="700" d="M159 114Q159 143 157 191T150 292T142 392T135 469Q149 479 175 494T234 526Q257 492 273 461T289 407Q289 402 283 396T268 382L248 366Q248 364 248 350T249 316T251 272T252 227T253 189T254 168Q290 222 330 256T409 309T479 334T532 341Q566 341 591 326T633 282T658 214T667 127Q667 113 665 97T659 63T649 30T633 0H140Q92 0 63 31T33 124V147L37 152Q54 137 79 127T127 114H159ZM570 114L572 131Q572 144 569 160T557 191T536 214T503 224Q486 224 466 221T419 206T361 173T288 114H570Z"  />
<glyph unicode="&#x638;" arabic-form="initial" horiz-adv-x="665" d="M364 526L458 446Q456 443 446 432T424 408T400 385T382 373Q378 373 369 378T348 392T324 411T301 430L293 437L364 526ZM110 114Q110 133 109 162T105 224T101 292T96 360T91 421T86 469Q100 479 126 494T185 526Q209 491 223 461T240 408Q240 403 233 396T218 381T204 370T199 366Q199 364 199 350T200 316T201 272T203 227T204 190T205 168Q241 222 281 256T360 309T430 334T483 341Q517 341 542 326T584 282T609 214T618 127Q618 113 616 97T610 63T600 30T584 0H-1Q-9 0 -15 10T-26 33T-34 58T-37 74Q-37 85 -29 99T-1 114H110ZM521 114Q523 119 523 122T523 131Q523 145 520 161T508 191T487 214T454 224Q437 224 417 221T370 206T312 173T239 114H521Z"  />
<glyph unicode="&#x638;" arabic-form="medial" horiz-adv-x="678" d="M367 526L461 446Q459 443 449 432T427 408T403 385T385 373Q381 373 372 378T351 392T327 411T304 430L296 437L367 526ZM109 114Q109 133 108 162T104 224T100 292T95 360T90 421T85 469Q99 479 125 494T184 526Q208 491 222 461T239 408Q239 403 232 396T217 381T203 370T198 366Q198 364 198 350T199 316T200 272T202 227T203 190T204 168Q240 222 280 256T359 309T429 334T482 341Q516 341 541 326T583 282T608 214T617 127V114H678Q690 114 696 101T702 74Q702 64 700 52T694 28T686 8T678 0H0Q-12 0 -19 9T-30 32T-35 57T-37 75Q-36 89 -31 101T0 114H109ZM520 114Q522 119 522 122T522 131Q522 145 519 161T507 191T486 214T453 224Q436 224 416 221T369 206T311 173T238 114H520Z"  />
<glyph unicode="&#x638;" arabic-form="terminal" horiz-adv-x="728" d="M411 526L505 446Q503 443 493 432T471 407T447 384T429 373Q425 373 416 378T395 392T371 411T348 430L340 437L411 526ZM570 114L572 131Q572 144 569 160T557 191T536 214T503 224Q486 224 466 221T419 206T361 173T288 114H570ZM159 114Q159 143 157 191T150 292T142 392T135 469Q149 479 175 494T234 526Q257 492 273 461T289 407Q289 402 283 396T268 382L248 366Q248 364 248 350T249 316T251 272T252 227T253 189T254 168Q290 222 330 256T409 309T479 334T532 341Q566 341 591 326T633 282T658 214T667 127Q667 117 666 114H728Q740 114 746 101T752 73Q752 63 750 51T745 27T737 8T728 0H140Q92 0 63 31T33 124V147L37 152Q54 137 79 127T127 114H159Z"  />
<glyph unicode="&#x638;" arabic-form="isolated" horiz-adv-x="710" d="M411 526L505 446Q503 443 493 432T471 407T447 384T429 373Q425 373 416 378T395 392T371 411T348 430L340 437L411 526ZM159 114Q159 143 157 191T150 292T142 392T135 469Q149 479 175 494T234 526Q257 492 273 461T289 407Q289 402 283 396T268 382L248 366Q248 364 248 350T249 316T251 272T252 227T253 189T254 168Q290 222 330 256T409 309T479 334T532 341Q566 341 591 326T633 282T658 214T667 127Q667 113 665 97T659 63T649 30T633 0H140Q92 0 63 31T33 124V147L37 152Q54 137 79 127T127 114H159ZM570 114L572 131Q572 144 569 160T557 191T536 214T503 224Q486 224 466 221T419 206T361 173T288 114H570Z"  />
<glyph unicode="&#x639;" arabic-form="initial" horiz-adv-x="425" d="M369 20Q349 13 334 10T304 5T271 2T225 0H0Q-10 0 -16 8T-27 29T-34 55T-36 79Q-36 96 -25 105T0 114H83Q80 117 77 124T71 140T66 160T64 180Q64 205 84 235T136 291T207 334T285 352Q302 352 316 343T340 322T355 295T361 268Q361 265 361 258T360 243T358 228T356 218L347 216Q341 223 333 227T316 233T300 235T288 236Q265 236 242 232T199 219T168 199T156 172Q156 152 182 134T256 115Q280 115 317 119T385 138L390 136Q390 122 389 106T384 73T377 43T369 20Z"  />
<glyph unicode="&#x639;" arabic-form="medial" horiz-adv-x="401" d="M193 145Q228 166 249 184T270 225Q270 234 262 241T243 254T219 261T196 264Q180 264 162 260T128 249Q145 229 162 202T193 145ZM-2 0Q-5 0 -11 5T-23 20T-34 45T-39 80Q-37 97 -31 105T-1 114H130Q93 182 40 223Q41 231 44 245T50 272T57 294T60 304Q91 324 126 337T218 350Q245 350 272 340T320 312T355 272T369 225Q369 200 343 170T277 114H401Q414 114 419 103T425 77Q425 45 417 23T401 0H186Q182 7 178 16T168 30Q151 11 140 6T112 0H-2Z"  />
<glyph unicode="&#x639;" arabic-form="terminal" horiz-adv-x="392" d="M392 114Q406 114 411 104T416 70Q416 39 408 20T392 0H173Q170 8 165 16T155 29Q129 7 118 -17T107 -80Q107 -113 134 -136T201 -173T283 -193T357 -200Q357 -201 357 -201T358 -203Q348 -215 332 -228T296 -252T258 -270T223 -277Q185 -277 148 -265T82 -230T34 -171T16 -91Q16 -32 40 15T123 101Q115 114 104 129T80 160T53 190T25 217Q26 225 29 239T35 266T42 289T46 299Q61 309 77 317T111 332T152 341T204 345Q231 345 258 334T306 306T340 266T354 220Q354 195 328 168T263 114H392ZM177 144Q209 165 229 182T249 221Q249 238 227 248T179 258Q164 258 146 254T114 243Q131 224 146 199T177 144Z"  />
<glyph unicode="&#x639;" arabic-form="isolated" horiz-adv-x="392" d="M333 39Q322 35 307 33T276 28T243 23T214 18Q169 8 137 -12T105 -62Q105 -91 126 -114T184 -155T266 -181T362 -191V-196Q352 -207 332 -220T290 -244T245 -264T208 -272Q191 -272 160 -259T99 -221T47 -160T25 -76Q25 -59 30 -38T45 4T66 39T93 61Q81 67 69 79T47 108T31 143T24 182Q24 207 45 239T99 300T172 348T250 368Q267 368 280 359T303 338T317 311T322 286Q322 284 322 278T320 264T318 250T316 241L309 236Q302 243 294 247T276 254T260 256T248 257Q225 257 200 251T155 235T121 212T107 184Q107 170 117 158T143 138T177 126T212 121Q224 121 240 122T275 125T312 131T347 143L352 141Q352 114 348 88T333 39Z"  />
<glyph unicode="&#x63A;" arabic-form="initial" horiz-adv-x="425" d="M206 575L300 495Q298 492 288 481T266 457T242 434T224 422Q220 422 211 427T190 441T166 460T143 479L135 486L206 575ZM369 20Q349 13 334 10T304 5T271 2T225 0H0Q-10 0 -16 8T-27 29T-34 55T-36 79Q-36 96 -25 105T0 114H83Q80 117 77 124T71 140T66 160T64 180Q64 205 84 235T136 291T207 334T285 352Q302 352 316 343T340 322T355 295T361 268Q361 265 361 258T360 243T358 228T356 218L347 216Q341 223 333 227T316 233T300 235T288 236Q265 236 242 232T199 219T168 199T156 172Q156 152 182 134T256 115Q280 115 317 119T385 138L390 136Q390 122 389 106T384 73T377 43T369 20Z"  />
<glyph unicode="&#x63A;" arabic-form="medial" horiz-adv-x="401" d="M194 550L288 470Q286 467 276 456T254 432T230 409T212 397Q208 397 199 402T178 416T154 435T131 454L123 461L194 550ZM193 145Q228 166 249 184T270 225Q270 234 262 241T243 254T219 261T196 264Q180 264 162 260T128 249Q145 229 162 202T193 145ZM-2 0Q-5 0 -11 5T-23 20T-34 45T-39 80Q-37 97 -31 105T-1 114H130Q93 182 40 223Q41 231 44 245T50 272T57 294T60 304Q91 324 126 337T218 350Q245 350 272 340T320 312T355 272T369 225Q369 200 343 170T277 114H401Q414 114 419 103T425 77Q425 45 417 23T401 0H186Q182 7 178 16T168 30Q151 11 140 6T112 0H-2Z"  />
<glyph unicode="&#x63A;" arabic-form="terminal" horiz-adv-x="392" d="M193 557L287 477Q285 474 275 463T253 439T229 416T211 404Q207 404 198 409T177 423T153 442T130 461L122 468L193 557ZM392 114Q406 114 411 104T416 70Q416 39 408 20T392 0H173Q170 8 165 16T155 29Q129 7 118 -17T107 -80Q107 -113 134 -136T201 -173T283 -193T357 -200Q357 -201 357 -201T358 -203Q348 -215 332 -228T296 -252T258 -270T223 -277Q185 -277 148 -265T82 -230T34 -171T16 -91Q16 -32 40 15T123 101Q115 114 104 129T80 160T53 190T25 217Q26 225 29 239T35 266T42 289T46 299Q61 309 77 317T111 332T152 341T204 345Q231 345 258 334T306 306T340 266T354 220Q354 195 328 168T263 114H392ZM177 144Q209 165 229 182T249 221Q249 238 227 248T179 258Q164 258 146 254T114 243Q131 224 146 199T177 144Z"  />
<glyph unicode="&#x63A;" arabic-form="isolated" horiz-adv-x="400" d="M167 574L261 494Q259 491 249 480T227 456T203 433T185 421Q181 421 172 426T151 440T127 459T104 478L96 485L167 574ZM333 39Q322 35 307 33T276 28T243 23T214 18Q169 8 137 -12T105 -62Q105 -91 126 -114T184 -155T266 -181T362 -191V-196Q352 -207 332 -220T290 -244T245 -264T208 -272Q191 -272 160 -259T99 -221T47 -160T25 -76Q25 -59 30 -38T45 4T66 39T93 61Q81 67 69 79T47 108T31 143T24 182Q24 207 45 239T99 300T172 348T250 368Q267 368 280 359T303 338T317 311T322 286Q322 284 322 278T320 264T318 250T316 241L309 236Q302 243 294 247T276 254T260 256T248 257Q225 257 200 251T155 235T121 212T107 184Q107 170 117 158T143 138T177 126T212 121Q224 121 240 122T275 125T312 131T347 143L352 141Q352 114 348 88T333 39Z"  />
<glyph unicode="&#x640;" horiz-adv-x="182" d="M182 114V0H0Q-9 10 -16 23Q-22 34 -27 49T-32 81Q-32 100 -23 107T-1 114H182Z"  />
<glyph unicode="&#x641;" arabic-form="initial" horiz-adv-x="429" d="M238 246Q228 246 215 242T190 230T170 212T162 192Q162 169 177 154T212 129T252 117T281 113Q286 113 287 120T289 134Q289 147 286 166T277 203T261 233T238 246ZM0 0Q-10 0 -16 8T-27 29T-34 55T-36 79Q-36 96 -25 105T0 114H133Q107 134 100 151T92 195Q92 214 105 240T142 290T197 330T265 347Q291 347 313 329T350 282T375 216T384 142Q384 117 379 98T361 55Q349 33 337 17T319 0H0ZM216 545L310 465Q308 462 298 451T276 427T252 404T234 392Q230 392 221 397T200 411T176 430T153 449L145 456L216 545Z"  />
<glyph unicode="&#x641;" arabic-form="medial" horiz-adv-x="430" d="M238 246Q228 246 215 242T190 230T170 212T162 192Q162 169 177 154T212 129T252 117T281 113Q286 113 287 120T289 134Q289 147 286 166T277 203T261 233T238 246ZM0 0Q-10 0 -16 8T-27 29T-34 55T-36 79Q-36 96 -25 105T0 114H133Q107 134 100 151T92 195Q92 214 105 240T142 290T197 330T265 347Q291 347 313 329T350 282T375 216T384 142Q384 134 384 128T382 114H430Q441 114 447 106T454 76Q454 33 445 17T430 0H409Q391 0 380 3T363 9T353 17T347 24Q345 20 339 10T319 0H0ZM216 545L310 465Q308 462 298 451T276 427T252 404T234 392Q230 392 221 397T200 411T176 430T153 449L145 456L216 545Z"  />
<glyph unicode="&#x641;" arabic-form="terminal" horiz-adv-x="775" d="M581 246Q571 246 558 242T533 230T513 212T505 192Q505 169 520 154T555 129T595 117T624 113Q629 113 630 120T632 134Q632 147 629 166T620 203T604 233T581 246ZM139 0Q122 0 102 6T65 27T36 64T24 119Q24 131 26 144T33 171T42 197T55 216Q65 220 80 224T112 232T141 237T159 240L164 234Q149 215 143 202T136 167Q136 145 151 130T198 114H476Q450 134 443 151T435 195Q435 214 448 240T485 290T540 330T608 347Q634 347 656 329T693 282T718 216T727 142Q727 134 727 128T725 114H775Q786 114 792 106T799 77Q799 39 791 20T775 0H139ZM558 545L652 465Q650 462 640 451T618 427T594 404T576 392Q572 392 563 397T542 411T518 430T495 449L487 456L558 545Z"  />
<glyph unicode="&#x641;" arabic-form="isolated" horiz-adv-x="772" d="M581 246Q571 246 558 242T533 230T513 212T505 192Q505 169 520 154T555 129T595 117T624 113Q629 113 630 120T632 134Q632 147 629 166T620 203T604 233T581 246ZM139 0Q122 0 102 6T65 27T36 64T24 119Q24 131 26 144T33 171T42 197T55 216Q65 220 80 224T112 232T141 237T159 240L164 234Q149 215 143 202T136 167Q136 145 151 130T198 114H476Q450 134 443 151T435 195Q435 214 448 240T485 290T540 330T608 347Q634 347 656 329T693 282T718 216T727 142Q727 117 722 98T704 55Q692 33 680 17T662 0H139ZM558 545L652 465Q650 462 640 451T618 427T594 404T576 392Q572 392 563 397T542 411T518 430T495 449L487 456L558 545Z"  />
<glyph unicode="&#x642;" arabic-form="initial" horiz-adv-x="429" d="M155 544L224 484L275 548L361 476Q359 474 351 462T333 435T310 408T288 395Q284 395 264 408T220 440Q209 422 195 408T170 391Q167 391 157 396T135 411T109 430T84 452L155 544ZM238 246Q228 246 215 242T190 230T170 212T162 192Q162 169 177 154T212 129T252 117T281 113Q286 113 287 120T289 134Q289 147 286 166T277 203T261 233T238 246ZM-4 0Q-14 0 -20 8T-31 29T-38 55T-40 79Q-40 96 -29 105T-4 114H133Q107 134 100 151T92 195Q92 214 105 240T142 290T197 330T265 347Q291 347 313 329T350 282T375 216T384 142Q384 117 379 98T361 55Q349 33 337 17T319 0H-4Z"  />
<glyph unicode="&#x642;" arabic-form="medial" horiz-adv-x="430" d="M155 544L224 484L275 548L361 476Q359 474 351 462T333 435T310 408T288 395Q284 395 264 408T220 440Q209 422 195 408T170 391Q167 391 157 396T135 411T109 430T84 452L155 544ZM238 246Q228 246 215 242T190 230T170 212T162 192Q162 169 177 154T212 129T252 117T281 113Q286 113 287 120T289 134Q289 147 286 166T277 203T261 233T238 246ZM0 0Q-10 0 -16 8T-27 29T-34 55T-36 79Q-36 96 -25 105T0 114H133Q107 134 100 151T92 195Q92 214 105 240T142 290T197 330T265 347Q291 347 313 329T350 282T375 216T384 142Q384 134 384 128T382 114H430Q441 114 447 104T454 75Q454 39 447 20T430 0H409Q391 0 380 3T363 9T353 17T347 24Q345 20 339 10T319 0H0Z"  />
<glyph unicode="&#x642;" arabic-form="terminal" horiz-adv-x="567" d="M276 544L345 484L396 548L482 476Q480 474 472 462T454 435T431 408T409 395Q405 395 385 408T341 440Q330 422 316 408T291 391Q288 391 278 396T256 411T230 430T205 452L276 544ZM373 350Q394 350 418 341T462 310T496 253T510 167Q510 139 507 114H567Q578 114 584 105T591 78Q591 38 582 19T567 0H482Q450 -81 384 -122T221 -164Q171 -164 136 -153T78 -124T43 -85T24 -42T17 -2T15 28Q15 64 21 93T36 138L126 168L133 164Q120 141 105 109T90 41Q90 28 94 12T112 -20T150 -45T213 -55Q249 -55 281 -50T337 -38T376 -20T396 0H384Q356 0 325 8T269 34T226 76T209 136Q209 183 225 222T265 289T319 334T373 350ZM284 180Q284 159 301 147T342 128T389 119T423 114Q426 129 427 137T428 153Q428 171 422 188T407 219T385 241T360 249Q349 249 336 245T312 232T292 210T284 180Z"  />
<glyph unicode="&#x642;" arabic-form="isolated" horiz-adv-x="566" d="M284 180Q284 159 301 147T342 128T389 119T423 114Q426 129 427 137T428 153Q428 171 422 188T407 219T385 241T360 249Q349 249 336 245T312 232T292 210T284 180ZM373 350Q394 350 418 341T462 310T496 253T510 167Q510 3 435 -80T221 -164Q171 -164 136 -153T78 -124T43 -85T24 -42T17 -2T15 28Q16 64 22 93T36 138L126 168L133 164Q120 141 105 109T90 41Q90 28 94 12T112 -20T150 -45T213 -55Q249 -55 281 -50T337 -38T376 -20T396 0H384Q356 0 325 8T269 34T226 76T209 136Q209 183 225 222T265 289T319 334T373 350ZM276 544L345 484L396 548L482 476Q480 474 472 462T454 435T431 408T409 395Q405 395 385 408T341 440Q330 422 316 408T291 391Q288 391 278 396T256 411T230 430T205 452L276 544Z"  />
<glyph unicode="&#x643;" arabic-form="initial" horiz-adv-x="395" d="M0 0Q-6 0 -11 8T-21 28T-28 55T-31 86Q-28 114 0 114H216Q225 114 225 119Q225 127 207 142T163 175T108 209T55 237Q52 238 49 243T42 255T37 268T35 280Q35 291 53 314T99 364T155 417T206 459Q232 479 254 487T294 496Q303 496 315 491Q330 483 343 452T367 380Q366 379 363 379Q362 379 361 378Q350 384 340 386T319 389Q303 389 279 381T227 358T175 326T132 289Q174 266 214 242T284 193Q313 169 329 150T345 114Q345 104 338 85T321 47T301 14T285 0H0Z"  />
<glyph unicode="&#x643;" arabic-form="medial" horiz-adv-x="404" d="M0 0Q-6 0 -11 11T-21 37T-28 66T-31 86Q-28 114 0 114H216Q225 114 225 119Q225 127 207 142T163 175T108 209T55 237Q52 238 49 243T42 255T37 268T35 280Q35 291 53 314T99 364T155 417T206 459Q232 479 254 487T294 496Q303 496 315 491Q330 483 343 452T367 380Q366 379 363 379Q362 379 361 378Q350 384 340 386T319 389Q303 389 279 381T227 358T175 326T132 289Q174 266 214 242T284 193Q313 169 329 150T345 114H404Q428 114 428 71Q428 35 421 18T404 0H379Q376 0 370 2T354 10T336 23T318 43Q308 25 299 13T285 0H0Z"  />
<glyph unicode="&#x643;" arabic-form="terminal" horiz-adv-x="631" d="M197 288Q199 302 201 320T209 350L232 357Q224 365 224 374Q224 386 231 400T250 427T276 449T306 458Q323 458 329 445T335 421Q335 416 332 408T325 399Q324 399 317 403T304 407Q293 407 282 398T270 382Q270 377 282 375T301 372Q318 372 328 379T345 386Q349 386 350 380T351 366Q351 349 347 338T337 324L197 288ZM631 114Q643 114 649 102T655 71Q655 36 648 18T631 0H612Q609 0 603 2T587 10T569 24T551 44Q543 27 535 14T522 0H179Q147 0 117 9T64 39T27 95T13 181Q13 198 13 209T17 239Q21 241 35 247T65 260T96 273T116 280L120 277Q103 251 101 232T98 199Q98 185 101 170T117 143T153 122T218 114H460Q467 114 472 116T477 125Q476 165 472 213T463 308T453 396T442 463Q450 469 464 478T493 496T522 514T546 526Q558 507 568 487T585 449T597 420T601 404Q601 400 596 395T585 385T574 375T567 369Q571 325 572 277T573 189Q573 160 573 140T572 114H631Z"  />
<glyph unicode="&#x643;" arabic-form="isolated" horiz-adv-x="637" d="M572 93Q570 85 563 70T548 40T533 14T521 0H179Q163 0 138 5T87 24T42 64T16 133Q15 143 14 155T13 181Q13 198 13 209T17 239Q21 241 35 247T65 260T96 273T116 280L120 277Q103 251 101 232T98 199Q98 185 101 170T117 143T153 122T218 114H460Q467 114 472 116T477 125Q476 165 472 213T463 308T453 396T442 463Q450 469 464 478T493 496T522 514T546 526Q558 507 568 487T585 449T597 420T601 404Q601 400 596 395T585 385T574 375T567 369Q571 325 572 277T573 189Q573 160 573 140T572 114V93ZM197 288Q199 302 201 320T209 350L232 357Q224 365 224 374Q224 386 231 400T250 427T276 449T306 458Q323 458 329 445T335 421Q335 416 332 408T325 399Q324 399 317 403T304 407Q293 407 282 398T270 382Q270 377 282 375T301 372Q318 372 328 379T345 386Q349 386 350 380T351 366Q351 349 347 338T337 324L197 288Z"  />
<glyph unicode="&#x644;" arabic-form="initial" horiz-adv-x="241" d="M155 526Q167 507 177 487T194 449T206 420T210 404Q210 400 205 395T194 385T183 375T176 369Q180 323 181 271T182 179Q182 117 182 80T179 17Q170 11 157 8T130 3T102 1T75 0H-2Q-20 5 -30 26T-40 68Q-40 108 0 114H72Q81 114 87 120T94 141Q92 195 89 241T79 337Q74 375 69 408T59 463L155 526Z"  />
<glyph unicode="&#x644;" arabic-form="medial" horiz-adv-x="294" d="M294 114Q318 114 318 71Q318 39 311 20T294 0H264Q256 0 248 1T233 8T217 25T199 56L192 47Q182 33 174 24T155 10T127 3T79 0H0Q-5 0 -14 5T-31 20T-45 43T-51 70Q-51 89 -37 101T0 114H105Q115 114 117 117T120 131Q120 135 119 155T115 206T108 273T100 346T89 413T77 466Q90 476 102 483T127 496T157 509T198 526Q205 502 209 463T215 375T218 271T219 157V129Q219 121 222 118T236 114H294Z"  />
<glyph unicode="&#x644;" arabic-form="terminal" horiz-adv-x="511" d="M421 526Q433 507 442 487T458 449T468 420T472 404Q472 400 468 395T457 386T446 377T440 371Q445 304 447 241T449 114H511Q524 114 529 103T535 76Q535 43 527 22T511 0H496Q481 3 468 10T447 28Q441 -14 419 -49T364 -111T291 -151T211 -166Q167 -166 134 -152T78 -114T44 -56T32 15Q32 25 33 41T36 75T41 108T47 132Q57 138 70 143T98 152T127 159T151 164L155 161Q138 123 128 85T117 17Q117 -3 129 -16T160 -37T198 -49T234 -53Q279 -53 302 -42T338 -20Q345 -13 349 -7T354 7T356 26T357 55Q357 138 353 204T341 337Q336 375 331 408T321 463Q329 469 342 478T370 496T398 514T421 526Z"  />
<glyph unicode="&#x644;" arabic-form="isolated" horiz-adv-x="511" d="M421 526Q433 507 442 487T458 449T468 420T472 404Q472 400 468 395T457 386T446 377T440 371Q445 304 447 241T449 114V58Q449 10 429 -31T375 -102T298 -149T211 -166Q167 -166 134 -152T78 -114T44 -56T32 15Q32 25 33 41T36 75T41 108T47 132Q57 138 70 143T98 152T127 159T151 164L155 161Q138 123 128 85T117 17Q117 -3 129 -16T160 -37T198 -49T234 -53Q279 -53 302 -42T338 -20Q345 -13 349 -7T354 7T356 26T357 55Q357 138 353 204T341 337Q336 375 331 408T321 463Q329 469 342 478T370 496T398 514T421 526Z"  />
<glyph unicode="&#x645;" arabic-form="initial" horiz-adv-x="408" d="M224 211Q209 211 196 205T174 188T160 166T154 144Q154 133 154 126T156 114H278Q285 114 292 120T300 134Q300 147 296 161T282 186T259 204T224 211ZM104 114Q102 123 101 137T100 161Q100 200 113 228T147 274T191 301T233 310Q275 310 302 294T345 251T367 187T374 109Q374 91 368 72T352 37T330 11T308 0H0Q-7 0 -13 7T-24 25T-31 48T-34 72Q-34 94 -24 104T0 114H104Z"  />
<glyph unicode="&#x645;" arabic-form="medial" d="M224 211Q209 211 196 205T174 188T160 166T154 144Q154 133 154 126T156 114H278Q285 114 292 120T300 134Q300 147 296 161T282 186T259 204T224 211ZM104 114Q102 123 101 137T100 161Q100 200 113 228T147 274T191 301T233 310Q274 310 301 295T344 253T367 190T374 114H422Q435 114 443 102T452 71Q452 61 450 49T443 26T434 8T422 0H0Q-14 0 -25 20T-36 74Q-36 97 -25 105T0 114H104Z"  />
<glyph unicode="&#x645;" arabic-form="terminal" horiz-adv-x="459" d="M275 211Q260 211 247 205T225 188T211 166T205 144Q205 133 205 126T207 114H329Q336 114 343 120T351 134Q351 147 347 161T333 186T310 204T275 211ZM155 114Q153 123 152 137T151 161Q151 200 164 228T198 274T242 301T284 310Q325 310 352 295T395 253T418 190T425 114H459Q472 114 480 106T489 77Q489 48 480 24T459 0H112Q108 0 108 -4Q109 -14 115 -55T132 -153Q135 -169 135 -174T136 -181V-185Q134 -190 123 -199T98 -219T72 -237T54 -248L48 -246Q42 -225 37 -196T28 -136T22 -76T20 -28Q20 -7 29 18T53 64T87 100T127 114H155Z"  />
<glyph unicode="&#x645;" arabic-form="isolated" horiz-adv-x="455" d="M275 211Q260 211 247 205T225 188T211 166T205 144Q205 133 205 126T207 114H329Q336 114 343 120T351 134Q351 147 347 161T333 186T310 204T275 211ZM155 114Q153 123 152 137T151 161Q151 200 164 228T198 274T242 301T284 310Q326 310 353 294T396 251T418 187T425 109Q425 91 419 72T403 37T381 11T359 0H112Q108 0 108 -4Q109 -14 115 -55T132 -153Q135 -169 135 -174T136 -181V-185Q134 -190 123 -199T98 -219T72 -237T54 -248L48 -246Q42 -225 37 -196T28 -136T22 -76T20 -28Q20 -7 29 18T53 64T87 100T127 114H155Z"  />
<glyph unicode="&#x646;" arabic-form="initial" horiz-adv-x="272" d="M99 509L193 429Q191 426 181 415T159 391T135 368T117 356Q113 356 104 361T83 375T59 394T36 413L28 420L99 509ZM0 0Q-9 0 -20 18T-31 76Q-31 96 -22 105T0 114H87Q112 114 112 130Q112 160 101 190T76 251Q83 256 98 264T130 280T163 296T188 307Q218 256 228 234T239 208Q239 203 225 190T197 168Q199 159 200 143T202 120V101Q201 89 193 72T174 38T152 11T133 0H0Z"  />
<glyph unicode="&#x646;" arabic-form="medial" horiz-adv-x="286" d="M109 495L203 415Q201 412 191 401T169 377T145 354T127 342Q123 342 114 347T93 361T69 380T46 399L38 406L109 495ZM274 0Q214 0 172 56Q158 33 138 17T107 0H0Q-8 0 -18 19T-28 73Q-28 95 -21 104T-2 114H70Q91 114 96 121T102 136Q102 148 99 163T92 194T85 225T80 255Q80 264 84 268T103 278Q121 286 139 292T193 307Q195 265 195 227T201 149Q204 123 223 119T267 114H286Q298 114 302 103T306 72Q306 40 300 20T286 0H274Z"  />
<glyph unicode="&#x646;" arabic-form="terminal" horiz-adv-x="517" d="M216 444L310 364Q308 361 298 350T276 326T252 303T234 291Q230 291 221 296T200 310T176 329T153 348L145 355L216 444ZM517 114Q547 114 547 71Q547 36 536 18T517 0H463Q451 -31 429 -58T375 -105T301 -138T207 -150Q172 -150 139 -139T81 -105T39 -48T23 34Q23 46 24 64T29 102T35 137T41 160Q73 173 104 182T169 195L172 192Q165 179 156 159T138 116T123 73T117 36Q117 18 143 -1T226 -21Q235 -21 260 -18T310 -9T356 6T376 27Q376 50 370 72T354 117T332 160T310 203Q337 224 367 242T427 277Q434 262 440 243T453 201T463 157T471 114H517Z"  />
<glyph unicode="&#x646;" arabic-form="isolated" horiz-adv-x="502" d="M216 444L310 364Q308 361 298 350T276 326T252 303T234 291Q230 291 221 296T200 310T176 329T153 348L145 355L216 444ZM476 66Q475 25 458 -14T406 -83T322 -131T207 -150Q172 -150 139 -139T81 -105T39 -48T23 34Q23 46 24 64T29 102T35 137T41 160Q73 173 104 182T169 195L172 192Q165 179 156 159T138 116T123 73T117 36Q117 18 143 -1T226 -21Q235 -21 260 -18T312 -9T359 6T380 27Q380 50 374 72T358 117T336 160T314 203Q341 224 369 242T427 277Q436 257 445 228T461 169T472 110T476 66Z"  />
<glyph unicode="&#x647;" arabic-form="initial" horiz-adv-x="454" d="M200 114Q200 119 196 127T185 142T166 155T140 160Q132 160 124 150T115 114H200ZM159 253Q147 253 138 248T124 236T116 221T113 206Q121 214 137 214Q149 214 163 210T193 195T221 164T242 114H270Q277 114 286 114T303 115T317 118T323 123Q323 139 308 161T268 204T215 238T159 253ZM86 228Q86 252 91 273T107 310T131 335T162 345Q207 345 253 323T335 264T395 181T418 88Q418 57 407 40T382 13T354 2T334 0H0Q-7 0 -16 22T-26 79Q-26 83 -26 89T-23 100T-15 110T0 114H82Q81 124 81 130T81 145Q81 158 82 167T88 187Q86 194 86 201T86 216V228Z"  />
<glyph unicode="&#x647;" arabic-form="medial" horiz-adv-x="392" d="M392 114Q412 114 412 75Q412 31 406 16T392 0H297Q326 -23 339 -50T352 -105Q352 -141 324 -167T246 -193Q213 -193 184 -179T130 -139T85 -78T50 0H0Q-9 0 -16 25T-23 82Q-23 102 -16 108T0 114H51Q51 143 62 182T96 256T152 317T232 342Q247 342 264 339T295 324T320 290T330 231Q330 217 327 201T316 168T300 138T279 114H392ZM264 217Q264 227 260 233T250 242T239 246T231 247Q204 247 187 231T160 193T147 152T143 123V114Q159 114 180 123T220 147T251 180T264 217ZM283 -74Q283 -64 274 -52T249 -28T215 -8T176 0H143Q146 -15 157 -33T182 -67T213 -94T243 -105Q268 -105 275 -94T283 -74Z"  />
<glyph unicode="&#x647;" arabic-form="terminal" horiz-adv-x="490" d="M490 114Q502 114 506 102T510 68Q510 36 505 18T490 0H453Q442 0 423 3T384 19T348 59T327 132Q325 153 324 176T320 231Q319 245 307 247T285 250Q264 250 236 238T183 208T141 167T123 123Q123 111 141 109T192 106Q213 106 239 107T286 111Q283 64 271 36T254 5Q252 3 243 1T222 -2T197 -3T174 -4Q137 -4 110 3T66 21T41 47T32 75Q32 125 61 175T135 266T233 332T336 357Q363 357 379 346T405 318T416 286T419 260V230Q419 216 420 197T424 159T434 127T451 114H490Z"  />
<glyph unicode="&#x647;" arabic-form="isolated" horiz-adv-x="415" d="M292 112Q292 122 282 134T255 159T219 180T181 193Q169 188 156 177T131 154T113 129T106 107Q106 100 128 88T198 75Q220 75 237 79T267 90T285 102T292 112ZM192 -34Q173 -34 149 -30T99 -18T53 -2T20 16Q20 61 31 105T63 189T111 263T171 321Q212 311 252 289T323 234T373 163T392 82Q392 46 376 23T331 -12T267 -29T192 -34Z"  />
<glyph unicode="&#x648;" arabic-form="terminal" horiz-adv-x="427" d="M124 162Q124 147 134 138T157 123T186 116T212 114H279Q280 118 280 130Q280 172 260 195T198 219Q165 219 145 202T124 162ZM272 0Q241 0 201 2T124 17T62 59T36 141Q36 175 48 208T82 268T137 311T208 328Q292 328 334 272T379 114H427Q438 114 442 102T447 74Q447 34 440 17T427 0H367Q355 -51 333 -90T287 -155T241 -194T206 -208Q185 -208 149 -192T66 -138Q66 -137 66 -136T67 -133Q95 -130 126 -123T186 -100T238 -61T272 0Z"  />
<glyph unicode="&#x648;" arabic-form="isolated" horiz-adv-x="418" d="M272 0Q241 0 201 2T124 17T62 59T36 141Q36 175 48 208T82 268T137 311T208 328Q295 328 337 268T379 101Q379 25 359 -31T312 -125T257 -181T213 -200Q192 -200 156 -184T73 -130Q73 -129 73 -128T74 -125Q102 -122 132 -116T189 -97T239 -60T272 0ZM124 162Q124 147 134 138T157 123T186 116T212 114H279Q280 118 280 130Q280 172 260 195T198 219Q165 219 145 202T124 162Z"  />
<glyph unicode="&#x649;" arabic-form="initial" horiz-adv-x="259" d="M-1 0Q-6 0 -14 7T-30 24T-44 47T-50 71Q-50 85 -40 99T-1 114H82Q107 114 107 130Q107 160 96 190T71 251Q78 256 93 264T125 280T158 296T183 307Q213 256 223 234T234 208Q234 203 220 190T192 168Q194 159 195 143T197 120V101Q196 89 188 72T169 38T147 11T128 0H-1Z"  />
<glyph unicode="&#x649;" arabic-form="medial" horiz-adv-x="259" d="M247 0Q187 0 145 56Q131 33 111 17T80 0H-1Q-5 0 -13 7T-28 25T-42 49T-48 73Q-48 87 -36 100T-3 114H43Q64 114 69 121T75 136Q75 148 72 163T65 194T58 225T53 255Q53 264 57 268T76 278Q94 286 112 292T166 307Q168 265 168 227T174 149Q177 123 196 119T240 114H259Q271 114 277 100T283 72Q283 60 281 48T276 25T269 7T259 0H247Z"  />
<glyph unicode="&#x649;" arabic-form="terminal" horiz-adv-x="534" d="M477 0L475 -4Q484 -9 495 -19T507 -37Q507 -51 499 -67T475 -96Q433 -129 371 -156T224 -183Q190 -183 156 -175T93 -147T48 -93T30 -7Q30 23 37 49T56 97T78 134T99 155Q104 159 114 162T137 169T159 174T174 177Q176 177 178 172Q166 155 156 136T138 97T126 59T121 27Q121 -2 133 -22T167 -54T216 -72T277 -78Q309 -78 337 -74T387 -65T422 -54T436 -45Q436 -36 424 -26T393 -5T351 15T307 31Q308 37 313 49T325 75T338 99T347 114H534Q547 114 550 101T554 73Q554 38 549 19T534 0H477Z"  />
<glyph unicode="&#x649;" arabic-form="isolated" horiz-adv-x="644" d="M596 49Q596 29 582 0T534 -64Q513 -84 484 -100T421 -127T348 -144T271 -150Q225 -150 179 -137T97 -99T38 -35T15 54Q15 90 22 118T40 168T59 202T73 219Q76 222 86 226T111 235T142 243T173 249L176 246Q155 219 137 181T118 102Q118 67 132 44T170 5T224 -16T286 -23Q341 -23 381 -17T447 -3T487 14T500 25Q500 34 487 44T453 65T411 85T369 103Q340 114 331 120T322 145Q322 171 338 210T380 287T435 350T490 377Q523 377 554 354T612 299L609 293Q554 278 508 248T441 187Q445 183 469 170T522 138T573 96T596 49Z"  />
<glyph unicode="&#x64A;" arabic-form="initial" horiz-adv-x="365" d="M101 -64L170 -124L221 -60L307 -132Q305 -134 297 -146T279 -173T256 -200T234 -213Q230 -213 210 -200T166 -168Q155 -186 141 -200T116 -217Q113 -217 103 -212T81 -197T55 -178T30 -156L101 -64ZM-1 0Q-14 0 -22 18T-31 73Q-31 93 -23 103T-1 114H180Q205 114 205 130Q205 160 194 190T169 251Q176 256 191 264T223 280T256 296T281 307Q311 256 321 234T332 208Q332 203 318 190T290 168Q292 159 293 143T295 120V101Q294 89 286 72T267 38T245 11T226 0H-1Z"  />
<glyph unicode="&#x64A;" arabic-form="medial" horiz-adv-x="362" d="M97 -64L166 -124L217 -60L303 -132Q301 -134 293 -146T275 -173T252 -200T230 -213Q226 -213 206 -200T162 -168Q151 -186 137 -200T112 -217Q109 -217 99 -212T77 -197T51 -178T26 -156L97 -64ZM350 0Q290 0 248 56Q234 33 214 17T183 0H0Q-8 0 -21 17T-34 73Q-34 96 -24 105T0 114H146Q167 114 172 121T178 136Q178 148 175 163T168 194T161 225T156 255Q156 264 160 268T179 278Q197 286 215 292T269 307Q271 265 271 227T277 149Q280 123 299 119T343 114H362Q371 114 376 103T382 71Q382 33 375 17T362 0H350Z"  />
<glyph unicode="&#x64A;" arabic-form="terminal" horiz-adv-x="534" d="M201 -218L270 -278L321 -214L407 -286Q405 -288 397 -300T379 -327T356 -354T334 -367Q330 -367 310 -354T266 -322Q255 -340 241 -354T216 -371Q213 -371 203 -366T181 -351T155 -332T130 -310L201 -218ZM477 0L475 -4Q484 -9 495 -19T507 -37Q507 -51 499 -67T475 -96Q433 -129 371 -156T224 -183Q190 -183 156 -175T93 -147T48 -93T30 -7Q30 23 37 49T56 97T78 134T99 155Q104 159 114 162T137 169T159 174T174 177Q176 177 178 172Q166 155 156 136T138 97T126 59T121 27Q121 -2 133 -22T167 -54T216 -72T277 -78Q309 -78 337 -74T387 -65T422 -54T436 -45Q436 -36 424 -26T393 -5T351 15T307 31Q308 37 313 49T325 75T338 99T347 114H534Q547 114 550 101T554 73Q554 38 549 19T534 0H477Z"  />
<glyph unicode="&#x64A;" arabic-form="isolated" horiz-adv-x="644" d="M241 -215L310 -275L361 -211L447 -283Q445 -285 437 -297T419 -324T396 -351T374 -364Q370 -364 350 -351T306 -319Q295 -337 281 -351T256 -368Q253 -368 243 -363T221 -348T195 -329T170 -307L241 -215ZM596 49Q596 29 582 0T534 -64Q513 -84 484 -100T421 -127T348 -144T271 -150Q225 -150 179 -137T97 -99T38 -35T15 54Q15 90 22 118T40 168T59 202T73 219Q76 222 86 226T111 235T142 243T173 249L176 246Q155 219 137 181T118 102Q118 67 132 44T170 5T224 -16T286 -23Q341 -23 381 -17T447 -3T487 14T500 25Q500 34 487 44T453 65T411 85T369 103Q340 114 331 120T322 145Q322 171 338 210T380 287T435 350T490 377Q523 377 554 354T612 299L609 293Q554 278 508 248T441 187Q445 183 469 170T522 138T573 96T596 49Z"  />
<glyph unicode="&#x64B;" horiz-adv-x="0" d="M186 691Q191 693 198 697T214 707Q223 712 232 719L190 629Q157 614 122 605T56 591T1 583T-34 581Q-37 581 -38 582L-13 651Q-8 650 -3 650T7 650Q32 650 60 655T114 667T159 681T186 691ZM186 792Q191 794 198 798T214 808Q223 813 232 820L190 730Q157 715 122 706T56 692T1 684T-34 682Q-37 682 -38 683L-13 752Q-8 751 -3 751T7 751Q32 751 60 756T114 768T159 782T186 792Z"  />
<glyph unicode="&#x64C;" horiz-adv-x="0" d="M115 687Q85 687 69 699T52 751Q52 789 70 813T120 837Q132 837 143 829T162 807T176 775T181 738Q181 706 167 681T132 639T90 613T54 604Q29 604 16 621T1 662Q-11 655 -22 642T-44 617L-69 660Q-62 667 -55 674T-39 688L15 736L17 732V722Q17 681 30 668T64 655Q78 655 97 661T140 687H115ZM153 733V739Q153 745 150 753T140 768T126 781T107 787Q89 787 82 777T74 760Q74 743 91 738T134 733H153Z"  />
<glyph unicode="&#x64D;" horiz-adv-x="0" d="M186 -276Q191 -274 198 -270T214 -260Q223 -255 232 -248L190 -338Q157 -353 122 -362T56 -376T1 -384T-34 -386Q-37 -386 -38 -385L-13 -316Q-8 -317 -3 -317T7 -317Q32 -317 60 -312T114 -300T159 -286T186 -276ZM186 -175Q191 -173 198 -169T214 -159Q223 -154 232 -147L190 -237Q157 -252 122 -261T56 -275T1 -283T-34 -285Q-37 -285 -38 -284L-13 -215Q-8 -216 -3 -216T7 -216Q32 -216 60 -211T114 -199T159 -185T186 -175Z"  />
<glyph unicode="&#x64E;" horiz-adv-x="0" d="M186 691Q191 693 198 697T214 707Q223 712 232 719L190 629Q157 614 122 605T56 591T1 583T-34 581Q-37 581 -38 582L-13 651Q-8 650 -3 650T7 650Q32 650 60 655T114 667T159 681T186 691Z"  />
<glyph unicode="&#x64F;" horiz-adv-x="0" d="M97 654Q65 654 50 666T34 711Q34 726 39 741T52 767T73 786T100 793Q128 793 143 763T159 693Q152 658 133 636T92 599T50 580T21 574Q2 574 -8 588T-34 630Q-32 630 -32 630T-31 631Q-17 626 -10 625T4 623H19Q32 623 57 628T106 654H97ZM131 694V701Q131 706 128 714T120 731T107 744T89 750Q71 750 64 740T56 722Q56 708 71 701T112 694H131Z"  />
<glyph unicode="&#x650;" horiz-adv-x="0" d="M186 -175Q191 -173 198 -169T214 -159Q223 -154 232 -147L190 -237Q157 -252 122 -261T56 -275T1 -283T-34 -285Q-37 -285 -38 -284L-13 -215Q-8 -216 -3 -216T7 -216Q32 -216 60 -211T114 -199T159 -185T186 -175Z"  />
<glyph unicode="&#x651;" horiz-adv-x="0" d="M76 720Q80 703 82 690T87 669T98 656T119 651Q135 651 135 667Q135 680 128 695T113 726Q121 731 132 738T152 750Q161 727 166 706T172 666Q172 652 167 639T155 614T137 596T116 589Q106 589 94 592T74 611Q58 590 46 586T22 581Q13 581 3 584T-16 596T-31 619T-37 656V664Q-37 669 -36 676T-31 695Q-20 700 -14 701T-4 704L-1 703Q-3 694 -4 685T-5 672Q-5 651 5 645T29 639Q50 639 50 658Q50 670 47 678T37 706L76 720Z"  />
<glyph unicode="&#x652;" horiz-adv-x="0" d="M23 692Q22 688 22 680Q22 663 31 654T63 644Q68 644 76 644T91 647T103 654T108 664Q108 679 95 695T62 712Q23 712 23 692ZM-3 665Q-3 673 -2 690T7 724T28 755T67 768Q82 768 95 759T117 736T132 706T138 676Q138 659 134 643T121 615T98 594T61 586Q31 586 14 609T-3 665Z"  />
<glyph unicode="&#x653;" horiz-adv-x="0" d="M-36 689Q-37 689 -38 689T-40 690Q-40 706 -32 733T-11 778Q-5 786 7 786Q31 786 54 782T101 773T147 763T193 759Q212 759 226 765T255 788Q256 788 256 788T258 787Q255 772 249 758T233 731T212 712T187 704Q142 704 102 710T19 717Q15 717 12 717T3 715Q-11 712 -19 707T-36 689Z"  />
<glyph unicode="&#x654;" horiz-adv-x="0" d="M163 638Q162 633 159 624T150 612L10 576Q12 590 14 608T22 638L45 645Q37 653 37 662Q37 674 44 688T63 715T89 737T119 746Q136 746 142 733T148 709Q148 704 145 696T138 687Q137 687 130 691T117 695Q106 695 95 686T83 670Q83 665 95 663T114 660Q131 660 141 667T158 674Q163 674 163 666T164 653Q164 651 164 647T163 638Z"  />
<glyph unicode="&#x655;" horiz-adv-x="0" d="M163 -269Q162 -274 159 -283T150 -295L10 -331Q12 -317 14 -299T22 -269L45 -262Q42 -259 40 -255T37 -245Q37 -233 44 -219T63 -192T89 -170T119 -161Q136 -161 142 -174T148 -198Q148 -203 145 -211T138 -220Q137 -220 130 -216T117 -212Q106 -212 95 -221T83 -237Q83 -242 95 -244T114 -247Q131 -247 141 -240T158 -233Q163 -233 163 -241T164 -254Q164 -256 164 -260T163 -269Z"  />
<glyph unicode="&#x656;" horiz-adv-x="0" d="M130 -58Q141 -83 147 -115T153 -177Q153 -184 153 -188T152 -200L117 -230L113 -229Q111 -181 105 -149T82 -95Q98 -81 110 -72T130 -58Z"  />
<glyph unicode="&#x658;" horiz-adv-x="0" d="M56 715Q50 703 40 689T30 658Q30 653 31 651Q39 638 48 636T69 634Q80 634 90 635T110 639L120 643Q121 645 121 656Q121 668 118 687T104 723L144 751Q149 738 154 715T159 675Q159 642 144 624T109 598T75 588T60 586Q46 586 35 592T16 609T4 633T0 658Q0 681 13 707L56 715Z"  />
<glyph unicode="&#x660;" horiz-adv-x="430" d="M202 263L282 195Q280 191 274 180T259 157T238 136T213 126Q206 126 197 131T179 144T160 161T143 178L138 183L202 263Z"  />
<glyph unicode="&#x661;" horiz-adv-x="430" d="M115 432Q123 441 134 451T158 470T183 487T204 500Q206 500 212 477T226 422T242 354T255 294Q269 223 276 163T284 67Q284 58 274 45T249 18T221 -6T201 -21L195 -17Q201 1 207 17T213 53Q213 88 202 141T176 249T144 353T115 432Z"  />
<glyph unicode="&#x662;" horiz-adv-x="430" d="M172 360Q172 334 183 274T225 135Q223 137 227 127T236 102T247 74T253 56Q253 48 243 37T221 14T199 -5T188 -13Q186 -13 185 -13T182 -12L178 -2Q176 2 162 35T132 117T103 223T90 333Q90 355 101 383T133 437T182 479T243 496Q274 496 303 490T371 467Q372 468 367 453T354 419T338 384T324 368Q307 381 279 388T228 396Q172 396 172 360Z"  />
<glyph unicode="&#x663;" horiz-adv-x="430" d="M189 419Q189 434 185 446T178 464Q206 480 226 483T251 487Q257 473 260 454T264 429Q264 423 261 413Q263 409 279 405T306 399Q317 399 323 402T333 408T338 415T339 419Q339 422 335 431T326 450T315 471Q334 478 351 485T391 498Q397 487 401 478T409 461T413 444T414 423Q414 409 407 388T388 345T359 308T323 289Q319 288 315 288T306 288Q292 288 278 295T251 329H248Q236 302 226 295T209 287Q206 287 200 289T187 293T177 298T171 301L168 299Q177 269 184 238T197 178T206 125T210 84Q210 70 198 53T170 19T141 -8T125 -21L120 -18Q124 -10 126 -5T129 6T134 29L136 49L137 61Q137 97 125 145T95 241T59 332T28 402L20 420Q39 440 55 454T89 484Q93 484 97 476T105 457T114 433T123 409Q128 406 138 405T154 404Q162 404 173 408T189 419Z"  />
<glyph unicode="&#x664;" horiz-adv-x="430" d="M290 295Q289 271 287 247T279 198Q269 195 249 185T208 161T173 131T157 99Q157 95 165 93T183 89T203 88T215 88Q260 88 300 97T382 120Q375 85 366 61T342 12Q307 -4 275 -8T210 -13Q187 -13 165 -8T124 9T95 39T83 82Q83 102 90 121T109 158T132 188T156 211L155 214Q138 220 123 229T97 250T80 273T74 292Q84 344 113 378T178 434T252 464T316 473Q314 457 312 445T306 421T299 398T287 372Q273 372 250 367T204 354T165 336T148 316Q148 311 171 300T241 289Q257 289 267 291T290 295Z"  />
<glyph unicode="&#x665;" horiz-adv-x="430" d="M217 300Q203 300 188 286T159 247T138 192T129 126Q132 118 140 112T159 102T182 96T204 94Q216 94 232 95T263 101T288 113T299 133Q299 162 291 192T270 246T243 285T217 300ZM227 409Q260 409 286 383T330 316T357 224T367 123Q367 93 354 69T317 28T263 2T197 -8Q137 -8 102 30T67 132Q67 172 79 220T112 310T163 380T227 409Z"  />
<glyph unicode="&#x666;" horiz-adv-x="430" d="M62 378Q52 392 47 412T39 452Q38 457 38 462T38 472Q38 482 40 489T49 498Q61 480 75 471T103 457T133 451T164 450Q184 450 203 453T240 461T271 470T292 476Q294 476 295 476T299 477Q310 477 315 470T323 452T326 432T326 417L328 385Q331 341 334 299T346 216T367 133T404 48Q383 19 362 8T315 -17Q294 33 281 80T261 175T251 270T247 369Q230 362 209 356T167 350Q153 350 137 351T106 356T79 365T62 378Z"  />
<glyph unicode="&#x667;" horiz-adv-x="430" d="M260 8Q236 0 207 -6T159 -17Q157 31 145 85T114 193T73 297T28 389Q24 394 20 404T14 419Q14 426 23 437T45 461T70 482T86 494H90Q114 450 132 412T165 336T191 258T212 169L216 170Q227 220 240 260T268 337T300 413T336 499H340L349 490Q352 487 363 477T385 456T406 435T416 421Q416 415 413 410T408 400Q358 301 323 208T260 8Z"  />
<glyph unicode="&#x668;" horiz-adv-x="430" d="M166 475Q175 478 187 481T213 488T240 494T262 499Q263 499 264 499T267 498Q280 444 293 390T321 282T356 178T399 82Q404 74 411 60T418 39Q418 23 407 10T381 -12T355 -27T340 -34Q316 10 297 51T263 134T236 220T215 313L211 307Q191 222 162 137T98 -33H92Q89 -30 76 -20T49 2T24 26T13 44Q13 50 16 55T21 65Q72 165 105 266T166 475Z"  />
<glyph unicode="&#x669;" horiz-adv-x="430" d="M181 192Q159 192 139 199T104 218T79 249T70 289Q70 320 84 354T123 416T181 463T251 481Q274 481 283 469T293 431Q294 377 298 327T310 230T333 137T372 48Q352 21 331 8T285 -17Q254 43 243 99T223 219H219Q211 211 202 202T181 192ZM223 304Q223 311 223 323T221 347T219 367T215 376Q199 376 187 370T167 354T155 335T151 316Q151 311 159 304T197 296Q208 296 215 297T223 304Z"  />
<glyph unicode="&#x66A;" horiz-adv-x="452" d="M109 484L184 421Q180 415 172 404T155 381T138 360T126 349Q122 349 112 356T91 374T68 393T50 406L109 484ZM283 139L358 76Q354 70 346 59T329 36T312 15T300 4Q296 4 286 11T265 29T242 48T224 61L283 139ZM392 482L87 -38L13 -9L320 514L392 482Z"  />
<glyph unicode="&#x66B;" horiz-adv-x="209" d="M25 -59L90 44Q66 44 52 50T29 65T18 86T15 110Q15 138 35 156T83 175Q97 175 110 169T133 152T150 128T156 102Q156 76 148 53T127 7T98 -39T66 -87L25 -59Z"  />
<glyph unicode="&#x66C;" horiz-adv-x="209" d="M25 -59L90 44Q66 44 52 50T29 65T18 86T15 110Q15 138 35 156T83 175Q97 175 110 169T133 152T150 128T156 102Q156 76 148 53T127 7T98 -39T66 -87L25 -59Z"  />
<glyph unicode="&#x66D;" horiz-adv-x="686" d="M611 316L613 309L423 182L502 -34L493 -39L312 103L133 -40L126 -33L209 182L15 309L18 316H248L309 528H318L380 315L611 316Z"  />
<glyph unicode="&#x670;" horiz-adv-x="0" d="M95 758Q106 733 112 701T118 639Q118 632 118 628T117 616L82 586L78 587Q76 635 70 667T47 721Q63 735 75 744T95 758Z"  />
<glyph unicode="&#x671;" arabic-form="terminal" horiz-adv-x="247" d="M247 114Q258 114 264 102T271 80Q271 75 269 62T262 35T254 11T247 0H141Q130 0 122 0T107 1T90 3T68 6V92Q68 111 68 157T64 260T53 371T34 465Q51 477 81 496T140 526Q146 521 150 498T157 440T163 364T167 281T169 204T170 142V114H247ZM151 604Q153 607 153 614Q153 624 147 630T129 637Q113 637 100 624T77 593Q96 593 114 595T151 604ZM35 523Q18 547 18 566Q18 578 27 586T55 595Q73 629 93 651T143 674Q179 674 179 632Q179 615 175 599T162 572Q151 567 138 564T107 558Q87 555 75 554T56 551T45 542T39 522L35 523Z"  />
<glyph unicode="&#x671;" arabic-form="isolated" horiz-adv-x="227" d="M151 604Q153 607 153 614Q153 624 147 630T129 637Q113 637 100 624T77 593Q96 593 114 595T151 604ZM35 523Q18 547 18 566Q18 578 27 586T55 595Q73 629 93 651T143 674Q179 674 179 632Q179 615 175 599T162 572Q151 567 138 564T107 558Q87 555 75 554T56 551T45 542T39 522L35 523ZM41 468Q44 470 56 478T84 496T115 514T141 526Q154 505 163 486T179 451T188 425T191 412Q191 406 188 401T180 390T171 380T166 372Q164 362 164 333Q164 306 165 268T167 189T169 108T170 40Q170 20 143 9T64 -17Q64 35 64 97T61 225T54 353T41 468Z"  />
<glyph unicode="&#x679;" arabic-form="initial" horiz-adv-x="300" d="M144 389Q146 397 146 401Q146 406 142 414T122 422Q107 422 92 408T66 373Q89 374 108 378T144 389ZM45 372Q53 386 53 400Q53 408 50 434T38 483L70 506Q75 485 76 465T79 426Q92 441 106 450T135 460Q153 460 162 447T172 413Q172 401 167 387T154 358Q130 345 101 340T57 335Q36 335 27 344T12 383L14 386Q30 373 45 372ZM0 0Q-5 0 -13 7T-29 24T-43 47T-49 71Q-49 85 -39 99T0 114H114Q139 114 139 130Q139 160 128 190T103 251Q110 256 125 264T157 280T190 296T215 307Q245 256 255 234T266 208Q266 203 252 190T224 168Q226 159 227 143T229 120V101Q228 89 220 72T201 38T179 11T160 0H0Z"  />
<glyph unicode="&#x679;" arabic-form="medial" horiz-adv-x="301" d="M148 389Q150 397 150 401Q150 406 146 414T126 422Q111 422 96 408T70 373Q93 374 112 378T148 389ZM49 372Q57 386 57 400Q57 408 54 434T42 483L74 506Q79 485 80 465T83 426Q96 441 110 450T139 460Q157 460 166 447T176 413Q176 401 171 387T158 358Q134 345 105 340T61 335Q40 335 31 344T16 383L18 386Q34 373 49 372ZM289 0Q229 0 187 56Q173 33 153 17T122 0H0Q-4 0 -9 7T-20 25T-29 49T-33 73Q-33 87 -26 100T0 114H85Q106 114 111 121T117 136Q117 148 114 163T107 194T100 225T95 255Q95 264 99 268T118 278Q136 286 154 292T208 307Q210 265 210 227T216 149Q219 123 238 119T282 114H301Q310 114 317 100T325 75Q325 69 323 57T318 32T311 10T301 0H289Z"  />
<glyph unicode="&#x679;" arabic-form="terminal" horiz-adv-x="719" d="M379 375Q381 383 381 387Q381 392 377 400T357 408Q342 408 327 394T301 359Q324 360 343 364T379 375ZM280 358Q288 372 288 386Q288 394 285 420T273 469L305 492Q310 471 311 451T314 412Q327 427 341 436T370 446Q388 446 397 433T407 399Q407 387 402 373T389 344Q365 331 336 326T292 321Q271 321 262 330T247 369L249 372Q265 359 280 358ZM708 0Q648 0 606 56Q592 33 572 17T541 0H159Q158 0 136 2T86 19T37 63T15 150Q15 173 25 197T44 231Q47 233 61 237T91 247T121 256T138 260L142 256Q125 233 118 214T110 175Q110 168 112 158T124 138T150 121T199 114H510Q527 114 531 121T536 136Q536 148 533 163T526 194T519 225T514 255Q514 264 518 268T537 278Q555 286 573 292T627 307Q629 265 629 227T635 149Q638 123 657 119T701 114H719Q730 114 736 101T743 77Q743 70 741 57T736 32T729 10T719 0H708Z"  />
<glyph unicode="&#x679;" arabic-form="isolated" horiz-adv-x="677" d="M378 375Q380 383 380 387Q380 392 376 400T356 408Q341 408 326 394T300 359Q323 360 342 364T378 375ZM279 358Q287 372 287 386Q287 394 284 420T272 469L304 492Q309 471 310 451T313 412Q326 427 340 436T369 446Q387 446 396 433T406 399Q406 387 401 373T388 344Q364 331 335 326T291 321Q270 321 261 330T246 369L248 372Q264 359 279 358ZM164 0Q130 0 104 11T59 43T30 90T20 150Q20 173 30 197T49 231Q52 233 66 237T96 247T126 256T143 260L147 256Q130 233 123 214T115 175Q115 168 117 158T129 138T155 121T204 114H507Q532 114 532 130Q532 160 521 190T496 251Q503 256 518 264T550 280T583 296T608 307Q638 256 648 234T659 208Q659 203 645 190T617 168Q619 159 620 143T622 120V101Q621 89 613 72T594 38T572 11T553 0H164Z"  />
<glyph unicode="&#x67E;" arabic-form="initial" horiz-adv-x="358" d="M139 -194L213 -258Q212 -262 205 -273T187 -296T168 -318T153 -330Q150 -330 141 -325T121 -311T97 -294T74 -277L139 -194ZM76 -71L140 -126L187 -67L266 -134Q264 -136 257 -147T240 -171T219 -195T199 -208Q195 -208 176 -196T136 -167Q126 -184 114 -197T90 -212Q87 -212 78 -207T58 -194T34 -175T11 -156L76 -71ZM0 0Q-5 0 -10 7T-21 24T-30 47T-34 71Q-34 85 -23 99T0 114H172Q197 114 197 130Q197 160 186 190T161 251Q168 256 183 264T215 280T248 296T273 307Q303 256 313 234T324 208Q324 203 310 190T282 168Q284 159 285 143T287 120V101Q286 89 278 72T259 38T237 11T218 0H0Z"  />
<glyph unicode="&#x67E;" arabic-form="medial" horiz-adv-x="387" d="M138 -194L212 -258Q211 -262 204 -273T186 -296T167 -318T152 -330Q149 -330 140 -325T120 -311T96 -294T73 -277L138 -194ZM75 -71L139 -126L186 -67L265 -134Q263 -136 256 -147T239 -171T218 -195T198 -208Q194 -208 175 -196T135 -167Q125 -184 113 -197T89 -212Q86 -212 77 -207T57 -194T33 -175T10 -156L75 -71ZM375 0Q315 0 273 56Q259 33 239 17T208 0H0Q-4 0 -10 7T-21 25T-31 49T-35 73Q-35 84 -26 99T0 114H171Q192 114 197 121T203 136Q203 148 200 163T193 194T186 225T181 255Q181 264 185 268T204 278Q222 286 240 292T294 307Q296 265 296 227T302 149Q305 123 324 119T368 114H387Q400 114 405 99T411 70Q411 64 409 53T403 30T395 9T387 0H375Z"  />
<glyph unicode="&#x67E;" arabic-form="terminal" horiz-adv-x="719" d="M349 -194L423 -258Q422 -262 415 -273T397 -296T378 -318T363 -330Q360 -330 351 -325T331 -311T307 -294T284 -277L349 -194ZM286 -71L350 -126L397 -67L476 -134Q474 -136 467 -147T450 -171T429 -195T409 -208Q405 -208 386 -196T346 -167Q336 -184 324 -197T300 -212Q297 -212 288 -207T268 -194T244 -175T221 -156L286 -71ZM708 0Q648 0 606 56Q592 33 572 17T541 0H159Q158 0 136 2T86 19T37 63T15 150Q15 173 25 197T44 231Q47 233 61 237T91 247T121 256T138 260L142 256Q125 233 118 214T110 175Q110 168 112 158T124 138T150 121T199 114H510Q527 114 531 121T536 136Q536 148 533 163T526 194T519 225T514 255Q514 264 518 268T537 278Q555 286 573 292T627 307Q629 265 629 227T635 149Q638 123 657 119T701 114H719Q728 114 735 101T743 76Q743 70 741 58T736 33T728 10T719 0H708Z"  />
<glyph unicode="&#x67E;" arabic-form="isolated" horiz-adv-x="677" d="M338 -194L412 -258Q411 -262 404 -273T386 -296T367 -318T352 -330Q349 -330 340 -325T320 -311T296 -294T273 -277L338 -194ZM275 -71L339 -126L386 -67L465 -134Q463 -136 456 -147T439 -171T418 -195T398 -208Q394 -208 375 -196T335 -167Q325 -184 313 -197T289 -212Q286 -212 277 -207T257 -194T233 -175T210 -156L275 -71ZM164 0Q130 0 104 11T59 43T30 90T20 150Q20 173 30 197T49 231Q52 233 66 237T96 247T126 256T143 260L147 256Q130 233 123 214T115 175Q115 168 117 158T129 138T155 121T204 114H507Q532 114 532 130Q532 160 521 190T496 251Q503 256 518 264T550 280T583 296T608 307Q638 256 648 234T659 208Q659 203 645 190T617 168Q619 159 620 143T622 120V101Q621 89 613 72T594 38T572 11T553 0H164Z"  />
<glyph unicode="&#x686;" arabic-form="initial" horiz-adv-x="457" d="M175 -194L249 -258Q248 -262 241 -273T223 -296T204 -318T189 -330Q186 -330 177 -325T157 -311T133 -294T110 -277L175 -194ZM112 -71L176 -126L223 -67L302 -134Q300 -136 293 -147T276 -171T255 -195T235 -208Q231 -208 212 -196T172 -167Q162 -184 150 -197T126 -212Q123 -212 114 -207T94 -194T70 -175T47 -156L112 -71ZM0 0Q-2 0 -7 8T-19 28T-29 53T-34 76Q-34 98 -27 106T0 114H345Q305 173 250 194T135 215Q113 215 96 211T62 194L57 198Q62 228 75 252T104 293T140 319T176 329Q189 329 217 318T279 287T347 236T408 168Q422 148 428 135T435 116Q435 114 426 96T406 56T383 18T366 0H0Z"  />
<glyph unicode="&#x686;" arabic-form="medial" horiz-adv-x="476" d="M175 -194L249 -258Q248 -262 241 -273T223 -296T204 -318T189 -330Q186 -330 177 -325T157 -311T133 -294T110 -277L175 -194ZM112 -71L176 -126L223 -67L302 -134Q300 -136 293 -147T276 -171T255 -195T235 -208Q231 -208 212 -196T172 -167Q162 -184 150 -197T126 -212Q123 -212 114 -207T94 -194T70 -175T47 -156L112 -71ZM0 0Q-2 0 -16 32Q-29 63 -32 85Q-32 114 0 114H345Q305 173 250 194T135 215Q113 215 96 211T62 194L57 198Q62 228 75 252T104 293T140 319T176 329Q189 329 217 318T279 287T348 236T409 168Q434 131 434 114H476Q488 114 494 100T500 75Q500 66 498 53T493 29T486 9T476 0H0Z"  />
<glyph unicode="&#x686;" arabic-form="terminal" horiz-adv-x="472" d="M293 -92L342 -136Q341 -138 336 -145T325 -161T312 -175T303 -182Q298 -182 281 -171T250 -148L293 -92ZM252 -12L294 -49L324 -11L377 -54Q375 -55 371 -62T360 -78T346 -94T333 -102Q330 -102 317 -95T290 -76Q284 -87 276 -95T261 -106Q259 -106 253 -103T240 -94T224 -81T208 -68L252 -12ZM217 0Q103 0 103 -45Q103 -62 117 -86T158 -135T227 -177T324 -200L331 -205Q300 -230 261 -252T175 -275Q158 -275 132 -257T80 -207T36 -134T17 -49Q17 30 66 72T206 114H355Q315 173 260 194T145 215Q123 215 106 211T72 194L67 198Q72 228 85 252T114 293T150 319T186 329Q199 329 227 318T289 287T357 236T418 168Q432 148 438 134T445 114H472Q478 114 482 110T490 98T494 84T496 71Q496 63 494 51T489 28T481 9T472 0H217Z"  />
<glyph unicode="&#x686;" arabic-form="isolated" horiz-adv-x="480" d="M293 -92L342 -136Q341 -138 336 -145T325 -161T312 -175T303 -182Q298 -182 281 -171T250 -148L293 -92ZM252 -12L294 -49L324 -11L377 -54Q375 -55 371 -62T360 -78T346 -94T333 -102Q330 -102 317 -95T290 -76Q284 -87 276 -95T261 -106Q259 -106 253 -103T240 -94T224 -81T208 -68L252 -12ZM217 0Q103 0 103 -45Q103 -62 117 -86T158 -135T227 -177T324 -200L331 -205Q300 -230 261 -252T175 -275Q158 -275 132 -257T80 -207T36 -134T17 -49Q17 30 66 72T206 114H355Q315 173 260 194T145 215Q123 215 106 211T72 194L67 198Q72 228 85 252T114 293T150 319T186 329Q199 329 227 318T289 287T357 236T418 168Q432 148 438 135T445 116Q445 114 437 96T417 56T394 18T377 0H217Z"  />
<glyph unicode="&#x688;" arabic-form="terminal" horiz-adv-x="388" d="M174 438Q175 442 175 445T176 452Q176 458 171 467T148 476Q131 476 114 460T84 420Q111 421 132 425T174 438ZM60 419Q69 434 69 451Q69 456 69 466T66 490T61 518T52 546L89 573Q95 549 96 526T99 481Q114 498 130 509T163 520Q184 520 195 505T206 466Q206 452 201 436T185 403Q171 395 155 390T124 382T96 378T74 376Q50 376 40 387T22 431L24 435Q33 428 41 424T60 419ZM79 257Q89 291 102 310T128 340T156 353T181 356Q203 356 229 335T279 280T319 203T338 114H389Q401 114 407 99T413 72Q413 63 412 51T407 28T400 8T389 0H290Q287 0 275 0T247 -1T215 -2T188 -3Q140 -3 111 1T65 10T41 22T29 33Q22 42 22 62Q23 79 25 93T32 118Q36 129 41 138Q42 138 44 139Q48 141 48 141Q55 133 72 127T109 116T149 110T182 108Q210 108 225 109T249 114Q249 145 229 171T182 216T126 246T79 257Z"  />
<glyph unicode="&#x688;" arabic-form="isolated" horiz-adv-x="387" d="M174 438Q175 442 175 445T176 452Q176 458 171 467T148 476Q131 476 114 460T84 420Q111 421 132 425T174 438ZM60 419Q69 434 69 451Q69 456 69 466T66 490T61 518T52 546L89 573Q95 549 96 526T99 481Q114 498 130 509T163 520Q184 520 195 505T206 466Q206 452 201 436T185 403Q171 395 155 390T124 382T96 378T74 376Q50 376 40 387T22 431L24 435Q33 428 41 424T60 419ZM79 257Q89 291 102 310T128 340T156 353T181 356Q203 356 230 334T282 276T322 195T338 103V79Q335 67 330 55T317 33T303 14T290 0Q287 0 275 0T247 -1T215 -2T188 -3Q140 -3 111 1T65 10T41 22T29 33Q22 42 22 62Q23 79 25 93T32 118Q36 129 41 138Q42 138 44 139Q48 141 48 141Q55 133 72 127T109 116T149 110T182 108Q210 108 225 109T249 114Q249 145 229 171T182 216T126 246T79 257Z"  />
<glyph unicode="&#x691;" arabic-form="terminal" horiz-adv-x="264" d="M180 310Q193 279 202 241T217 156Q221 119 258 114H264Q275 114 281 100T288 75Q288 68 286 56T281 31T274 9T264 0H258Q250 0 241 13T220 51Q217 7 206 -37T177 -118T140 -176T99 -199Q84 -199 62 -192T17 -175T-25 -154T-55 -134L-51 -129Q-12 -129 23 -114T85 -74T127 -16T143 53Q143 68 139 91T125 140T102 194T70 248Q97 266 120 279T180 310ZM151 392Q152 396 152 399T153 406Q153 412 148 421T125 430Q108 430 91 414T61 374Q88 375 109 379T151 392ZM37 373Q46 388 46 405Q46 410 46 420T43 444T38 472T29 500L66 527Q72 503 73 480T76 435Q91 452 107 463T140 474Q161 474 172 459T183 420Q183 406 178 390T162 357Q148 349 132 344T101 336T73 332T51 330Q27 330 17 341T-1 385L1 389Q10 382 18 378T37 373Z"  />
<glyph unicode="&#x691;" arabic-form="isolated" horiz-adv-x="248" d="M151 392Q152 396 152 399T153 406Q153 412 148 421T125 430Q108 430 91 414T61 374Q88 375 109 379T151 392ZM37 373Q46 388 46 405Q46 410 46 420T43 444T38 472T29 500L66 527Q72 503 73 480T76 435Q91 452 107 463T140 474Q161 474 172 459T183 420Q183 406 178 390T162 357Q148 349 132 344T101 336T73 332T51 330Q27 330 17 341T-1 385L1 389Q10 382 18 378T37 373ZM180 310Q198 267 209 209T221 74Q221 28 210 -20T182 -108T142 -173T99 -199Q84 -199 62 -192T17 -175T-25 -154T-55 -134L-51 -129Q-12 -129 23 -114T85 -74T127 -16T143 53Q143 68 139 91T125 140T102 194T70 248Q97 266 120 279T180 310Z"  />
<glyph unicode="&#x698;" arabic-form="terminal" horiz-adv-x="264" d="M111 598L192 533L169 503Q158 488 146 475T127 459Q124 459 115 465T93 479T68 497T46 515L111 598ZM196 491L276 425Q273 422 266 411T250 387T230 363T212 351Q208 351 199 356T179 370T155 388T131 408L196 491ZM40 476L118 410Q115 406 108 395T93 371T75 348T56 336Q52 336 43 341T23 355T-2 373T-25 393L40 476ZM180 310Q193 279 202 241T217 156Q221 119 258 114H264Q277 114 282 101T288 79Q288 71 287 58T282 32T275 10T264 0H258Q250 0 241 13T220 51Q217 7 206 -37T177 -118T140 -176T99 -199Q84 -199 62 -192T17 -175T-25 -154T-55 -134L-51 -129Q-12 -129 23 -114T85 -74T127 -16T143 53Q143 68 139 91T125 140T102 194T70 248Q97 266 120 279T180 310Z"  />
<glyph unicode="&#x698;" arabic-form="isolated" horiz-adv-x="252" d="M111 598L192 533L169 503Q158 488 146 475T127 459Q124 459 115 465T93 479T68 497T46 515L111 598ZM196 491L276 425Q273 422 266 411T250 387T230 363T212 351Q208 351 199 356T179 370T155 388T131 408L196 491ZM40 476L118 410Q115 406 108 395T93 371T75 348T56 336Q52 336 43 341T23 355T-2 373T-25 393L40 476ZM180 310Q198 267 209 209T221 74Q221 28 210 -20T182 -108T142 -173T99 -199Q84 -199 62 -192T17 -175T-25 -154T-55 -134L-51 -129Q-12 -129 23 -114T85 -74T127 -16T143 53Q143 68 139 91T125 140T102 194T70 248Q97 266 120 279T180 310Z"  />
<glyph unicode="&#x6A4;" arabic-form="initial" horiz-adv-x="429" d="M215 646L295 580Q292 577 284 566T267 543T247 519T231 507Q228 507 218 513T196 527T172 545T150 563L215 646ZM300 539L380 473Q377 468 369 457T352 433T333 411T316 399Q312 399 303 404T282 418T258 436T235 456L300 539ZM144 523L222 458Q220 454 213 443T197 419T177 396T159 384Q155 384 146 389T125 403T101 421T79 440L144 523ZM238 246Q228 246 215 242T190 230T170 212T162 192Q162 169 177 154T212 129T252 117T281 113Q286 113 287 120T289 134Q289 147 286 166T277 203T261 233T238 246ZM0 0Q-10 0 -16 8T-27 29T-34 55T-36 79Q-36 96 -25 105T0 114H133Q107 134 100 151T92 195Q92 214 105 240T142 290T197 330T265 347Q291 347 313 329T350 282T375 216T384 142Q384 117 379 98T361 55Q349 33 337 17T319 0H0Z"  />
<glyph unicode="&#x6A4;" arabic-form="medial" horiz-adv-x="429" d="M215 646L295 580Q292 577 284 566T267 543T247 519T231 507Q228 507 218 513T196 527T172 545T150 563L215 646ZM300 539L380 473Q377 468 369 457T352 433T333 411T316 399Q312 399 303 404T282 418T258 436T235 456L300 539ZM144 523L222 458Q220 454 213 443T197 419T177 396T159 384Q155 384 146 389T125 403T101 421T79 440L144 523ZM238 246Q228 246 215 242T190 230T170 212T162 192Q162 169 177 154T212 129T252 117T281 113Q286 113 287 120T289 134Q289 147 286 166T277 203T261 233T238 246ZM0 0Q-10 0 -16 8T-27 29T-34 55T-36 79Q-36 96 -25 105T0 114H133Q107 134 100 151T92 195Q92 214 105 240T142 290T197 330T265 347Q291 347 313 329T350 282T375 216T384 142Q384 134 384 128T382 114H429Q440 114 446 101T453 76Q453 67 451 54T445 29T437 9T429 0H409Q391 0 380 3T363 9T353 17T347 24Q345 20 339 10T319 0H0Z"  />
<glyph unicode="&#x6A4;" arabic-form="terminal" horiz-adv-x="772" d="M581 246Q571 246 558 242T533 230T513 212T505 192Q505 169 520 154T555 129T595 117T624 113Q629 113 630 120T632 134Q632 147 629 166T620 203T604 233T581 246ZM139 0Q122 0 102 6T65 27T36 64T24 119Q24 131 26 144T33 171T42 197T55 216Q65 220 80 224T112 232T141 237T159 240L164 234Q149 215 143 202T136 167Q136 145 151 130T198 114H476Q450 134 443 151T435 195Q435 214 448 240T485 290T540 330T608 347Q634 347 656 329T693 282T718 216T727 142Q727 134 727 128T725 114H772Q784 114 790 99T796 72Q796 64 794 52T789 28T781 8T772 0H139ZM537 646L617 580L594 551Q583 536 571 523T552 507Q549 507 540 513T518 527T494 545T472 563L537 646ZM621 539L702 473L681 443Q671 428 659 415T637 399Q633 399 624 404T604 418T580 436T556 456L621 539ZM465 523L543 458Q540 454 533 443T518 419T500 396T481 384Q477 384 468 389T447 403T423 421T400 440L465 523Z"  />
<glyph unicode="&#x6A4;" arabic-form="isolated" horiz-adv-x="772" d="M537 646L617 580L594 551Q583 536 571 523T552 507Q549 507 540 513T518 527T494 545T472 563L537 646ZM621 539L702 473L681 443Q671 428 659 415T637 399Q633 399 624 404T604 418T580 436T556 456L621 539ZM465 523L543 458Q540 454 533 443T518 419T500 396T481 384Q477 384 468 389T447 403T423 421T400 440L465 523ZM581 246Q571 246 558 242T533 230T513 212T505 192Q505 169 520 154T555 129T595 117T624 113Q629 113 630 120T632 134Q632 147 629 166T620 203T604 233T581 246ZM139 0Q122 0 102 6T65 27T36 64T24 119Q24 131 26 144T33 171T42 197T55 216Q65 220 80 224T112 232T141 237T159 240L164 234Q149 215 143 202T136 167Q136 145 151 130T198 114H476Q450 134 443 151T435 195Q435 214 448 240T485 290T540 330T608 347Q634 347 656 329T693 282T718 216T727 142Q727 117 722 98T704 55Q692 33 680 17T662 0H139Z"  />
<glyph unicode="&#x6A9;" arabic-form="initial" horiz-adv-x="395" d="M0 0Q-6 0 -11 11T-21 37T-28 66T-31 86Q-28 114 0 114H216Q225 114 225 119Q225 127 207 142T163 175T108 209T55 237Q52 238 49 243T42 255T37 268T35 280Q35 291 53 314T99 364T155 417T206 459Q232 479 254 487T294 496Q303 496 315 491Q330 483 343 452T367 380Q366 379 363 379Q362 379 361 378Q350 384 340 386T319 389Q303 389 279 381T227 358T175 326T132 289Q174 266 214 242T284 193Q313 169 329 150T345 114Q345 104 338 85T321 47T301 14T285 0H0Z"  />
<glyph unicode="&#x6A9;" arabic-form="medial" horiz-adv-x="404" d="M0 0Q-6 0 -11 11T-21 37T-28 66T-31 86Q-28 114 0 114H216Q225 114 225 119Q225 127 207 142T163 175T108 209T55 237Q52 238 49 243T42 255T37 268T35 280Q35 291 53 314T99 364T155 417T206 459Q232 479 254 487T294 496Q303 496 315 491Q330 483 343 452T367 380Q366 379 363 379Q362 379 361 378Q350 384 340 386T319 389Q303 389 279 381T227 358T175 326T132 289Q174 266 214 242T284 193Q313 169 329 150T345 114H404Q416 114 420 99T424 71Q424 63 422 51T417 27T411 8T404 0H379Q376 0 370 2T354 10T336 23T318 43Q308 25 299 13T285 0H0Z"  />
<glyph unicode="&#x6A9;" arabic-form="terminal" horiz-adv-x="522" d="M161 0Q94 0 60 29T25 103Q25 131 38 160Q42 162 50 165T67 172T85 179T99 184L103 181Q94 170 94 156Q94 137 108 126T161 114H333Q343 114 343 120Q343 128 326 143T283 175T227 209T172 239Q167 242 160 257T153 281Q153 292 171 315T216 365T272 418T323 460Q349 480 371 488T411 497Q420 497 432 492Q447 484 460 453T484 381L478 379Q467 385 457 387T436 390Q420 390 396 382T344 359T292 327T249 290Q270 279 292 266T335 240T375 213T409 188Q438 164 450 148T462 114H522Q533 114 539 100T546 75Q546 67 544 55T539 30T532 9T522 0H497Q494 0 488 2T472 10T454 23T436 43Q427 28 417 14T402 0H161Z"  />
<glyph unicode="&#x6A9;" arabic-form="isolated" horiz-adv-x="515" d="M161 0Q94 0 60 29T25 103Q25 131 38 160Q42 162 50 165T67 172T85 179T99 184L103 181Q94 170 94 156Q94 137 108 126T161 114H333Q343 114 343 120Q343 128 326 143T283 175T227 209T172 239Q167 242 160 257T153 281Q153 292 171 315T216 365T272 418T323 460Q349 480 371 488T411 497Q420 497 432 492Q447 484 460 453T484 381L478 379Q467 385 457 387T436 390Q420 390 396 382T344 359T292 327T249 290Q270 279 292 266T335 240T375 213T409 188Q438 164 450 148T462 115Q462 105 455 86T438 48T418 15T402 0H161Z"  />
<glyph unicode="&#x6AF;" arabic-form="initial" horiz-adv-x="396" d="M0 0Q-6 0 -11 11T-21 37T-28 66T-31 86Q-28 114 0 114H216Q225 114 225 119Q225 127 207 142T163 175T108 209T55 237Q52 238 49 243T42 255T37 268T35 280Q35 291 53 314T99 364T155 417T206 459Q232 479 254 487T294 496Q303 496 315 491Q330 483 343 452T367 380Q366 379 363 379Q362 379 361 378Q350 384 340 386T319 389Q303 389 279 381T227 358T175 326T132 289Q174 266 214 242T284 193Q313 169 329 150T345 114Q345 104 338 85T321 47T301 14T285 0H0ZM20 334Q7 347 7 355Q7 358 15 370T40 402T79 446T131 494Q167 524 189 533T219 542Q226 542 237 534T254 521L218 509Q157 481 108 433T20 334Z"  />
<glyph unicode="&#x6AF;" arabic-form="medial" horiz-adv-x="404" d="M0 0Q-6 0 -11 11T-21 37T-28 66T-31 86Q-28 114 0 114H216Q225 114 225 119Q225 127 207 142T163 175T108 209T55 237Q52 238 49 243T42 255T37 268T35 280Q35 291 53 314T99 364T155 417T206 459Q232 479 254 487T294 496Q303 496 315 491Q330 483 343 452T367 380Q366 379 363 379Q362 379 361 378Q350 384 340 386T319 389Q303 389 279 381T227 358T175 326T132 289Q174 266 214 242T284 193Q313 169 329 150T345 114H404Q415 114 421 102T428 78Q428 71 427 58T422 32T415 10T404 0H379Q376 0 370 2T354 10T336 23T318 43Q308 25 299 13T285 0H0ZM20 334Q7 347 7 355Q7 358 15 370T40 402T79 446T131 494Q167 524 189 533T219 542Q226 542 237 534T254 521L218 509Q157 481 108 433T20 334Z"  />
</font>
</defs>
</svg>
